# MagicaVoxel @ Ephtracy

# group
o 

# material
mtllib Comet.mtl
usemtl palette

# normals
vn -1 0 0
vn 1 0 0
vn 0 0 1
vn 0 0 -1
vn 0 -1 0
vn 0 1 0

# texcoords
vt 0.423828 0.5
vt 0.591797 0.5
vt 0.705078 0.5

# verts
v -2.23517e-08 0 0.1
v -2.23517e-08 0 -0.1
v -2.23517e-08 0.1 0.3
v -2.23517e-08 0.1 0.1
v -2.23517e-08 0.1 -0.1
v -2.23517e-08 0.1 -0.2
v -2.23517e-08 0.2 -0.1
v -2.23517e-08 0.2 -0.2
v -2.23517e-08 0.3 0.3
v -2.23517e-08 0.3 0.2
v -2.23517e-08 0.3 0.1
v -2.23517e-08 0.3 -2.98023e-08
v -2.23517e-08 0.3 -0.1
v -2.23517e-08 0.3 -0.2
v -2.23517e-08 0.4 0.2
v -2.23517e-08 0.4 0.1
v -2.23517e-08 0.4 -2.98023e-08
v -2.23517e-08 0.4 -0.1
v 0.1 0 0.2
v 0.1 0 0.1
v 0.1 0.1 0.2
v 0.1 0.1 0.1
v 0.1 0.3 -0.1
v 0.1 0.3 -0.2
v 0.1 0.4 -0.1
v 0.1 0.4 -0.2
v 0.2 0 0.3
v 0.2 0 0.2
v 0.2 0 -0.1
v 0.2 0 -0.2
v 0.2 0.1 0.3
v 0.2 0.1 0.2
v 0.2 0.1 -0.1
v 0.2 0.1 -0.2
v 0.2 0.3 0.3
v 0.2 0.3 0.2
v 0.2 0.4 0.3
v 0.2 0.4 0.2
v 0.3 0 0.1
v 0.3 0 -2.98023e-08
v 0.3 0.1 0.1
v 0.3 0.1 -2.98023e-08
v 0.2 0 0.1
v 0.2 0 -2.98023e-08
v 0.2 0.1 0.1
v 0.2 0.1 -2.98023e-08
v 0.3 0 -0.1
v 0.3 0 -0.2
v 0.3 0.1 -0.1
v 0.3 0.1 -0.2
v 0.4 0 0.3
v 0.4 0 0.2
v 0.4 0 0.1
v 0.4 0.1 0.3
v 0.4 0.1 0.2
v 0.4 0.1 0.1
v 0.4 0.3 0.3
v 0.4 0.3 0.2
v 0.4 0.3 0.1
v 0.4 0.3 -2.98023e-08
v 0.4 0.3 -0.1
v 0.4 0.3 -0.2
v 0.4 0.4 0.3
v 0.4 0.4 0.2
v 0.4 0.4 0.1
v 0.4 0.4 -2.98023e-08
v 0.4 0.4 -0.1
v 0.4 0.4 -0.2
v 0.5 0 0.1
v 0.5 0 -2.98023e-08
v 0.5 0 -0.1
v 0.5 0.1 0.3
v 0.5 0.1 0.2
v 0.5 0.1 0.1
v 0.5 0.1 -2.98023e-08
v 0.5 0.1 -0.1
v 0.5 0.1 -0.2
v 0.5 0.2 0.3
v 0.5 0.2 0.2
v 0.5 0.2 -2.98023e-08
v 0.5 0.2 -0.1
v 0.5 0.3 0.3
v 0.5 0.3 0.2
v 0.5 0.3 0.1
v 0.5 0.3 -2.98023e-08
v 0.5 0.3 -0.1
v 0.5 0.3 -0.2
v 0.5 0.4 0.2
v 0.5 0.4 0.1
v 0.5 0.4 -2.98023e-08
v 0.5 0.4 -0.1
v -2.23517e-08 0.1 0.3
v -2.23517e-08 0.3 0.3
v 0.1 0.1 0.3
v 0.1 0.2 0.3
v 0.2 0 0.3
v 0.2 0.1 0.3
v 0.2 0.2 0.3
v 0.2 0.3 0.3
v 0.2 0.4 0.3
v 0.3 0 0.3
v 0.3 0.1 0.3
v 0.3 0.2 0.3
v 0.3 0.3 0.3
v 0.3 0.4 0.3
v 0.4 0 0.3
v 0.4 0.1 0.3
v 0.4 0.2 0.3
v 0.4 0.3 0.3
v 0.4 0.4 0.3
v 0.5 0.1 0.3
v 0.5 0.2 0.3
v 0.5 0.3 0.3
v -2.23517e-08 0.3 0.2
v -2.23517e-08 0.4 0.2
v 0.1 0 0.2
v 0.1 0.1 0.2
v 0.1 0.3 0.2
v 0.1 0.4 0.2
v 0.2 0 0.2
v 0.2 0.1 0.2
v 0.2 0.3 0.2
v 0.2 0.4 0.2
v 0.4 0.3 0.2
v 0.4 0.4 0.2
v 0.5 0.3 0.2
v 0.5 0.4 0.2
v -2.23517e-08 0 0.1
v -2.23517e-08 0.1 0.1
v 0.1 0 0.1
v 0.1 0.1 0.1
v 0.4 0 0.1
v 0.4 0.1 0.1
v 0.5 0 0.1
v 0.5 0.1 0.1
v 0.2 0 -2.98023e-08
v 0.2 0.1 -2.98023e-08
v 0.3 0 -2.98023e-08
v 0.3 0.1 -2.98023e-08
v 0.4 0.3 -2.98023e-08
v 0.4 0.4 -2.98023e-08
v 0.5 0.3 -2.98023e-08
v 0.5 0.4 -2.98023e-08
v 0.2 0 0.1
v 0.2 0.1 0.1
v 0.3 0 0.1
v 0.3 0.1 0.1
v 0.4 0.3 0.1
v 0.4 0.4 0.1
v 0.5 0.3 0.1
v 0.5 0.4 0.1
v -2.23517e-08 0 -0.1
v -2.23517e-08 0.1 -0.1
v -2.23517e-08 0.3 -0.1
v -2.23517e-08 0.4 -0.1
v 0.1 0 -0.1
v 0.1 0.1 -0.1
v 0.1 0.3 -0.1
v 0.1 0.4 -0.1
v 0.2 0 -0.1
v 0.2 0.1 -0.1
v 0.3 0 -0.1
v 0.3 0.1 -0.1
v 0.4 0 -0.1
v 0.4 0.1 -0.1
v 0.4 0.3 -0.1
v 0.4 0.4 -0.1
v 0.5 0 -0.1
v 0.5 0.1 -0.1
v 0.5 0.3 -0.1
v 0.5 0.4 -0.1
v -2.23517e-08 0.1 -0.2
v -2.23517e-08 0.2 -0.2
v -2.23517e-08 0.3 -0.2
v 0.1 0.1 -0.2
v 0.1 0.2 -0.2
v 0.1 0.3 -0.2
v 0.1 0.4 -0.2
v 0.2 0 -0.2
v 0.2 0.1 -0.2
v 0.2 0.2 -0.2
v 0.2 0.3 -0.2
v 0.2 0.4 -0.2
v 0.3 0 -0.2
v 0.3 0.1 -0.2
v 0.3 0.2 -0.2
v 0.3 0.3 -0.2
v 0.4 0.3 -0.2
v 0.4 0.4 -0.2
v 0.5 0.1 -0.2
v 0.5 0.3 -0.2
v 0.2 0 0.3
v 0.3 0 0.3
v 0.4 0 0.3
v 0.1 0 0.2
v 0.2 0 0.2
v 0.3 0 0.2
v 0.4 0 0.2
v -2.23517e-08 0 0.1
v 0.1 0 0.1
v 0.2 0 0.1
v 0.3 0 0.1
v 0.4 0 0.1
v 0.5 0 0.1
v 0.1 0 -2.98023e-08
v 0.2 0 -2.98023e-08
v 0.3 0 -2.98023e-08
v 0.4 0 -2.98023e-08
v 0.5 0 -2.98023e-08
v -2.23517e-08 0 -0.1
v 0.1 0 -0.1
v 0.2 0 -0.1
v 0.3 0 -0.1
v 0.4 0 -0.1
v 0.5 0 -0.1
v 0.2 0 -0.2
v 0.3 0 -0.2
v -2.23517e-08 0.1 0.3
v 0.1 0.1 0.3
v 0.2 0.1 0.3
v 0.4 0.1 0.3
v 0.5 0.1 0.3
v 0.1 0.1 0.2
v 0.2 0.1 0.2
v 0.4 0.1 0.2
v 0.5 0.1 0.2
v -2.23517e-08 0.1 0.1
v 0.1 0.1 0.1
v 0.2 0.1 0.1
v 0.3 0.1 0.1
v 0.4 0.1 0.1
v 0.5 0.1 0.1
v 0.2 0.1 -2.98023e-08
v 0.3 0.1 -2.98023e-08
v -2.23517e-08 0.1 -0.1
v 0.1 0.1 -0.1
v 0.2 0.1 -0.1
v 0.3 0.1 -0.1
v 0.4 0.1 -0.1
v 0.5 0.1 -0.1
v -2.23517e-08 0.1 -0.2
v 0.1 0.1 -0.2
v 0.2 0.1 -0.2
v 0.3 0.1 -0.2
v 0.5 0.1 -0.2
v -2.23517e-08 0.3 0.3
v 0.2 0.3 0.3
v 0.4 0.3 0.3
v 0.5 0.3 0.3
v -2.23517e-08 0.3 0.2
v 0.1 0.3 0.2
v 0.2 0.3 0.2
v 0.4 0.3 0.2
v 0.5 0.3 0.2
v 0.4 0.3 0.1
v 0.5 0.3 0.1
v 0.4 0.3 -2.98023e-08
v 0.5 0.3 -2.98023e-08
v -2.23517e-08 0.3 -0.1
v 0.1 0.3 -0.1
v 0.4 0.3 -0.1
v 0.5 0.3 -0.1
v -2.23517e-08 0.3 -0.2
v 0.1 0.3 -0.2
v 0.4 0.3 -0.2
v 0.5 0.3 -0.2
v 0.2 0.4 0.3
v 0.3 0.4 0.3
v 0.4 0.4 0.3
v -2.23517e-08 0.4 0.2
v 0.1 0.4 0.2
v 0.2 0.4 0.2
v 0.4 0.4 0.2
v 0.5 0.4 0.2
v -2.23517e-08 0.4 0.1
v 0.1 0.4 0.1
v 0.2 0.4 0.1
v 0.3 0.4 0.1
v 0.4 0.4 0.1
v 0.5 0.4 0.1
v -2.23517e-08 0.4 -2.98023e-08
v 0.1 0.4 -2.98023e-08
v 0.2 0.4 -2.98023e-08
v 0.3 0.4 -2.98023e-08
v 0.4 0.4 -2.98023e-08
v 0.5 0.4 -2.98023e-08
v -2.23517e-08 0.4 -0.1
v 0.1 0.4 -0.1
v 0.2 0.4 -0.1
v 0.3 0.4 -0.1
v 0.4 0.4 -0.1
v 0.5 0.4 -0.1
v 0.1 0.4 -0.2
v 0.2 0.4 -0.2
v 0.4 0.4 -0.2

# faces
f 4/3/1 2/3/1 1/3/1
f 5/3/1 2/3/1 4/3/1
f 7/3/1 4/3/1 3/3/1
f 7/2/1 6/2/1 5/2/1
f 7/3/1 5/3/1 4/3/1
f 8/2/1 6/2/1 7/2/1
f 9/3/1 7/3/1 3/3/1
f 9/3/1 8/3/1 7/3/1
f 10/3/1 8/3/1 9/3/1
f 11/3/1 8/3/1 10/3/1
f 12/3/1 8/3/1 11/3/1
f 13/3/1 8/3/1 12/3/1
f 14/3/1 8/3/1 13/3/1
f 15/2/1 11/2/1 10/2/1
f 16/1/1 12/1/1 11/1/1
f 16/2/1 11/2/1 15/2/1
f 17/3/1 13/3/1 12/3/1
f 17/1/1 12/1/1 16/1/1
f 18/3/1 13/3/1 17/3/1
f 21/3/1 20/3/1 19/3/1
f 22/3/1 20/3/1 21/3/1
f 25/1/1 24/1/1 23/1/1
f 26/1/1 24/1/1 25/1/1
f 31/1/1 28/1/1 27/1/1
f 32/1/1 28/1/1 31/1/1
f 33/1/1 30/1/1 29/1/1
f 34/1/1 30/1/1 33/1/1
f 37/3/1 36/3/1 35/3/1
f 38/3/1 36/3/1 37/3/1
f 41/3/1 40/3/1 39/3/1
f 42/3/1 40/3/1 41/3/1
f 43/3/2 44/3/2 45/3/2
f 45/3/2 44/3/2 46/3/2
f 47/1/2 48/1/2 49/1/2
f 49/1/2 48/1/2 50/1/2
f 51/3/2 52/3/2 54/3/2
f 52/1/2 53/1/2 55/1/2
f 54/3/2 52/3/2 55/3/2
f 55/1/2 53/1/2 56/1/2
f 57/1/2 58/1/2 63/1/2
f 63/1/2 58/1/2 64/1/2
f 59/3/2 60/3/2 65/3/2
f 65/3/2 60/3/2 66/3/2
f 61/3/2 62/3/2 67/3/2
f 67/3/2 62/3/2 68/3/2
f 69/3/2 70/3/2 74/3/2
f 70/2/2 71/2/2 75/2/2
f 74/3/2 70/3/2 75/3/2
f 75/2/2 71/2/2 76/2/2
f 72/2/2 73/2/2 78/2/2
f 76/3/2 77/3/2 79/3/2
f 78/2/2 73/2/2 79/2/2
f 73/3/2 74/3/2 79/3/2
f 75/3/2 76/3/2 79/3/2
f 74/3/2 75/3/2 79/3/2
f 79/3/2 77/3/2 80/3/2
f 80/3/2 77/3/2 81/3/2
f 78/3/2 79/3/2 82/3/2
f 79/3/2 80/3/2 82/3/2
f 82/3/2 80/3/2 83/3/2
f 83/3/2 80/3/2 84/3/2
f 80/1/2 81/1/2 85/1/2
f 84/3/2 80/3/2 85/3/2
f 81/3/2 77/3/2 86/3/2
f 85/1/2 81/1/2 86/1/2
f 86/3/2 77/3/2 87/3/2
f 83/3/2 84/3/2 88/3/2
f 88/3/2 84/3/2 89/3/2
f 85/2/2 86/2/2 90/2/2
f 90/2/2 86/2/2 91/2/2
f 94/3/3 93/3/3 92/3/3
f 95/3/3 93/3/3 94/3/3
f 97/2/3 95/2/3 94/2/3
f 98/3/3 93/3/3 95/3/3
f 98/2/3 95/2/3 97/2/3
f 99/3/3 93/3/3 98/3/3
f 101/1/3 97/1/3 96/1/3
f 102/3/3 98/3/3 97/3/3
f 102/1/3 97/1/3 101/1/3
f 103/1/3 99/1/3 98/1/3
f 103/3/3 98/3/3 102/3/3
f 104/3/3 100/3/3 99/3/3
f 104/1/3 99/1/3 103/1/3
f 105/3/3 100/3/3 104/3/3
f 106/3/3 103/3/3 102/3/3
f 106/3/3 102/3/3 101/3/3
f 106/3/3 104/3/3 103/3/3
f 107/3/3 104/3/3 106/3/3
f 108/3/3 104/3/3 107/3/3
f 109/1/3 105/1/3 104/1/3
f 109/3/3 104/3/3 108/3/3
f 110/1/3 105/1/3 109/1/3
f 111/2/3 108/2/3 107/2/3
f 112/3/3 109/3/3 108/3/3
f 112/2/3 108/2/3 111/2/3
f 113/3/3 109/3/3 112/3/3
f 118/2/3 115/2/3 114/2/3
f 119/2/3 115/2/3 118/2/3
f 120/3/3 117/3/3 116/3/3
f 121/3/3 117/3/3 120/3/3
f 122/3/3 119/3/3 118/3/3
f 123/3/3 119/3/3 122/3/3
f 126/3/3 125/3/3 124/3/3
f 127/3/3 125/3/3 126/3/3
f 130/3/3 129/3/3 128/3/3
f 131/3/3 129/3/3 130/3/3
f 134/3/3 133/3/3 132/3/3
f 135/3/3 133/3/3 134/3/3
f 138/3/3 137/3/3 136/3/3
f 139/3/3 137/3/3 138/3/3
f 142/2/3 141/2/3 140/2/3
f 143/2/3 141/2/3 142/2/3
f 144/3/4 145/3/4 146/3/4
f 146/3/4 145/3/4 147/3/4
f 148/3/4 149/3/4 150/3/4
f 150/3/4 149/3/4 151/3/4
f 152/3/4 153/3/4 156/3/4
f 156/3/4 153/3/4 157/3/4
f 154/3/4 155/3/4 158/3/4
f 158/3/4 155/3/4 159/3/4
f 156/1/4 157/1/4 160/1/4
f 160/1/4 157/1/4 161/1/4
f 162/1/4 163/1/4 164/1/4
f 164/1/4 163/1/4 165/1/4
f 164/2/4 165/2/4 168/2/4
f 168/2/4 165/2/4 169/2/4
f 166/2/4 167/2/4 170/2/4
f 170/2/4 167/2/4 171/2/4
f 172/2/4 173/2/4 175/2/4
f 173/3/4 174/3/4 176/3/4
f 175/2/4 173/2/4 176/2/4
f 176/3/4 174/3/4 177/3/4
f 175/3/4 176/3/4 180/3/4
f 176/3/4 177/3/4 180/3/4
f 180/3/4 177/3/4 181/3/4
f 177/1/4 178/1/4 182/1/4
f 181/3/4 177/3/4 182/3/4
f 182/1/4 178/1/4 183/1/4
f 179/1/4 180/1/4 184/1/4
f 180/3/4 181/3/4 185/3/4
f 184/1/4 180/1/4 185/1/4
f 181/1/4 182/1/4 186/1/4
f 185/3/4 181/3/4 186/3/4
f 182/3/4 183/3/4 187/3/4
f 186/1/4 182/1/4 187/1/4
f 187/3/4 183/3/4 188/3/4
f 186/3/4 187/3/4 188/3/4
f 185/3/4 186/3/4 188/3/4
f 188/3/4 183/3/4 189/3/4
f 185/3/4 188/3/4 190/3/4
f 190/3/4 188/3/4 191/3/4
f 196/1/5 193/1/5 192/1/5
f 197/3/5 194/3/5 193/3/5
f 197/1/5 193/1/5 196/1/5
f 198/3/5 194/3/5 197/3/5
f 200/3/5 196/3/5 195/3/5
f 200/3/5 197/3/5 196/3/5
f 201/3/5 197/3/5 200/3/5
f 202/1/5 198/1/5 197/1/5
f 202/3/5 197/3/5 201/3/5
f 203/1/5 198/1/5 202/1/5
f 205/3/5 201/3/5 200/3/5
f 205/3/5 200/3/5 199/3/5
f 206/3/5 201/3/5 205/3/5
f 207/3/5 203/3/5 202/3/5
f 207/3/5 204/3/5 203/3/5
f 208/3/5 204/3/5 207/3/5
f 209/3/5 204/3/5 208/3/5
f 210/3/5 205/3/5 199/3/5
f 211/1/5 206/1/5 205/1/5
f 211/3/5 205/3/5 210/3/5
f 212/3/5 207/3/5 206/3/5
f 212/1/5 206/1/5 211/1/5
f 213/1/5 208/1/5 207/1/5
f 213/3/5 207/3/5 212/3/5
f 214/2/5 209/2/5 208/2/5
f 214/1/5 208/1/5 213/1/5
f 215/2/5 209/2/5 214/2/5
f 216/1/5 213/1/5 212/1/5
f 217/1/5 213/1/5 216/1/5
f 223/3/5 219/3/5 218/3/5
f 223/2/5 220/2/5 219/2/5
f 224/2/5 220/2/5 223/2/5
f 225/2/5 222/2/5 221/2/5
f 226/2/5 222/2/5 225/2/5
f 227/3/5 223/3/5 218/3/5
f 228/3/5 223/3/5 227/3/5
f 231/3/5 226/3/5 225/3/5
f 232/3/5 226/3/5 231/3/5
f 233/3/5 230/3/5 229/3/5
f 234/3/5 230/3/5 233/3/5
f 241/2/5 236/2/5 235/2/5
f 242/3/5 237/3/5 236/3/5
f 242/2/5 236/2/5 241/2/5
f 243/3/5 237/3/5 242/3/5
f 244/3/5 240/3/5 239/3/5
f 244/3/5 239/3/5 238/3/5
f 245/3/5 240/3/5 244/3/5
f 246/3/6 247/3/6 250/3/6
f 250/3/6 247/3/6 251/3/6
f 251/3/6 247/3/6 252/3/6
f 248/3/6 249/3/6 253/3/6
f 253/3/6 249/3/6 254/3/6
f 255/3/6 256/3/6 257/3/6
f 257/3/6 256/3/6 258/3/6
f 259/3/6 260/3/6 263/3/6
f 263/3/6 260/3/6 264/3/6
f 261/3/6 262/3/6 265/3/6
f 265/3/6 262/3/6 266/3/6
f 267/3/6 268/3/6 272/3/6
f 268/1/6 269/1/6 273/1/6
f 270/2/6 271/2/6 275/2/6
f 271/3/6 272/3/6 276/3/6
f 275/2/6 271/2/6 276/2/6
f 272/3/6 268/3/6 277/3/6
f 276/3/6 272/3/6 277/3/6
f 268/1/6 273/1/6 278/1/6
f 277/3/6 268/3/6 278/3/6
f 273/3/6 274/3/6 279/3/6
f 278/1/6 273/1/6 279/1/6
f 279/3/6 274/3/6 280/3/6
f 275/1/6 276/1/6 281/1/6
f 276/3/6 277/3/6 282/3/6
f 281/1/6 276/1/6 282/1/6
f 277/2/6 278/2/6 283/2/6
f 282/3/6 277/3/6 283/3/6
f 278/3/6 279/3/6 284/3/6
f 283/2/6 278/2/6 284/2/6
f 284/3/6 279/3/6 285/3/6
f 281/3/6 282/3/6 287/3/6
f 282/3/6 283/3/6 287/3/6
f 283/3/6 284/3/6 287/3/6
f 287/3/6 284/3/6 288/3/6
f 288/3/6 284/3/6 289/3/6
f 284/1/6 285/1/6 290/1/6
f 289/3/6 284/3/6 290/3/6
f 285/2/6 286/2/6 291/2/6
f 290/1/6 285/1/6 291/1/6
f 291/2/6 286/2/6 292/2/6
f 288/1/6 289/1/6 293/1/6
f 289/3/6 290/3/6 294/3/6
f 293/1/6 289/1/6 294/1/6
f 290/3/6 291/3/6 294/3/6
f 294/3/6 291/3/6 295/3/6
