# MagicaVoxel @ Ephtracy

# group
o 

# material
mtllib Robot2.mtl
usemtl palette

# normals
vn -1 0 0
vn 1 0 0
vn 0 0 1
vn 0 0 -1
vn 0 -1 0
vn 0 1 0

# texcoords
vt 0.197266 0.5
vt 0.705078 0.5
vt 0.958984 0.5
vt 0.962891 0.5
vt 0.978516 0.5
vt 0.990234 0.5
vt 0.994141 0.5

# verts
v -1.3 1.2 -0.4
v -1.3 1.2 -0.6
v -1.3 1.3 -0.4
v -1.3 1.3 -0.6
v -1.1 1.2 -0.3
v -1.1 1.2 -0.4
v -1.1 1.3 -0.3
v -1.1 1.3 -0.4
v -0.5 1.1 -0.3
v -0.5 1.1 -0.7
v -0.5 1.2 -0.4
v -0.5 1.2 -0.6
v -0.5 1.3 -0.4
v -0.5 1.3 -0.6
v -0.5 1.4 -0.3
v -0.5 1.4 -0.7
v -0.4 0 -0.2
v -0.4 0 -0.6
v -0.4 0.1 -0.2
v -0.4 0.1 -0.4
v -0.4 0.1 -0.6
v -0.4 0.3 -0.5
v -0.4 0.3 -0.6
v -0.4 0.6 -0.4
v -0.4 0.6 -0.5
v -0.4 0.6 -0.6
v -0.4 0.7 -0.4
v -0.4 0.7 -0.5
v -0.4 0.7 -0.6
v -0.4 1 -0.2
v -0.4 1 -0.3
v -0.4 1 -0.8
v -0.4 1.1 -0.3
v -0.4 1.1 -0.7
v -0.4 1.2 -0.2
v -0.4 1.2 -0.3
v -0.4 1.4 -0.3
v -0.4 1.4 -0.7
v -0.4 1.5 -0.2
v -0.4 1.5 -0.8
v -0.3 0.6 -0.3
v -0.3 0.6 -0.4
v -0.3 0.6 -0.6
v -0.3 0.6 -0.7
v -0.3 0.7 -0.4
v -0.3 0.7 -0.5
v -0.3 0.7 -0.6
v -0.3 0.8 -0.3
v -0.3 0.8 -0.7
v -0.3 1.1 -0.8
v -0.3 1.1 -0.9
v -0.3 1.4 -0.1
v -0.3 1.4 -0.2
v -0.3 1.4 -0.8
v -0.3 1.4 -0.9
v -0.3 1.5 -0.2
v -0.3 1.5 -0.3
v -0.3 1.5 -0.5
v -0.3 1.5 -0.7
v -0.3 1.6 -0.3
v -0.3 1.6 -0.5
v -0.3 1.6 -0.7
v -0.3 1.7 -0.4
v -0.3 1.7 -0.5
v -0.3 1.8 -0.3
v -0.3 1.8 -0.4
v -0.3 2 -0.2
v -0.3 2 -0.3
v -0.3 2.1 -0.1
v -0.3 2.1 -0.2
v -0.2 0.8 -0.4
v -0.2 0.8 -0.6
v -0.2 1 -0.4
v -0.2 1 -0.6
v -0.2 1.6 -0.5
v -0.2 1.6 -0.6
v -0.2 1.7 -0.4
v -0.2 1.7 -0.5
v -0.2 1.7 -0.6
v -0.2 1.8 -0.3
v -0.2 1.8 -0.4
v -0.2 1.8 -0.5
v -0.2 1.9 -0.3
v -0.2 1.9 -0.4
v -0.0999999 1.1 -0.8
v -0.0999999 1.1 -0.9
v -0.0999999 1.4 -0.8
v -0.0999999 1.4 -0.9
v 0.2 0 -0.2
v 0.2 0 -0.6
v 0.2 0.1 -0.2
v 0.2 0.1 -0.4
v 0.2 0.1 -0.6
v 0.2 0.3 -0.4
v 0.2 0.3 -0.5
v 0.2 0.5 -0.4
v 0.2 0.5 -0.5
v 0.2 0.6 -0.4
v 0.2 0.6 -0.6
v 0.2 1.1 -0.8
v 0.2 1.1 -0.9
v 0.2 1.4 -0.8
v 0.2 1.4 -0.9
v 1 1.2 -0.3
v 1 1.2 -0.4
v 1 1.3 -0.3
v 1 1.3 -0.4
v -1 1.2 -0.3
v -1 1.2 -0.4
v -1 1.3 -0.3
v -1 1.3 -0.4
v -0.2 0 -0.2
v -0.2 0 -0.6
v -0.2 0.1 -0.2
v -0.2 0.1 -0.4
v -0.2 0.1 -0.6
v -0.2 0.2 -0.4
v -0.2 0.2 -0.5
v -0.2 0.3 -0.4
v -0.2 0.3 -0.5
v -0.2 0.6 -0.4
v -0.2 0.6 -0.6
v -0.2 1.1 -0.8
v -0.2 1.1 -0.9
v -0.2 1.4 -0.8
v -0.2 1.4 -0.9
v 0.1 1.1 -0.8
v 0.1 1.1 -0.9
v 0.1 1.4 -0.8
v 0.1 1.4 -0.9
v 0.2 0.8 -0.4
v 0.2 0.8 -0.6
v 0.2 1 -0.4
v 0.2 1 -0.6
v 0.2 1.6 -0.5
v 0.2 1.6 -0.6
v 0.2 1.7 -0.4
v 0.2 1.7 -0.5
v 0.2 1.7 -0.6
v 0.2 1.8 -0.3
v 0.2 1.8 -0.4
v 0.2 1.8 -0.5
v 0.2 1.9 -0.3
v 0.2 1.9 -0.4
v 0.3 0.6 -0.3
v 0.3 0.6 -0.4
v 0.3 0.6 -0.6
v 0.3 0.6 -0.7
v 0.3 0.7 -0.4
v 0.3 0.7 -0.6
v 0.3 0.8 -0.3
v 0.3 0.8 -0.7
v 0.3 1.1 -0.8
v 0.3 1.1 -0.9
v 0.3 1.2 -0.8
v 0.3 1.4 -0.1
v 0.3 1.4 -0.2
v 0.3 1.4 -0.8
v 0.3 1.4 -0.9
v 0.3 1.5 -0.2
v 0.3 1.5 -0.3
v 0.3 1.5 -0.7
v 0.3 1.6 -0.3
v 0.3 1.6 -0.5
v 0.3 1.6 -0.7
v 0.3 1.7 -0.4
v 0.3 1.7 -0.5
v 0.3 1.8 -0.3
v 0.3 1.8 -0.4
v 0.3 2 -0.2
v 0.3 2 -0.3
v 0.3 2.1 -0.1
v 0.3 2.1 -0.2
v 0.4 0 -0.2
v 0.4 0 -0.6
v 0.4 0.1 -0.2
v 0.4 0.1 -0.4
v 0.4 0.1 -0.6
v 0.4 0.7 -0.4
v 0.4 0.7 -0.6
v 0.4 1 -0.2
v 0.4 1 -0.5
v 0.4 1 -0.7
v 0.4 1 -0.8
v 0.4 1.1 -0.3
v 0.4 1.1 -0.5
v 0.4 1.1 -0.7
v 0.4 1.2 -0.7
v 0.4 1.2 -0.8
v 0.4 1.3 -0.2
v 0.4 1.3 -0.3
v 0.4 1.4 -0.3
v 0.4 1.4 -0.7
v 0.4 1.5 -0.2
v 0.4 1.5 -0.8
v 0.5 1.1 -0.3
v 0.5 1.1 -0.7
v 0.5 1.2 -0.4
v 0.5 1.2 -0.6
v 0.5 1.3 -0.4
v 0.5 1.3 -0.6
v 0.5 1.4 -0.3
v 0.5 1.4 -0.7
v 1.1 1.2 -0.3
v 1.1 1.2 -0.4
v 1.1 1.3 -0.3
v 1.1 1.3 -0.4
v 1.3 1.2 -0.4
v 1.3 1.2 -0.6
v 1.3 1.3 -0.4
v 1.3 1.3 -0.6
v -0.3 1.4 -0.1
v -0.3 2.1 -0.1
v -0.2 1.8 -0.1
v -0.2 1.9 -0.1
v 0.2 1.8 -0.1
v 0.2 1.9 -0.1
v 0.3 1.4 -0.1
v 0.3 2.1 -0.1
v -0.4 0 -0.2
v -0.4 0.1 -0.2
v -0.4 1 -0.2
v -0.4 1.2 -0.2
v -0.4 1.5 -0.2
v -0.3 1 -0.2
v -0.3 1.1 -0.2
v -0.3 1.2 -0.2
v -0.3 1.3 -0.2
v -0.3 1.4 -0.2
v -0.3 1.5 -0.2
v -0.2 0 -0.2
v -0.2 0.1 -0.2
v -0.2 1.1 -0.2
v -0.2 1.3 -0.2
v 0.1 1 -0.2
v 0.1 1.1 -0.2
v 0.2 0 -0.2
v 0.2 0.1 -0.2
v 0.2 1.1 -0.2
v 0.2 1.2 -0.2
v 0.3 1.2 -0.2
v 0.3 1.3 -0.2
v 0.3 1.4 -0.2
v 0.3 1.5 -0.2
v 0.4 0 -0.2
v 0.4 0.1 -0.2
v 0.4 1 -0.2
v 0.4 1.3 -0.2
v 0.4 1.5 -0.2
v -1.1 1.2 -0.3
v -1.1 1.3 -0.3
v -1 1.2 -0.3
v -1 1.3 -0.3
v -0.5 1.1 -0.3
v -0.5 1.4 -0.3
v -0.4 1.1 -0.3
v -0.4 1.2 -0.3
v -0.4 1.4 -0.3
v -0.3 0.6 -0.3
v -0.3 0.8 -0.3
v 0.3 0.6 -0.3
v 0.3 0.8 -0.3
v 0.4 1.1 -0.3
v 0.4 1.3 -0.3
v 0.4 1.4 -0.3
v 0.5 1.1 -0.3
v 0.5 1.4 -0.3
v 1 1.2 -0.3
v 1 1.3 -0.3
v 1.1 1.2 -0.3
v 1.1 1.3 -0.3
v -1.3 1.2 -0.4
v -1.3 1.3 -0.4
v -1.1 1.2 -0.4
v -1.1 1.3 -0.4
v -1 1.2 -0.4
v -1 1.3 -0.4
v -0.8 1.2 -0.4
v -0.8 1.3 -0.4
v -0.7 1.2 -0.4
v -0.7 1.3 -0.4
v -0.5 1.2 -0.4
v -0.5 1.3 -0.4
v -0.4 0.1 -0.4
v -0.4 0.6 -0.4
v -0.4 0.7 -0.4
v -0.3 0.2 -0.4
v -0.3 0.3 -0.4
v -0.3 0.6 -0.4
v -0.3 0.7 -0.4
v -0.2 0.1 -0.4
v -0.2 0.2 -0.4
v -0.2 0.3 -0.4
v -0.2 0.6 -0.4
v -0.2 0.8 -0.4
v -0.2 1 -0.4
v 0.2 0.1 -0.4
v 0.2 0.3 -0.4
v 0.2 0.5 -0.4
v 0.2 0.6 -0.4
v 0.2 0.8 -0.4
v 0.2 1 -0.4
v 0.3 0.3 -0.4
v 0.3 0.5 -0.4
v 0.3 0.6 -0.4
v 0.3 0.7 -0.4
v 0.4 0.1 -0.4
v 0.4 0.7 -0.4
v 0.5 1.2 -0.4
v 0.5 1.3 -0.4
v 1 1.2 -0.4
v 1 1.3 -0.4
v 1.1 1.2 -0.4
v 1.1 1.3 -0.4
v 1.3 1.2 -0.4
v 1.3 1.3 -0.4
v -0.3 2 -0.2
v -0.3 2.1 -0.2
v 0.3 2 -0.2
v 0.3 2.1 -0.2
v -0.3 1.8 -0.3
v -0.3 2 -0.3
v -0.2 1.8 -0.3
v -0.2 1.9 -0.3
v 0.2 1.8 -0.3
v 0.2 1.9 -0.3
v 0.3 1.8 -0.3
v 0.3 2 -0.3
v -0.3 1.7 -0.4
v -0.3 1.8 -0.4
v -0.2 1.7 -0.4
v -0.2 1.8 -0.4
v -0.2 1.9 -0.4
v 0.2 1.7 -0.4
v 0.2 1.8 -0.4
v 0.2 1.9 -0.4
v 0.3 1.7 -0.4
v 0.3 1.8 -0.4
v -0.3 1.6 -0.5
v -0.3 1.7 -0.5
v -0.2 1.6 -0.5
v -0.2 1.7 -0.5
v -0.2 1.8 -0.5
v 0.2 1.6 -0.5
v 0.2 1.7 -0.5
v 0.2 1.8 -0.5
v 0.3 1.6 -0.5
v 0.3 1.7 -0.5
v -1.3 1.2 -0.6
v -1.3 1.3 -0.6
v -1 1.2 -0.6
v -1 1.3 -0.6
v -0.5 1.2 -0.6
v -0.5 1.3 -0.6
v -0.4 0 -0.6
v -0.4 0.1 -0.6
v -0.4 0.3 -0.6
v -0.4 0.6 -0.6
v -0.4 0.7 -0.6
v -0.3 0.3 -0.6
v -0.3 0.6 -0.6
v -0.3 0.7 -0.6
v -0.2 0 -0.6
v -0.2 0.1 -0.6
v -0.2 0.6 -0.6
v -0.2 0.8 -0.6
v -0.2 1 -0.6
v -0.2 1.6 -0.6
v -0.2 1.7 -0.6
v 0 1.6 -0.6
v 0.2 0 -0.6
v 0.2 0.1 -0.6
v 0.2 0.6 -0.6
v 0.2 0.8 -0.6
v 0.2 1 -0.6
v 0.2 1.6 -0.6
v 0.2 1.7 -0.6
v 0.3 0.6 -0.6
v 0.3 0.7 -0.6
v 0.4 0 -0.6
v 0.4 0.1 -0.6
v 0.4 0.7 -0.6
v 0.5 1.2 -0.6
v 0.5 1.3 -0.6
v 0.8 1.2 -0.6
v 0.8 1.3 -0.6
v 0.9 1.2 -0.6
v 0.9 1.3 -0.6
v 1 1.2 -0.6
v 1 1.3 -0.6
v 1.3 1.2 -0.6
v 1.3 1.3 -0.6
v -0.5 1.1 -0.7
v -0.5 1.4 -0.7
v -0.4 1.1 -0.7
v -0.4 1.4 -0.7
v -0.3 0.6 -0.7
v -0.3 0.8 -0.7
v -0.3 1.5 -0.7
v -0.3 1.6 -0.7
v 0 1.5 -0.7
v 0 1.6 -0.7
v 0.3 0.6 -0.7
v 0.3 0.8 -0.7
v 0.3 1.5 -0.7
v 0.3 1.6 -0.7
v 0.4 1.1 -0.7
v 0.4 1.2 -0.7
v 0.4 1.4 -0.7
v 0.5 1.1 -0.7
v 0.5 1.4 -0.7
v -0.4 1 -0.8
v -0.4 1.5 -0.8
v -0.3 1.1 -0.8
v -0.3 1.4 -0.8
v -0.2 1.1 -0.8
v -0.2 1.4 -0.8
v -0.0999999 1.1 -0.8
v -0.0999999 1.4 -0.8
v 0.1 1.1 -0.8
v 0.1 1.4 -0.8
v 0.2 1.1 -0.8
v 0.2 1.4 -0.8
v 0.3 1 -0.8
v 0.3 1.1 -0.8
v 0.3 1.2 -0.8
v 0.3 1.4 -0.8
v 0.4 1 -0.8
v 0.4 1.2 -0.8
v 0.4 1.5 -0.8
v -0.3 1.1 -0.9
v -0.3 1.4 -0.9
v -0.2 1.1 -0.9
v -0.2 1.4 -0.9
v -0.0999999 1.1 -0.9
v -0.0999999 1.4 -0.9
v 0.1 1.1 -0.9
v 0.1 1.4 -0.9
v 0.2 1.1 -0.9
v 0.2 1.4 -0.9
v 0.3 1.1 -0.9
v 0.3 1.4 -0.9
v -0.4 0 -0.2
v -0.2 0 -0.2
v 0.2 0 -0.2
v 0.4 0 -0.2
v -0.4 0 -0.6
v -0.2 0 -0.6
v 0.2 0 -0.6
v 0.4 0 -0.6
v -0.3 0.6 -0.3
v 0.3 0.6 -0.3
v -0.3 0.6 -0.4
v -0.2 0.6 -0.4
v 0.2 0.6 -0.4
v 0.3 0.6 -0.4
v -0.3 0.6 -0.6
v -0.2 0.6 -0.6
v 0.2 0.6 -0.6
v 0.3 0.6 -0.6
v -0.3 0.6 -0.7
v 0.3 0.6 -0.7
v -0.4 1 -0.2
v -0.3 1 -0.2
v 0.1 1 -0.2
v 0.4 1 -0.2
v -0.4 1 -0.3
v -0.3 1 -0.3
v 0.1 1 -0.3
v 0.2 1 -0.3
v -0.2 1 -0.4
v 0.2 1 -0.4
v 0.3 1 -0.4
v 0.3 1 -0.5
v 0.4 1 -0.5
v -0.2 1 -0.6
v 0.2 1 -0.6
v 0.3 1 -0.7
v 0.4 1 -0.7
v -0.4 1 -0.8
v 0.3 1 -0.8
v 0.4 1 -0.8
v -0.5 1.1 -0.3
v -0.4 1.1 -0.3
v 0.4 1.1 -0.3
v 0.5 1.1 -0.3
v 0.4 1.1 -0.5
v -0.5 1.1 -0.7
v -0.4 1.1 -0.7
v 0.4 1.1 -0.7
v 0.5 1.1 -0.7
v -0.3 1.1 -0.8
v -0.2 1.1 -0.8
v -0.0999999 1.1 -0.8
v 0.1 1.1 -0.8
v 0.2 1.1 -0.8
v 0.3 1.1 -0.8
v -0.3 1.1 -0.9
v -0.2 1.1 -0.9
v -0.0999999 1.1 -0.9
v 0.1 1.1 -0.9
v 0.2 1.1 -0.9
v 0.3 1.1 -0.9
v -1.1 1.2 -0.3
v -1 1.2 -0.3
v 1 1.2 -0.3
v 1.1 1.2 -0.3
v -1.3 1.2 -0.4
v -1.1 1.2 -0.4
v -1 1.2 -0.4
v -0.8 1.2 -0.4
v -0.7 1.2 -0.4
v -0.5 1.2 -0.4
v 0.5 1.2 -0.4
v 1 1.2 -0.4
v 1.1 1.2 -0.4
v 1.3 1.2 -0.4
v -0.8 1.2 -0.5
v -0.7 1.2 -0.5
v 0.8 1.2 -0.5
v 0.9 1.2 -0.5
v -1.3 1.2 -0.6
v -1 1.2 -0.6
v -0.5 1.2 -0.6
v 0.5 1.2 -0.6
v 0.8 1.2 -0.6
v 0.9 1.2 -0.6
v 1 1.2 -0.6
v 1.3 1.2 -0.6
v -0.3 1.4 -0.1
v 0.3 1.4 -0.1
v -0.3 1.4 -0.2
v 0.3 1.4 -0.2
v -0.4 0.1 -0.2
v -0.2 0.1 -0.2
v 0.2 0.1 -0.2
v 0.4 0.1 -0.2
v -0.4 0.1 -0.4
v -0.2 0.1 -0.4
v 0.2 0.1 -0.4
v 0.4 0.1 -0.4
v -0.4 0.7 -0.4
v -0.3 0.7 -0.4
v 0.3 0.7 -0.4
v 0.4 0.7 -0.4
v -0.4 0.7 -0.5
v -0.3 0.7 -0.5
v -0.4 0.7 -0.6
v -0.3 0.7 -0.6
v 0.3 0.7 -0.6
v 0.4 0.7 -0.6
v -0.3 0.8 -0.3
v 0.3 0.8 -0.3
v -0.2 0.8 -0.4
v 0.2 0.8 -0.4
v -0.2 0.8 -0.6
v 0.2 0.8 -0.6
v -0.3 0.8 -0.7
v 0.3 0.8 -0.7
v -1.1 1.3 -0.3
v -1 1.3 -0.3
v 1 1.3 -0.3
v 1.1 1.3 -0.3
v -1.3 1.3 -0.4
v -1.1 1.3 -0.4
v -1 1.3 -0.4
v -0.8 1.3 -0.4
v -0.7 1.3 -0.4
v -0.5 1.3 -0.4
v 0.5 1.3 -0.4
v 1 1.3 -0.4
v 1.1 1.3 -0.4
v 1.3 1.3 -0.4
v -0.8 1.3 -0.5
v -0.7 1.3 -0.5
v 0.8 1.3 -0.5
v 0.9 1.3 -0.5
v -1.3 1.3 -0.6
v -1 1.3 -0.6
v -0.5 1.3 -0.6
v 0.5 1.3 -0.6
v 0.8 1.3 -0.6
v 0.9 1.3 -0.6
v 1 1.3 -0.6
v 1.3 1.3 -0.6
v -0.5 1.4 -0.3
v -0.4 1.4 -0.3
v 0.4 1.4 -0.3
v 0.5 1.4 -0.3
v -0.5 1.4 -0.7
v -0.4 1.4 -0.7
v 0.4 1.4 -0.7
v 0.5 1.4 -0.7
v -0.3 1.4 -0.8
v -0.2 1.4 -0.8
v -0.0999999 1.4 -0.8
v 0.1 1.4 -0.8
v 0.2 1.4 -0.8
v 0.3 1.4 -0.8
v -0.3 1.4 -0.9
v -0.2 1.4 -0.9
v -0.0999999 1.4 -0.9
v 0.1 1.4 -0.9
v 0.2 1.4 -0.9
v 0.3 1.4 -0.9
v -0.4 1.5 -0.2
v -0.3 1.5 -0.2
v 0.3 1.5 -0.2
v 0.4 1.5 -0.2
v -0.3 1.5 -0.3
v 0.3 1.5 -0.3
v -0.3 1.5 -0.5
v -0.3 1.5 -0.7
v 0 1.5 -0.7
v 0.3 1.5 -0.7
v -0.4 1.5 -0.8
v 0.4 1.5 -0.8
v -0.3 1.6 -0.5
v -0.2 1.6 -0.5
v 0.2 1.6 -0.5
v 0.3 1.6 -0.5
v -0.2 1.6 -0.6
v 0 1.6 -0.6
v 0.2 1.6 -0.6
v -0.3 1.6 -0.7
v 0 1.6 -0.7
v 0.3 1.6 -0.7
v -0.3 1.7 -0.4
v -0.2 1.7 -0.4
v 0.2 1.7 -0.4
v 0.3 1.7 -0.4
v -0.3 1.7 -0.5
v -0.2 1.7 -0.5
v 0.2 1.7 -0.5
v 0.3 1.7 -0.5
v -0.2 1.7 -0.6
v 0.2 1.7 -0.6
v -0.3 1.8 -0.3
v -0.2 1.8 -0.3
v 0.2 1.8 -0.3
v 0.3 1.8 -0.3
v -0.3 1.8 -0.4
v -0.2 1.8 -0.4
v 0.2 1.8 -0.4
v 0.3 1.8 -0.4
v -0.2 1.8 -0.5
v 0.2 1.8 -0.5
v -0.2 1.9 -0.3
v 0.2 1.9 -0.3
v -0.2 1.9 -0.4
v 0.2 1.9 -0.4
v -0.3 2 -0.2
v 0.3 2 -0.2
v -0.3 2 -0.3
v 0.3 2 -0.3
v -0.3 2.1 -0.1
v 0.3 2.1 -0.1
v -0.3 2.1 -0.2
v 0.3 2.1 -0.2

# faces
f 3/7/1 2/7/1 1/7/1
f 4/7/1 2/7/1 3/7/1
f 7/7/1 6/7/1 5/7/1
f 8/7/1 6/7/1 7/7/1
f 11/6/1 10/6/1 9/6/1
f 12/6/1 10/6/1 11/6/1
f 13/6/1 11/6/1 9/6/1
f 14/6/1 10/6/1 12/6/1
f 15/6/1 13/6/1 9/6/1
f 15/6/1 14/6/1 13/6/1
f 16/6/1 10/6/1 14/6/1
f 16/6/1 14/6/1 15/6/1
f 19/6/1 18/6/1 17/6/1
f 20/6/1 18/6/1 19/6/1
f 21/6/1 18/6/1 20/6/1
f 22/3/1 21/3/1 20/3/1
f 23/3/1 21/3/1 22/3/1
f 24/3/1 22/3/1 20/3/1
f 25/1/1 23/1/1 22/1/1
f 25/3/1 22/3/1 24/3/1
f 26/1/1 23/1/1 25/1/1
f 27/1/1 25/1/1 24/1/1
f 28/3/1 26/3/1 25/3/1
f 28/1/1 25/1/1 27/1/1
f 29/3/1 26/3/1 28/3/1
f 33/1/1 31/1/1 30/1/1
f 33/4/1 32/4/1 31/4/1
f 34/4/1 32/4/1 33/4/1
f 35/1/1 33/1/1 30/1/1
f 36/1/1 33/1/1 35/1/1
f 37/4/1 36/4/1 35/4/1
f 38/4/1 32/4/1 34/4/1
f 39/4/1 37/4/1 35/4/1
f 39/4/1 38/4/1 37/4/1
f 40/4/1 32/4/1 38/4/1
f 40/4/1 38/4/1 39/4/1
f 45/5/1 42/5/1 41/5/1
f 47/5/1 44/5/1 43/5/1
f 48/5/1 46/5/1 45/5/1
f 48/5/1 47/5/1 46/5/1
f 48/5/1 45/5/1 41/5/1
f 49/5/1 44/5/1 47/5/1
f 49/5/1 47/5/1 48/5/1
f 54/2/1 51/2/1 50/2/1
f 55/2/1 51/2/1 54/2/1
f 56/6/1 53/6/1 52/6/1
f 60/6/1 57/6/1 56/6/1
f 60/4/1 58/4/1 57/4/1
f 61/1/1 59/1/1 58/1/1
f 61/4/1 58/4/1 60/4/1
f 62/1/1 59/1/1 61/1/1
f 63/6/1 61/6/1 60/6/1
f 64/6/1 61/6/1 63/6/1
f 65/6/1 60/6/1 56/6/1
f 65/6/1 63/6/1 60/6/1
f 66/6/1 63/6/1 65/6/1
f 67/6/1 56/6/1 52/6/1
f 67/6/1 65/6/1 56/6/1
f 68/6/1 65/6/1 67/6/1
f 69/6/1 67/6/1 52/6/1
f 70/6/1 67/6/1 69/6/1
f 73/6/1 72/6/1 71/6/1
f 74/6/1 72/6/1 73/6/1
f 78/4/1 76/4/1 75/4/1
f 79/4/1 76/4/1 78/4/1
f 81/6/1 78/6/1 77/6/1
f 82/6/1 78/6/1 81/6/1
f 83/6/1 81/6/1 80/6/1
f 84/6/1 81/6/1 83/6/1
f 87/2/1 86/2/1 85/2/1
f 88/2/1 86/2/1 87/2/1
f 91/6/1 90/6/1 89/6/1
f 92/6/1 90/6/1 91/6/1
f 93/6/1 90/6/1 92/6/1
f 94/3/1 93/3/1 92/3/1
f 95/3/1 93/3/1 94/3/1
f 96/1/1 95/1/1 94/1/1
f 97/3/1 93/3/1 95/3/1
f 97/1/1 95/1/1 96/1/1
f 98/3/1 97/3/1 96/3/1
f 99/3/1 93/3/1 97/3/1
f 99/3/1 97/3/1 98/3/1
f 102/2/1 101/2/1 100/2/1
f 103/2/1 101/2/1 102/2/1
f 106/7/1 105/7/1 104/7/1
f 107/7/1 105/7/1 106/7/1
f 108/7/2 109/7/2 110/7/2
f 110/7/2 109/7/2 111/7/2
f 112/6/2 113/6/2 114/6/2
f 114/6/2 113/6/2 115/6/2
f 115/6/2 113/6/2 116/6/2
f 115/3/2 116/3/2 117/3/2
f 117/3/2 116/3/2 118/3/2
f 117/1/2 118/1/2 119/1/2
f 118/3/2 116/3/2 120/3/2
f 119/1/2 118/1/2 120/1/2
f 119/3/2 120/3/2 121/3/2
f 120/3/2 116/3/2 122/3/2
f 121/3/2 120/3/2 122/3/2
f 123/2/2 124/2/2 125/2/2
f 125/2/2 124/2/2 126/2/2
f 127/2/2 128/2/2 129/2/2
f 129/2/2 128/2/2 130/2/2
f 131/6/2 132/6/2 133/6/2
f 133/6/2 132/6/2 134/6/2
f 135/4/2 136/4/2 138/4/2
f 138/4/2 136/4/2 139/4/2
f 137/6/2 138/6/2 141/6/2
f 141/6/2 138/6/2 142/6/2
f 140/6/2 141/6/2 143/6/2
f 143/6/2 141/6/2 144/6/2
f 145/5/2 146/5/2 149/5/2
f 147/5/2 148/5/2 150/5/2
f 145/5/2 149/5/2 151/5/2
f 149/5/2 150/5/2 151/5/2
f 150/5/2 148/5/2 152/5/2
f 151/5/2 150/5/2 152/5/2
f 153/2/2 154/2/2 155/2/2
f 155/2/2 154/2/2 158/2/2
f 158/2/2 154/2/2 159/2/2
f 156/6/2 157/6/2 160/6/2
f 160/6/2 161/6/2 163/6/2
f 161/4/2 162/4/2 163/4/2
f 163/4/2 162/4/2 164/4/2
f 164/4/2 162/4/2 165/4/2
f 163/6/2 164/6/2 166/6/2
f 166/6/2 164/6/2 167/6/2
f 160/6/2 163/6/2 168/6/2
f 163/6/2 166/6/2 168/6/2
f 168/6/2 166/6/2 169/6/2
f 156/6/2 160/6/2 170/6/2
f 160/6/2 168/6/2 170/6/2
f 170/6/2 168/6/2 171/6/2
f 156/6/2 170/6/2 172/6/2
f 172/6/2 170/6/2 173/6/2
f 174/6/2 175/6/2 176/6/2
f 176/6/2 175/6/2 177/6/2
f 177/6/2 175/6/2 178/6/2
f 177/3/2 178/3/2 179/3/2
f 179/3/2 178/3/2 180/3/2
f 181/1/2 182/1/2 185/1/2
f 182/4/2 183/4/2 186/4/2
f 185/1/2 182/1/2 186/1/2
f 183/1/2 184/1/2 187/1/2
f 186/4/2 183/4/2 187/4/2
f 187/1/2 184/1/2 188/1/2
f 188/1/2 184/1/2 189/1/2
f 181/1/2 185/1/2 190/1/2
f 190/1/2 185/1/2 191/1/2
f 190/4/2 191/4/2 192/4/2
f 188/4/2 189/4/2 193/4/2
f 190/4/2 192/4/2 194/4/2
f 192/4/2 193/4/2 194/4/2
f 193/4/2 189/4/2 195/4/2
f 194/4/2 193/4/2 195/4/2
f 196/6/2 197/6/2 198/6/2
f 198/6/2 197/6/2 199/6/2
f 196/6/2 198/6/2 200/6/2
f 199/6/2 197/6/2 201/6/2
f 196/6/2 200/6/2 202/6/2
f 200/6/2 201/6/2 202/6/2
f 201/6/2 197/6/2 203/6/2
f 202/6/2 201/6/2 203/6/2
f 204/7/2 205/7/2 206/7/2
f 206/7/2 205/7/2 207/7/2
f 208/7/2 209/7/2 210/7/2
f 210/7/2 209/7/2 211/7/2
f 214/6/3 213/6/3 212/6/3
f 215/6/3 213/6/3 214/6/3
f 216/6/3 214/6/3 212/6/3
f 216/2/3 215/2/3 214/2/3
f 217/6/3 213/6/3 215/6/3
f 217/2/3 215/2/3 216/2/3
f 218/6/3 216/6/3 212/6/3
f 218/6/3 217/6/3 216/6/3
f 219/6/3 213/6/3 217/6/3
f 219/6/3 217/6/3 218/6/3
f 225/1/3 223/1/3 222/1/3
f 226/1/3 223/1/3 225/1/3
f 227/4/3 224/4/3 223/4/3
f 227/1/3 223/1/3 226/1/3
f 228/4/3 224/4/3 227/4/3
f 229/4/3 224/4/3 228/4/3
f 230/4/3 224/4/3 229/4/3
f 231/6/3 221/6/3 220/6/3
f 232/6/3 221/6/3 231/6/3
f 233/4/3 226/4/3 225/4/3
f 233/1/3 227/1/3 226/1/3
f 233/1/3 228/1/3 227/1/3
f 234/4/3 229/4/3 228/4/3
f 234/1/3 228/1/3 233/1/3
f 235/4/3 233/4/3 225/4/3
f 235/4/3 234/4/3 233/4/3
f 236/4/3 234/4/3 235/4/3
f 239/1/3 236/1/3 235/1/3
f 239/4/3 234/4/3 236/4/3
f 240/4/3 234/4/3 239/4/3
f 241/1/3 240/1/3 239/1/3
f 241/4/3 234/4/3 240/4/3
f 242/4/3 229/4/3 234/4/3
f 242/4/3 234/4/3 241/4/3
f 243/4/3 229/4/3 242/4/3
f 245/6/3 238/6/3 237/6/3
f 246/6/3 238/6/3 245/6/3
f 247/1/3 241/1/3 239/1/3
f 247/1/3 239/1/3 235/1/3
f 247/1/3 242/1/3 241/1/3
f 248/4/3 244/4/3 243/4/3
f 248/1/3 242/1/3 247/1/3
f 248/4/3 243/4/3 242/4/3
f 249/4/3 244/4/3 248/4/3
f 252/7/3 251/7/3 250/7/3
f 253/7/3 251/7/3 252/7/3
f 256/6/3 255/6/3 254/6/3
f 257/6/3 255/6/3 256/6/3
f 258/6/3 255/6/3 257/6/3
f 261/5/3 260/5/3 259/5/3
f 262/5/3 260/5/3 261/5/3
f 266/6/3 264/6/3 263/6/3
f 266/6/3 265/6/3 264/6/3
f 267/6/3 265/6/3 266/6/3
f 270/7/3 269/7/3 268/7/3
f 271/7/3 269/7/3 270/7/3
f 274/7/3 273/7/3 272/7/3
f 275/7/3 273/7/3 274/7/3
f 278/4/3 277/4/3 276/4/3
f 279/4/3 277/4/3 278/4/3
f 280/1/3 279/1/3 278/1/3
f 281/1/3 279/1/3 280/1/3
f 282/4/3 281/4/3 280/4/3
f 283/4/3 281/4/3 282/4/3
f 287/3/3 285/3/3 284/3/3
f 288/3/3 285/3/3 287/3/3
f 289/1/3 286/1/3 285/1/3
f 289/3/3 285/3/3 288/3/3
f 290/1/3 286/1/3 289/1/3
f 291/3/3 287/3/3 284/3/3
f 292/1/3 288/1/3 287/1/3
f 292/3/3 287/3/3 291/3/3
f 293/3/3 289/3/3 288/3/3
f 293/1/3 288/1/3 292/1/3
f 294/3/3 289/3/3 293/3/3
f 301/6/3 296/6/3 295/6/3
f 302/6/3 296/6/3 301/6/3
f 303/3/3 298/3/3 297/3/3
f 303/1/3 299/1/3 298/1/3
f 304/3/3 300/3/3 299/3/3
f 304/1/3 299/1/3 303/1/3
f 305/3/3 300/3/3 304/3/3
f 307/3/3 303/3/3 297/3/3
f 307/3/3 306/3/3 305/3/3
f 307/3/3 305/3/3 304/3/3
f 307/3/3 304/3/3 303/3/3
f 308/3/3 306/3/3 307/3/3
f 311/4/3 310/4/3 309/4/3
f 312/4/3 310/4/3 311/4/3
f 315/7/3 314/7/3 313/7/3
f 316/7/3 314/7/3 315/7/3
f 317/6/4 318/6/4 319/6/4
f 319/6/4 318/6/4 320/6/4
f 321/6/4 322/6/4 323/6/4
f 323/6/4 322/6/4 324/6/4
f 324/6/4 322/6/4 326/6/4
f 325/6/4 326/6/4 327/6/4
f 326/6/4 322/6/4 328/6/4
f 327/6/4 326/6/4 328/6/4
f 329/6/4 330/6/4 331/6/4
f 331/6/4 330/6/4 332/6/4
f 332/6/4 333/6/4 335/6/4
f 335/6/4 333/6/4 336/6/4
f 334/6/4 335/6/4 337/6/4
f 337/6/4 335/6/4 338/6/4
f 339/6/4 340/6/4 341/6/4
f 341/6/4 340/6/4 342/6/4
f 342/6/4 343/6/4 345/6/4
f 345/6/4 343/6/4 346/6/4
f 344/6/4 345/6/4 347/6/4
f 347/6/4 345/6/4 348/6/4
f 349/7/4 350/7/4 351/7/4
f 351/7/4 350/7/4 352/7/4
f 351/4/4 352/4/4 353/4/4
f 353/4/4 352/4/4 354/4/4
f 356/3/4 357/3/4 360/3/4
f 357/1/4 358/1/4 360/1/4
f 358/3/4 359/3/4 361/3/4
f 360/1/4 358/1/4 361/1/4
f 361/3/4 359/3/4 362/3/4
f 355/6/4 356/6/4 363/6/4
f 356/3/4 360/3/4 364/3/4
f 363/6/4 356/6/4 364/6/4
f 360/3/4 361/3/4 364/3/4
f 364/3/4 361/3/4 365/3/4
f 368/4/4 369/4/4 370/4/4
f 366/6/4 367/6/4 374/6/4
f 374/6/4 367/6/4 375/6/4
f 370/4/4 369/4/4 376/4/4
f 376/4/4 369/4/4 377/4/4
f 372/3/4 373/3/4 378/3/4
f 371/6/4 372/6/4 380/6/4
f 378/3/4 379/3/4 381/3/4
f 380/6/4 372/6/4 381/6/4
f 372/3/4 378/3/4 381/3/4
f 381/3/4 379/3/4 382/3/4
f 383/4/4 384/4/4 385/4/4
f 385/4/4 384/4/4 386/4/4
f 385/1/4 386/1/4 387/1/4
f 387/1/4 386/1/4 388/1/4
f 387/4/4 388/4/4 389/4/4
f 389/4/4 388/4/4 390/4/4
f 389/7/4 390/7/4 391/7/4
f 391/7/4 390/7/4 392/7/4
f 393/6/4 394/6/4 395/6/4
f 395/6/4 394/6/4 396/6/4
f 399/1/4 400/1/4 401/1/4
f 401/1/4 400/1/4 402/1/4
f 397/5/4 398/5/4 403/5/4
f 403/5/4 398/5/4 404/5/4
f 401/4/4 402/4/4 405/4/4
f 405/4/4 402/4/4 406/4/4
f 407/6/4 408/6/4 410/6/4
f 408/6/4 409/6/4 410/6/4
f 410/6/4 409/6/4 411/6/4
f 412/4/4 413/4/4 414/4/4
f 414/4/4 413/4/4 415/4/4
f 412/4/4 414/4/4 416/4/4
f 415/4/4 413/4/4 417/4/4
f 412/4/4 416/4/4 418/4/4
f 416/4/4 417/4/4 418/4/4
f 417/4/4 413/4/4 419/4/4
f 418/4/4 417/4/4 419/4/4
f 412/4/4 418/4/4 420/4/4
f 419/4/4 413/4/4 421/4/4
f 412/4/4 420/4/4 422/4/4
f 420/4/4 421/4/4 422/4/4
f 421/4/4 413/4/4 423/4/4
f 422/4/4 421/4/4 423/4/4
f 412/4/4 422/4/4 424/4/4
f 424/4/4 422/4/4 425/4/4
f 423/4/4 413/4/4 427/4/4
f 425/1/4 426/1/4 428/1/4
f 424/1/4 425/1/4 428/1/4
f 426/4/4 427/4/4 429/4/4
f 428/1/4 426/1/4 429/1/4
f 427/4/4 413/4/4 430/4/4
f 429/4/4 427/4/4 430/4/4
f 431/2/4 432/2/4 433/2/4
f 433/2/4 432/2/4 434/2/4
f 435/2/4 436/2/4 437/2/4
f 437/2/4 436/2/4 438/2/4
f 439/2/4 440/2/4 441/2/4
f 441/2/4 440/2/4 442/2/4
f 447/6/5 444/6/5 443/6/5
f 448/6/5 444/6/5 447/6/5
f 449/6/5 446/6/5 445/6/5
f 450/6/5 446/6/5 449/6/5
f 453/5/5 452/5/5 451/5/5
f 454/5/5 452/5/5 453/5/5
f 455/5/5 452/5/5 454/5/5
f 456/5/5 452/5/5 455/5/5
f 458/5/5 455/5/5 454/5/5
f 459/5/5 455/5/5 458/5/5
f 461/5/5 458/5/5 457/5/5
f 461/5/5 460/5/5 459/5/5
f 461/5/5 459/5/5 458/5/5
f 462/5/5 460/5/5 461/5/5
f 467/1/5 464/1/5 463/1/5
f 468/4/5 465/4/5 464/4/5
f 468/1/5 464/1/5 467/1/5
f 469/1/5 466/1/5 465/1/5
f 469/4/5 465/4/5 468/4/5
f 470/1/5 466/1/5 469/1/5
f 471/4/5 468/4/5 467/4/5
f 471/4/5 469/4/5 468/4/5
f 471/4/5 470/4/5 469/4/5
f 472/1/5 466/1/5 470/1/5
f 472/4/5 470/4/5 471/4/5
f 473/1/5 466/1/5 472/1/5
f 474/1/5 466/1/5 473/1/5
f 474/4/5 473/4/5 472/4/5
f 475/1/5 466/1/5 474/1/5
f 476/4/5 471/4/5 467/4/5
f 477/4/5 474/4/5 472/4/5
f 477/4/5 475/4/5 474/4/5
f 478/4/5 475/4/5 477/4/5
f 478/4/5 477/4/5 476/4/5
f 479/4/5 475/4/5 478/4/5
f 480/4/5 476/4/5 467/4/5
f 480/4/5 478/4/5 476/4/5
f 481/1/5 479/1/5 478/1/5
f 481/4/5 478/4/5 480/4/5
f 482/1/5 479/1/5 481/1/5
f 487/6/5 486/6/5 485/6/5
f 488/6/5 484/6/5 483/6/5
f 489/6/5 484/6/5 488/6/5
f 490/6/5 486/6/5 487/6/5
f 491/6/5 486/6/5 490/6/5
f 498/2/5 493/2/5 492/2/5
f 499/2/5 493/2/5 498/2/5
f 500/2/5 495/2/5 494/2/5
f 501/2/5 495/2/5 500/2/5
f 502/2/5 497/2/5 496/2/5
f 503/2/5 497/2/5 502/2/5
f 509/7/5 505/7/5 504/7/5
f 510/7/5 505/7/5 509/7/5
f 515/7/5 507/7/5 506/7/5
f 516/7/5 507/7/5 515/7/5
f 518/4/5 511/4/5 510/4/5
f 518/1/5 512/1/5 511/1/5
f 519/4/5 513/4/5 512/4/5
f 519/1/5 512/1/5 518/1/5
f 520/4/5 515/4/5 514/4/5
f 521/4/5 515/4/5 520/4/5
f 522/7/5 509/7/5 508/7/5
f 522/7/5 510/7/5 509/7/5
f 523/4/5 518/4/5 510/4/5
f 523/7/5 510/7/5 522/7/5
f 523/4/5 519/4/5 518/4/5
f 524/4/5 513/4/5 519/4/5
f 524/4/5 519/4/5 523/4/5
f 525/4/5 520/4/5 514/4/5
f 526/1/5 521/1/5 520/1/5
f 526/4/5 520/4/5 525/4/5
f 527/4/5 515/4/5 521/4/5
f 527/1/5 521/1/5 526/1/5
f 528/7/5 517/7/5 516/7/5
f 528/4/5 515/4/5 527/4/5
f 528/7/5 516/7/5 515/7/5
f 529/7/5 517/7/5 528/7/5
f 532/6/5 531/6/5 530/6/5
f 533/6/5 531/6/5 532/6/5
f 534/6/6 535/6/6 538/6/6
f 538/6/6 535/6/6 539/6/6
f 536/6/6 537/6/6 540/6/6
f 540/6/6 537/6/6 541/6/6
f 542/1/6 543/1/6 546/1/6
f 546/1/6 543/1/6 547/1/6
f 546/3/6 547/3/6 548/3/6
f 548/3/6 547/3/6 549/3/6
f 544/3/6 545/3/6 550/3/6
f 550/3/6 545/3/6 551/3/6
f 552/5/6 553/5/6 554/5/6
f 554/5/6 553/5/6 555/5/6
f 552/5/6 554/5/6 556/5/6
f 555/5/6 553/5/6 557/5/6
f 552/5/6 556/5/6 558/5/6
f 556/5/6 557/5/6 558/5/6
f 557/5/6 553/5/6 559/5/6
f 558/5/6 557/5/6 559/5/6
f 560/7/6 561/7/6 565/7/6
f 565/7/6 561/7/6 566/7/6
f 562/7/6 563/7/6 571/7/6
f 571/7/6 563/7/6 572/7/6
f 566/4/6 567/4/6 574/4/6
f 567/1/6 568/1/6 574/1/6
f 568/4/6 569/4/6 575/4/6
f 574/1/6 568/1/6 575/1/6
f 570/4/6 571/4/6 576/4/6
f 576/4/6 571/4/6 577/4/6
f 564/7/6 565/7/6 578/7/6
f 565/7/6 566/7/6 578/7/6
f 566/4/6 574/4/6 579/4/6
f 578/7/6 566/7/6 579/7/6
f 574/4/6 575/4/6 579/4/6
f 575/4/6 569/4/6 580/4/6
f 579/4/6 575/4/6 580/4/6
f 570/4/6 576/4/6 581/4/6
f 576/1/6 577/1/6 582/1/6
f 581/4/6 576/4/6 582/4/6
f 577/4/6 571/4/6 583/4/6
f 582/1/6 577/1/6 583/1/6
f 572/7/6 573/7/6 584/7/6
f 583/4/6 571/4/6 584/4/6
f 571/7/6 572/7/6 584/7/6
f 584/7/6 573/7/6 585/7/6
f 586/6/6 587/6/6 590/6/6
f 590/6/6 587/6/6 591/6/6
f 588/6/6 589/6/6 592/6/6
f 592/6/6 589/6/6 593/6/6
f 594/2/6 595/2/6 600/2/6
f 600/2/6 595/2/6 601/2/6
f 596/2/6 597/2/6 602/2/6
f 602/2/6 597/2/6 603/2/6
f 598/2/6 599/2/6 604/2/6
f 604/2/6 599/2/6 605/2/6
f 606/4/6 607/4/6 610/4/6
f 608/4/6 609/4/6 611/4/6
f 606/4/6 610/4/6 612/4/6
f 606/4/6 612/4/6 613/4/6
f 611/4/6 609/4/6 615/4/6
f 613/4/6 614/4/6 616/4/6
f 614/4/6 615/4/6 616/4/6
f 606/4/6 613/4/6 616/4/6
f 615/4/6 609/4/6 617/4/6
f 616/4/6 615/4/6 617/4/6
f 618/1/6 619/1/6 622/1/6
f 620/4/6 621/4/6 624/4/6
f 622/1/6 623/1/6 625/1/6
f 618/1/6 622/1/6 625/1/6
f 623/4/6 624/4/6 626/4/6
f 625/1/6 623/1/6 626/1/6
f 624/4/6 621/4/6 627/4/6
f 626/4/6 624/4/6 627/4/6
f 628/6/6 629/6/6 632/6/6
f 632/6/6 629/6/6 633/6/6
f 630/6/6 631/6/6 634/6/6
f 634/6/6 631/6/6 635/6/6
f 633/4/6 634/4/6 636/4/6
f 636/4/6 634/4/6 637/4/6
f 638/6/6 639/6/6 642/6/6
f 642/6/6 639/6/6 643/6/6
f 640/6/6 641/6/6 644/6/6
f 644/6/6 641/6/6 645/6/6
f 643/6/6 644/6/6 646/6/6
f 646/6/6 644/6/6 647/6/6
f 648/6/6 649/6/6 650/6/6
f 650/6/6 649/6/6 651/6/6
f 652/6/6 653/6/6 654/6/6
f 654/6/6 653/6/6 655/6/6
f 656/6/6 657/6/6 658/6/6
f 658/6/6 657/6/6 659/6/6
