# MagicaVoxel @ Ephtracy

# group
o 

# material
mtllib Asteroid.mtl
usemtl palette

# normals
vn -1 0 0
vn 1 0 0
vn 0 0 1
vn 0 0 -1
vn 0 -1 0
vn 0 1 0

# texcoords
vt 0.533203 0.5
vt 0.537109 0.5
vt 0.701172 0.5

# verts
v -2.23517e-08 0 0.1
v -2.23517e-08 0 -2.98023e-08
v -2.23517e-08 0 -0.1
v -2.23517e-08 0.1 0.3
v -2.23517e-08 0.1 0.2
v -2.23517e-08 0.1 0.1
v -2.23517e-08 0.1 -0.1
v -2.23517e-08 0.1 -0.2
v -2.23517e-08 0.2 0.3
v -2.23517e-08 0.2 0.2
v -2.23517e-08 0.2 0.1
v -2.23517e-08 0.2 -2.98023e-08
v -2.23517e-08 0.2 -0.1
v -2.23517e-08 0.2 -0.2
v -2.23517e-08 0.3 0.3
v -2.23517e-08 0.3 0.2
v -2.23517e-08 0.3 -2.98023e-08
v -2.23517e-08 0.3 -0.1
v -2.23517e-08 0.3 -0.2
v -2.23517e-08 0.4 0.2
v -2.23517e-08 0.4 -2.98023e-08
v -2.23517e-08 0.4 -0.1
v 0.1 0 0.2
v 0.1 0 0.1
v 0.1 0.1 0.2
v 0.1 0.1 0.1
v 0.1 0.3 -0.1
v 0.1 0.3 -0.2
v 0.1 0.4 -0.1
v 0.1 0.4 -0.2
v 0.2 0 0.3
v 0.2 0 0.2
v 0.2 0 -0.1
v 0.2 0 -0.2
v 0.2 0.1 0.3
v 0.2 0.1 0.2
v 0.2 0.1 -0.1
v 0.2 0.1 -0.2
v 0.2 0.3 0.3
v 0.2 0.3 0.2
v 0.2 0.4 0.3
v 0.2 0.4 0.2
v 0.3 0 0.1
v 0.3 0 -2.98023e-08
v 0.3 0.1 0.1
v 0.3 0.1 -2.98023e-08
v 0.2 0 0.1
v 0.2 0 -2.98023e-08
v 0.2 0.1 0.1
v 0.2 0.1 -2.98023e-08
v 0.3 0 -0.1
v 0.3 0 -0.2
v 0.3 0.1 -0.1
v 0.3 0.1 -0.2
v 0.4 0 0.3
v 0.4 0 0.2
v 0.4 0 0.1
v 0.4 0.1 0.3
v 0.4 0.1 0.2
v 0.4 0.1 0.1
v 0.4 0.3 0.3
v 0.4 0.3 0.2
v 0.4 0.3 0.1
v 0.4 0.3 -2.98023e-08
v 0.4 0.3 -0.1
v 0.4 0.3 -0.2
v 0.4 0.4 0.3
v 0.4 0.4 0.2
v 0.4 0.4 0.1
v 0.4 0.4 -2.98023e-08
v 0.4 0.4 -0.1
v 0.4 0.4 -0.2
v 0.5 0 0.1
v 0.5 0 -2.98023e-08
v 0.5 0 -0.1
v 0.5 0.1 0.3
v 0.5 0.1 0.1
v 0.5 0.1 -2.98023e-08
v 0.5 0.1 -0.1
v 0.5 0.1 -0.2
v 0.5 0.2 0.3
v 0.5 0.2 0.2
v 0.5 0.2 -0.1
v 0.5 0.2 -0.2
v 0.5 0.3 0.3
v 0.5 0.3 0.2
v 0.5 0.3 0.1
v 0.5 0.3 -2.98023e-08
v 0.5 0.3 -0.1
v 0.5 0.3 -0.2
v 0.5 0.4 0.2
v 0.5 0.4 0.1
v 0.5 0.4 -2.98023e-08
v 0.5 0.4 -0.1
v -2.23517e-08 0.1 0.3
v -2.23517e-08 0.2 0.3
v -2.23517e-08 0.3 0.3
v 0.1 0.1 0.3
v 0.1 0.2 0.3
v 0.1 0.3 0.3
v 0.2 0 0.3
v 0.2 0.1 0.3
v 0.2 0.2 0.3
v 0.2 0.3 0.3
v 0.2 0.4 0.3
v 0.3 0 0.3
v 0.3 0.1 0.3
v 0.3 0.2 0.3
v 0.4 0 0.3
v 0.4 0.1 0.3
v 0.4 0.2 0.3
v 0.4 0.3 0.3
v 0.4 0.4 0.3
v 0.5 0.1 0.3
v 0.5 0.2 0.3
v 0.5 0.3 0.3
v -2.23517e-08 0.3 0.2
v -2.23517e-08 0.4 0.2
v 0.1 0 0.2
v 0.1 0.1 0.2
v 0.1 0.3 0.2
v 0.2 0 0.2
v 0.2 0.1 0.2
v 0.2 0.3 0.2
v 0.2 0.4 0.2
v 0.4 0.3 0.2
v 0.4 0.4 0.2
v 0.5 0.3 0.2
v 0.5 0.4 0.2
v -2.23517e-08 0 0.1
v -2.23517e-08 0.1 0.1
v 0.1 0 0.1
v 0.1 0.1 0.1
v 0.4 0 0.1
v 0.4 0.1 0.1
v 0.5 0 0.1
v 0.5 0.1 0.1
v 0.2 0 -2.98023e-08
v 0.2 0.1 -2.98023e-08
v 0.3 0 -2.98023e-08
v 0.3 0.1 -2.98023e-08
v 0.4 0.3 -2.98023e-08
v 0.4 0.4 -2.98023e-08
v 0.5 0.3 -2.98023e-08
v 0.5 0.4 -2.98023e-08
v 0.2 0 0.1
v 0.2 0.1 0.1
v 0.3 0 0.1
v 0.3 0.1 0.1
v 0.4 0.3 0.1
v 0.4 0.4 0.1
v 0.5 0.3 0.1
v 0.5 0.4 0.1
v -2.23517e-08 0 -0.1
v -2.23517e-08 0.1 -0.1
v -2.23517e-08 0.3 -0.1
v -2.23517e-08 0.4 -0.1
v 0.1 0.1 -0.1
v 0.1 0.3 -0.1
v 0.1 0.4 -0.1
v 0.2 0 -0.1
v 0.2 0.1 -0.1
v 0.3 0 -0.1
v 0.3 0.1 -0.1
v 0.4 0 -0.1
v 0.4 0.1 -0.1
v 0.4 0.3 -0.1
v 0.4 0.4 -0.1
v 0.5 0 -0.1
v 0.5 0.1 -0.1
v 0.5 0.3 -0.1
v 0.5 0.4 -0.1
v -2.23517e-08 0.1 -0.2
v -2.23517e-08 0.2 -0.2
v -2.23517e-08 0.3 -0.2
v 0.1 0.1 -0.2
v 0.1 0.2 -0.2
v 0.1 0.3 -0.2
v 0.1 0.4 -0.2
v 0.2 0 -0.2
v 0.2 0.1 -0.2
v 0.2 0.2 -0.2
v 0.2 0.3 -0.2
v 0.3 0 -0.2
v 0.3 0.1 -0.2
v 0.3 0.2 -0.2
v 0.3 0.3 -0.2
v 0.3 0.4 -0.2
v 0.4 0.3 -0.2
v 0.4 0.4 -0.2
v 0.5 0.1 -0.2
v 0.5 0.2 -0.2
v 0.5 0.3 -0.2
v 0.2 0 0.3
v 0.3 0 0.3
v 0.4 0 0.3
v 0.1 0 0.2
v 0.2 0 0.2
v 0.3 0 0.2
v 0.4 0 0.2
v -2.23517e-08 0 0.1
v 0.1 0 0.1
v 0.2 0 0.1
v 0.3 0 0.1
v 0.4 0 0.1
v 0.5 0 0.1
v -2.23517e-08 0 -2.98023e-08
v 0.1 0 -2.98023e-08
v 0.2 0 -2.98023e-08
v 0.3 0 -2.98023e-08
v 0.4 0 -2.98023e-08
v 0.5 0 -2.98023e-08
v -2.23517e-08 0 -0.1
v 0.2 0 -0.1
v 0.3 0 -0.1
v 0.4 0 -0.1
v 0.5 0 -0.1
v 0.2 0 -0.2
v 0.3 0 -0.2
v -2.23517e-08 0.1 0.3
v 0.1 0.1 0.3
v 0.2 0.1 0.3
v 0.4 0.1 0.3
v 0.5 0.1 0.3
v -2.23517e-08 0.1 0.2
v 0.1 0.1 0.2
v 0.2 0.1 0.2
v 0.4 0.1 0.2
v -2.23517e-08 0.1 0.1
v 0.1 0.1 0.1
v 0.2 0.1 0.1
v 0.3 0.1 0.1
v 0.4 0.1 0.1
v 0.5 0.1 0.1
v 0.2 0.1 -2.98023e-08
v 0.3 0.1 -2.98023e-08
v -2.23517e-08 0.1 -0.1
v 0.1 0.1 -0.1
v 0.2 0.1 -0.1
v 0.3 0.1 -0.1
v 0.4 0.1 -0.1
v 0.5 0.1 -0.1
v -2.23517e-08 0.1 -0.2
v 0.1 0.1 -0.2
v 0.2 0.1 -0.2
v 0.3 0.1 -0.2
v 0.5 0.1 -0.2
v -2.23517e-08 0.3 0.3
v 0.1 0.3 0.3
v 0.2 0.3 0.3
v 0.4 0.3 0.3
v 0.5 0.3 0.3
v -2.23517e-08 0.3 0.2
v 0.1 0.3 0.2
v 0.2 0.3 0.2
v 0.4 0.3 0.2
v 0.5 0.3 0.2
v 0.4 0.3 0.1
v 0.5 0.3 0.1
v 0.4 0.3 -2.98023e-08
v 0.5 0.3 -2.98023e-08
v -2.23517e-08 0.3 -0.1
v 0.1 0.3 -0.1
v 0.4 0.3 -0.1
v 0.5 0.3 -0.1
v -2.23517e-08 0.3 -0.2
v 0.1 0.3 -0.2
v 0.4 0.3 -0.2
v 0.5 0.3 -0.2
v 0.2 0.4 0.3
v 0.4 0.4 0.3
v -2.23517e-08 0.4 0.2
v 0.2 0.4 0.2
v 0.3 0.4 0.2
v 0.4 0.4 0.2
v 0.5 0.4 0.2
v 0.1 0.4 0.1
v 0.2 0.4 0.1
v 0.3 0.4 0.1
v 0.4 0.4 0.1
v 0.5 0.4 0.1
v -2.23517e-08 0.4 -2.98023e-08
v 0.1 0.4 -2.98023e-08
v 0.2 0.4 -2.98023e-08
v 0.3 0.4 -2.98023e-08
v 0.4 0.4 -2.98023e-08
v 0.5 0.4 -2.98023e-08
v -2.23517e-08 0.4 -0.1
v 0.1 0.4 -0.1
v 0.2 0.4 -0.1
v 0.3 0.4 -0.1
v 0.4 0.4 -0.1
v 0.5 0.4 -0.1
v 0.1 0.4 -0.2
v 0.3 0.4 -0.2
v 0.4 0.4 -0.2

# faces
f 6/3/1 2/3/1 1/3/1
f 7/2/1 3/2/1 2/2/1
f 9/2/1 5/2/1 4/2/1
f 10/1/1 6/1/1 5/1/1
f 10/2/1 5/2/1 9/2/1
f 11/3/1 2/3/1 6/3/1
f 11/1/1 6/1/1 10/1/1
f 12/2/1 7/2/1 2/2/1
f 12/3/1 2/3/1 11/3/1
f 13/1/1 8/1/1 7/1/1
f 13/2/1 7/2/1 12/2/1
f 14/1/1 8/1/1 13/1/1
f 15/1/1 10/1/1 9/1/1
f 16/2/1 12/2/1 11/2/1
f 16/1/1 10/1/1 15/1/1
f 16/2/1 11/2/1 10/2/1
f 16/2/1 13/2/1 12/2/1
f 17/2/1 13/2/1 16/2/1
f 18/3/1 14/3/1 13/3/1
f 18/2/1 13/2/1 17/2/1
f 19/3/1 14/3/1 18/3/1
f 20/2/1 17/2/1 16/2/1
f 21/1/1 18/1/1 17/1/1
f 21/2/1 17/2/1 20/2/1
f 22/1/1 18/1/1 21/1/1
f 25/2/1 24/2/1 23/2/1
f 26/2/1 24/2/1 25/2/1
f 29/2/1 28/2/1 27/2/1
f 30/2/1 28/2/1 29/2/1
f 35/2/1 32/2/1 31/2/1
f 36/2/1 32/2/1 35/2/1
f 37/2/1 34/2/1 33/2/1
f 38/2/1 34/2/1 37/2/1
f 41/2/1 40/2/1 39/2/1
f 42/2/1 40/2/1 41/2/1
f 45/2/1 44/2/1 43/2/1
f 46/2/1 44/2/1 45/2/1
f 47/2/2 48/2/2 49/2/2
f 49/2/2 48/2/2 50/2/2
f 51/2/2 52/2/2 53/2/2
f 53/2/2 52/2/2 54/2/2
f 55/3/2 56/3/2 58/3/2
f 56/2/2 57/2/2 59/2/2
f 58/3/2 56/3/2 59/3/2
f 59/2/2 57/2/2 60/2/2
f 61/2/2 62/2/2 67/2/2
f 67/2/2 62/2/2 68/2/2
f 63/2/2 64/2/2 69/2/2
f 69/2/2 64/2/2 70/2/2
f 65/3/2 66/3/2 71/3/2
f 71/3/2 66/3/2 72/3/2
f 73/2/2 74/2/2 77/2/2
f 74/3/2 75/3/2 78/3/2
f 77/2/2 74/2/2 78/2/2
f 78/3/2 75/3/2 79/3/2
f 76/2/2 77/2/2 81/2/2
f 77/2/2 78/2/2 81/2/2
f 78/2/2 79/2/2 81/2/2
f 81/2/2 79/2/2 82/2/2
f 79/1/2 80/1/2 83/1/2
f 82/2/2 79/2/2 83/2/2
f 83/1/2 80/1/2 84/1/2
f 81/1/2 82/1/2 85/1/2
f 82/2/2 83/2/2 86/2/2
f 85/1/2 82/1/2 86/1/2
f 83/2/2 84/2/2 86/2/2
f 86/2/2 84/2/2 87/2/2
f 87/2/2 84/2/2 88/2/2
f 88/2/2 84/2/2 89/2/2
f 89/2/2 84/2/2 90/2/2
f 86/3/2 87/3/2 91/3/2
f 91/3/2 87/3/2 92/3/2
f 88/2/2 89/2/2 93/2/2
f 93/2/2 89/2/2 94/2/2
f 98/2/3 96/2/3 95/2/3
f 99/1/3 97/1/3 96/1/3
f 99/2/3 96/2/3 98/2/3
f 100/1/3 97/1/3 99/1/3
f 102/3/3 99/3/3 98/3/3
f 103/2/3 100/2/3 99/2/3
f 103/3/3 99/3/3 102/3/3
f 104/2/3 100/2/3 103/2/3
f 106/2/3 104/2/3 103/2/3
f 106/2/3 105/2/3 104/2/3
f 106/2/3 103/2/3 102/2/3
f 106/2/3 102/2/3 101/2/3
f 107/2/3 105/2/3 106/2/3
f 108/2/3 105/2/3 107/2/3
f 109/3/3 107/3/3 106/3/3
f 110/1/3 108/1/3 107/1/3
f 110/3/3 107/3/3 109/3/3
f 111/2/3 105/2/3 108/2/3
f 111/1/3 108/1/3 110/1/3
f 112/2/3 105/2/3 111/2/3
f 113/2/3 105/2/3 112/2/3
f 114/2/3 111/2/3 110/2/3
f 115/1/3 112/1/3 111/1/3
f 115/2/3 111/2/3 114/2/3
f 116/1/3 112/1/3 115/1/3
f 121/2/3 118/2/3 117/2/3
f 122/2/3 120/2/3 119/2/3
f 123/2/3 120/2/3 122/2/3
f 124/2/3 118/2/3 121/2/3
f 125/2/3 118/2/3 124/2/3
f 128/3/3 127/3/3 126/3/3
f 129/3/3 127/3/3 128/3/3
f 132/3/3 131/3/3 130/3/3
f 133/3/3 131/3/3 132/3/3
f 136/2/3 135/2/3 134/2/3
f 137/2/3 135/2/3 136/2/3
f 140/3/3 139/3/3 138/3/3
f 141/3/3 139/3/3 140/3/3
f 144/2/3 143/2/3 142/2/3
f 145/2/3 143/2/3 144/2/3
f 146/2/4 147/2/4 148/2/4
f 148/2/4 147/2/4 149/2/4
f 150/3/4 151/3/4 152/3/4
f 152/3/4 151/3/4 153/3/4
f 154/2/4 155/2/4 158/2/4
f 156/1/4 157/1/4 159/1/4
f 159/1/4 157/1/4 160/1/4
f 154/2/4 158/2/4 161/2/4
f 161/2/4 158/2/4 162/2/4
f 163/2/4 164/2/4 165/2/4
f 165/2/4 164/2/4 166/2/4
f 165/3/4 166/3/4 169/3/4
f 169/3/4 166/3/4 170/3/4
f 167/2/4 168/2/4 171/2/4
f 171/2/4 168/2/4 172/2/4
f 173/1/4 174/1/4 176/1/4
f 174/3/4 175/3/4 177/3/4
f 176/1/4 174/1/4 177/1/4
f 177/3/4 175/3/4 178/3/4
f 176/2/4 177/2/4 181/2/4
f 178/2/4 179/2/4 181/2/4
f 177/2/4 178/2/4 181/2/4
f 181/2/4 179/2/4 182/2/4
f 182/2/4 179/2/4 183/2/4
f 180/2/4 181/2/4 184/2/4
f 181/2/4 182/2/4 184/2/4
f 184/2/4 182/2/4 185/2/4
f 182/1/4 183/1/4 186/1/4
f 185/2/4 182/2/4 186/2/4
f 183/2/4 179/2/4 187/2/4
f 186/1/4 183/1/4 187/1/4
f 187/2/4 179/2/4 188/2/4
f 186/2/4 187/2/4 189/2/4
f 187/3/4 188/3/4 189/3/4
f 189/3/4 188/3/4 190/3/4
f 185/1/4 186/1/4 191/1/4
f 186/2/4 189/2/4 192/2/4
f 191/1/4 186/1/4 192/1/4
f 192/2/4 189/2/4 193/2/4
f 198/2/5 195/2/5 194/2/5
f 199/3/5 196/3/5 195/3/5
f 199/2/5 195/2/5 198/2/5
f 200/3/5 196/3/5 199/3/5
f 202/2/5 198/2/5 197/2/5
f 202/2/5 199/2/5 198/2/5
f 202/2/5 200/2/5 199/2/5
f 203/2/5 200/2/5 202/2/5
f 204/2/5 200/2/5 203/2/5
f 205/2/5 200/2/5 204/2/5
f 207/3/5 202/3/5 201/3/5
f 208/2/5 203/2/5 202/2/5
f 208/3/5 202/3/5 207/3/5
f 209/2/5 203/2/5 208/2/5
f 210/2/5 205/2/5 204/2/5
f 210/2/5 206/2/5 205/2/5
f 211/2/5 206/2/5 210/2/5
f 212/2/5 206/2/5 211/2/5
f 213/2/5 209/2/5 208/2/5
f 213/2/5 208/2/5 207/2/5
f 214/3/5 210/3/5 209/3/5
f 214/2/5 209/2/5 213/2/5
f 215/2/5 211/2/5 210/2/5
f 215/3/5 210/3/5 214/3/5
f 216/3/5 212/3/5 211/3/5
f 216/2/5 211/2/5 215/2/5
f 217/3/5 212/3/5 216/3/5
f 218/2/5 215/2/5 214/2/5
f 219/2/5 215/2/5 218/2/5
f 225/2/5 221/2/5 220/2/5
f 226/3/5 222/3/5 221/3/5
f 226/2/5 221/2/5 225/2/5
f 227/3/5 222/3/5 226/3/5
f 228/2/5 224/2/5 223/2/5
f 229/1/5 226/1/5 225/1/5
f 230/1/5 226/1/5 229/1/5
f 233/2/5 224/2/5 228/2/5
f 234/2/5 224/2/5 233/2/5
f 235/2/5 232/2/5 231/2/5
f 236/2/5 232/2/5 235/2/5
f 243/1/5 238/1/5 237/1/5
f 244/2/5 239/2/5 238/2/5
f 244/1/5 238/1/5 243/1/5
f 245/2/5 239/2/5 244/2/5
f 246/1/5 242/1/5 241/1/5
f 246/1/5 241/1/5 240/1/5
f 247/1/5 242/1/5 246/1/5
f 248/1/6 249/1/6 253/1/6
f 249/2/6 250/2/6 254/2/6
f 253/1/6 249/1/6 254/1/6
f 254/2/6 250/2/6 255/2/6
f 251/1/6 252/1/6 256/1/6
f 256/1/6 252/1/6 257/1/6
f 258/2/6 259/2/6 260/2/6
f 260/2/6 259/2/6 261/2/6
f 262/3/6 263/3/6 266/3/6
f 266/3/6 263/3/6 267/3/6
f 264/2/6 265/2/6 268/2/6
f 268/2/6 265/2/6 269/2/6
f 270/2/6 271/2/6 273/2/6
f 273/2/6 271/2/6 274/2/6
f 274/2/6 271/2/6 275/2/6
f 272/2/6 273/2/6 277/2/6
f 273/1/6 274/1/6 278/1/6
f 277/2/6 273/2/6 278/2/6
f 274/2/6 275/2/6 279/2/6
f 278/1/6 274/1/6 279/1/6
f 275/3/6 276/3/6 280/3/6
f 279/2/6 275/2/6 280/2/6
f 280/3/6 276/3/6 281/3/6
f 272/2/6 277/2/6 282/2/6
f 277/3/6 278/3/6 283/3/6
f 282/2/6 277/2/6 283/2/6
f 278/2/6 279/2/6 284/2/6
f 283/3/6 278/3/6 284/3/6
f 279/2/6 280/2/6 284/2/6
f 284/2/6 280/2/6 285/2/6
f 285/2/6 280/2/6 286/2/6
f 282/1/6 283/1/6 288/1/6
f 283/2/6 284/2/6 289/2/6
f 288/1/6 283/1/6 289/1/6
f 284/1/6 285/1/6 290/1/6
f 289/2/6 284/2/6 290/2/6
f 286/2/6 287/2/6 291/2/6
f 290/1/6 285/1/6 291/1/6
f 285/2/6 286/2/6 291/2/6
f 291/2/6 287/2/6 292/2/6
f 292/2/6 287/2/6 293/2/6
f 289/2/6 290/2/6 294/2/6
f 290/2/6 291/2/6 294/2/6
f 291/3/6 292/3/6 295/3/6
f 294/2/6 291/2/6 295/2/6
f 295/3/6 292/3/6 296/3/6
