# MagicaVoxel @ Ephtracy

# group
o 

# material
mtllib Robot1.mtl
usemtl palette

# normals
vn -1 0 0
vn 1 0 0
vn 0 0 1
vn 0 0 -1
vn 0 -1 0
vn 0 1 0

# texcoords
vt 0.716797 0.5
vt 0.876953 0.5
vt 0.958984 0.5
vt 0.962891 0.5
vt 0.974609 0.5
vt 0.978516 0.5
vt 0.990234 0.5
vt 0.994141 0.5

# verts
v -1.4 1 -0.3
v -1.4 1 -0.6
v -1.4 1.2 -0.3
v -1.4 1.2 -0.6
v -1.4 1.6 -0.3
v -1.4 1.6 -0.6
v -1.4 1.8 -0.3
v -1.4 1.8 -0.6
v -1.4 2.3 -0.3
v -1.4 2.3 -0.6
v -1.4 2.4 -0.4
v -1.4 2.4 -0.5
v -1.4 2.5 -0.4
v -1.4 2.5 -0.5
v -1.4 2.6 -0.3
v -1.4 2.6 -0.6
v -1.3 1.2 -0.4
v -1.3 1.2 -0.5
v -1.3 1.6 -0.4
v -1.3 1.6 -0.5
v -1.3 1.8 -0.4
v -1.3 1.8 -0.5
v -1.3 2.3 -0.4
v -1.3 2.3 -0.5
v -1.1 2.1 0.1
v -1.1 2.1 -0.9
v -1.1 2.3 -0.3
v -1.1 2.3 -0.6
v -1.1 2.6 -0.3
v -1.1 2.6 -0.6
v -1.1 2.8 0.1
v -1.1 2.8 -0.9
v -1 2 0.2
v -1 2 -1
v -1 2.1 0.1
v -1 2.1 -0.9
v -1 2.8 0.1
v -1 2.8 -0.9
v -1 2.9 0.2
v -1 2.9 -1
v -0.9 1.9 0.3
v -0.9 1.9 -1.1
v -0.9 2 0.2
v -0.9 2 -1
v -0.9 2.9 0.2
v -0.9 2.9 -1
v -0.9 3 0.3
v -0.9 3 -1.1
v -0.8 2 0.4
v -0.8 2 0.3
v -0.8 2 -1.1
v -0.8 2 -1.2
v -0.8 2.9 0.4
v -0.8 2.9 0.3
v -0.8 2.9 -1.1
v -0.8 2.9 -1.2
v -0.8 3 0.2
v -0.8 3 -1
v -0.8 3.1 0.2
v -0.8 3.1 -1
v -0.8 3.8 -0.4
v -0.8 3.8 -0.5
v -0.8 3.9 -0.4
v -0.8 3.9 -0.5
v -0.7 2.1 -1.2
v -0.7 2.1 -1.3
v -0.7 2.8 -1.2
v -0.7 2.8 -1.3
v -0.7 3.1 0.1
v -0.7 3.1 -0.9
v -0.7 3.2 0.1
v -0.7 3.2 -0.9
v -0.5 0 0
v -0.5 0 -0.6
v -0.5 0.1 0
v -0.5 0.1 -0.6
v -0.5 1.5 -0.3
v -0.5 1.5 -0.6
v -0.5 1.9 -0.3
v -0.5 1.9 -0.6
v -0.5 3.2 -0.4
v -0.5 3.2 -0.5
v -0.5 3.8 -0.4
v -0.5 3.8 -0.5
v -0.4 0.1 -0.4
v -0.4 0.1 -0.5
v -0.4 1.5 -0.4
v -0.4 1.5 -0.5
v 0.2 0 0
v 0.2 0 -0.6
v 0.2 0.1 0
v 0.2 0.1 -0.6
v 0.2 1.5 -0.3
v 0.2 1.5 -0.6
v 0.2 1.9 -0.3
v 0.2 1.9 -0.6
v 0.3 0.1 -0.4
v 0.3 0.1 -0.5
v 0.3 1.5 -0.4
v 0.3 1.5 -0.5
v 1.1 1 -0.3
v 1.1 1 -0.6
v 1.1 1.2 -0.3
v 1.1 1.2 -0.6
v 1.1 1.6 -0.3
v 1.1 1.6 -0.6
v 1.1 1.8 -0.3
v 1.1 1.8 -0.6
v 1.2 1.2 -0.4
v 1.2 1.2 -0.5
v 1.2 1.6 -0.4
v 1.2 1.6 -0.5
v 1.2 1.8 -0.4
v 1.2 1.8 -0.5
v 1.2 2.3 -0.4
v 1.2 2.3 -0.5
v -1.2 1.2 -0.4
v -1.2 1.2 -0.5
v -1.2 1.6 -0.4
v -1.2 1.6 -0.5
v -1.2 1.8 -0.4
v -1.2 1.8 -0.5
v -1.2 2.3 -0.4
v -1.2 2.3 -0.5
v -1.1 1 -0.3
v -1.1 1 -0.6
v -1.1 1.2 -0.3
v -1.1 1.2 -0.6
v -1.1 1.6 -0.3
v -1.1 1.6 -0.6
v -1.1 1.8 -0.3
v -1.1 1.8 -0.6
v -0.4 3.2 -0.4
v -0.4 3.2 -0.5
v -0.4 3.9 -0.4
v -0.4 3.9 -0.5
v -0.3 0.1 -0.4
v -0.3 0.1 -0.5
v -0.3 1.5 -0.4
v -0.3 1.5 -0.5
v -0.2 0 0
v -0.2 0 -0.6
v -0.2 0.1 0
v -0.2 0.1 -0.6
v -0.2 1.5 -0.3
v -0.2 1.5 -0.6
v -0.2 1.9 -0.3
v -0.2 1.9 -0.6
v 0.4 0.1 -0.4
v 0.4 0.1 -0.5
v 0.4 1.5 -0.4
v 0.4 1.5 -0.5
v 0.5 0 0
v 0.5 0 -0.6
v 0.5 0.1 0
v 0.5 0.1 -0.6
v 0.5 1.5 -0.3
v 0.5 1.5 -0.6
v 0.5 1.9 -0.3
v 0.5 1.9 -0.6
v 0.7 2 0.4
v 0.7 2 0.3
v 0.7 2.1 -1.2
v 0.7 2.1 -1.3
v 0.7 2.8 -1.2
v 0.7 2.8 -1.3
v 0.7 2.9 0.4
v 0.7 2.9 0.3
v 0.7 3.1 0.1
v 0.7 3.1 -0.9
v 0.7 3.2 0.1
v 0.7 3.2 -0.9
v 0.8 2 -1.1
v 0.8 2 -1.2
v 0.8 2.9 -1.1
v 0.8 2.9 -1.2
v 0.8 3 0.2
v 0.8 3 -1
v 0.8 3.1 0.2
v 0.8 3.1 -1
v 0.9 1.9 0.3
v 0.9 1.9 -1.1
v 0.9 2 0.2
v 0.9 2 -1
v 0.9 2.9 0.2
v 0.9 2.9 -1
v 0.9 3 0.3
v 0.9 3 -1.1
v 1 2 0.2
v 1 2 -1
v 1 2.1 0.1
v 1 2.1 -0.9
v 1 2.8 0.1
v 1 2.8 -0.9
v 1 2.9 0.2
v 1 2.9 -1
v 1.1 2.1 0.1
v 1.1 2.1 -0.9
v 1.1 2.3 -0.3
v 1.1 2.3 -0.6
v 1.1 2.6 -0.3
v 1.1 2.6 -0.6
v 1.1 2.8 0.1
v 1.1 2.8 -0.9
v 1.3 1.2 -0.4
v 1.3 1.2 -0.5
v 1.3 1.6 -0.4
v 1.3 1.6 -0.5
v 1.3 1.8 -0.4
v 1.3 1.8 -0.5
v 1.3 2.3 -0.4
v 1.3 2.3 -0.5
v 1.4 1 -0.3
v 1.4 1 -0.6
v 1.4 1.2 -0.3
v 1.4 1.2 -0.6
v 1.4 1.6 -0.3
v 1.4 1.6 -0.6
v 1.4 1.8 -0.3
v 1.4 1.8 -0.6
v 1.4 2.3 -0.3
v 1.4 2.3 -0.6
v 1.4 2.4 -0.4
v 1.4 2.4 -0.5
v 1.4 2.5 -0.4
v 1.4 2.5 -0.5
v 1.4 2.6 -0.3
v 1.4 2.6 -0.6
v -0.8 2 0.4
v -0.8 2.9 0.4
v -0.7 2.1 0.4
v -0.7 2.8 0.4
v -0.5 2.4 0.4
v -0.5 2.7 0.4
v -0.3 2.2 0.4
v -0.3 2.3 0.4
v -0.3 2.4 0.4
v -0.3 2.7 0.4
v 0.2 2.2 0.4
v 0.2 2.3 0.4
v 0.2 2.4 0.4
v 0.2 2.7 0.4
v 0.4 2.4 0.4
v 0.4 2.7 0.4
v 0.6 2.1 0.4
v 0.6 2.8 0.4
v 0.7 2 0.4
v 0.7 2.9 0.4
v -0.9 1.9 0.3
v -0.9 3 0.3
v -0.8 2 0.3
v -0.8 2.9 0.3
v 0.7 2 0.3
v 0.7 2.9 0.3
v 0.9 1.9 0.3
v 0.9 3 0.3
v -1 2 0.2
v -1 2.9 0.2
v -0.9 2 0.2
v -0.9 2.9 0.2
v -0.8 3 0.2
v -0.8 3.1 0.2
v 0.8 3 0.2
v 0.8 3.1 0.2
v 0.9 2 0.2
v 0.9 2.9 0.2
v 1 2 0.2
v 1 2.9 0.2
v -1.1 2.1 0.1
v -1.1 2.8 0.1
v -1 2.1 0.1
v -1 2.8 0.1
v -0.7 3.1 0.1
v -0.7 3.2 0.1
v 0.7 3.1 0.1
v 0.7 3.2 0.1
v 1 2.1 0.1
v 1 2.8 0.1
v 1.1 2.1 0.1
v 1.1 2.8 0.1
v -0.5 0 0
v -0.5 0.1 0
v -0.2 0 0
v -0.2 0.1 0
v 0.2 0 0
v 0.2 0.1 0
v 0.5 0 0
v 0.5 0.1 0
v -1.4 1 -0.3
v -1.4 1.2 -0.3
v -1.4 1.6 -0.3
v -1.4 1.8 -0.3
v -1.4 2.3 -0.3
v -1.4 2.6 -0.3
v -1.1 1 -0.3
v -1.1 1.2 -0.3
v -1.1 1.6 -0.3
v -1.1 1.8 -0.3
v -1.1 2.3 -0.3
v -1.1 2.6 -0.3
v -0.5 1.5 -0.3
v -0.5 1.9 -0.3
v -0.2 1.5 -0.3
v -0.2 1.9 -0.3
v 0.2 1.5 -0.3
v 0.2 1.9 -0.3
v 0.5 1.5 -0.3
v 0.5 1.9 -0.3
v 1.1 1 -0.3
v 1.1 1.2 -0.3
v 1.1 1.6 -0.3
v 1.1 1.8 -0.3
v 1.1 2.3 -0.3
v 1.1 2.6 -0.3
v 1.4 1 -0.3
v 1.4 1.2 -0.3
v 1.4 1.6 -0.3
v 1.4 1.8 -0.3
v 1.4 2.3 -0.3
v 1.4 2.6 -0.3
v -1.3 1.2 -0.4
v -1.3 1.6 -0.4
v -1.3 1.8 -0.4
v -1.3 2.3 -0.4
v -1.2 1.2 -0.4
v -1.2 1.6 -0.4
v -1.2 1.8 -0.4
v -1.2 2.3 -0.4
v -0.8 3.8 -0.4
v -0.8 3.9 -0.4
v -0.5 3.2 -0.4
v -0.5 3.8 -0.4
v -0.4 0.1 -0.4
v -0.4 1.5 -0.4
v -0.4 3.2 -0.4
v -0.4 3.9 -0.4
v -0.3 0.1 -0.4
v -0.3 1.5 -0.4
v 0.3 0.1 -0.4
v 0.3 1.5 -0.4
v 0.4 0.1 -0.4
v 0.4 1.5 -0.4
v 1.2 1.2 -0.4
v 1.2 1.6 -0.4
v 1.2 1.8 -0.4
v 1.2 2.3 -0.4
v 1.3 1.2 -0.4
v 1.3 1.6 -0.4
v 1.3 1.8 -0.4
v 1.3 2.3 -0.4
v -1.3 1.2 -0.5
v -1.3 1.6 -0.5
v -1.3 1.8 -0.5
v -1.3 2.3 -0.5
v -1.2 1.2 -0.5
v -1.2 1.6 -0.5
v -1.2 1.8 -0.5
v -1.2 2.3 -0.5
v -0.8 3.8 -0.5
v -0.8 3.9 -0.5
v -0.5 3.2 -0.5
v -0.5 3.8 -0.5
v -0.4 0.1 -0.5
v -0.4 1.5 -0.5
v -0.4 3.2 -0.5
v -0.4 3.9 -0.5
v -0.3 0.1 -0.5
v -0.3 1.5 -0.5
v 0.3 0.1 -0.5
v 0.3 1.5 -0.5
v 0.4 0.1 -0.5
v 0.4 1.5 -0.5
v 1.2 1.2 -0.5
v 1.2 1.6 -0.5
v 1.2 1.8 -0.5
v 1.2 2.3 -0.5
v 1.3 1.2 -0.5
v 1.3 1.6 -0.5
v 1.3 1.8 -0.5
v 1.3 2.3 -0.5
v -1.4 1 -0.6
v -1.4 1.2 -0.6
v -1.4 1.6 -0.6
v -1.4 1.8 -0.6
v -1.4 2.3 -0.6
v -1.4 2.6 -0.6
v -1.1 1 -0.6
v -1.1 1.2 -0.6
v -1.1 1.6 -0.6
v -1.1 1.8 -0.6
v -1.1 2.3 -0.6
v -1.1 2.6 -0.6
v -0.5 0 -0.6
v -0.5 0.1 -0.6
v -0.5 1.5 -0.6
v -0.5 1.9 -0.6
v -0.2 0 -0.6
v -0.2 0.1 -0.6
v -0.2 1.5 -0.6
v -0.2 1.9 -0.6
v 0.2 0 -0.6
v 0.2 0.1 -0.6
v 0.2 1.5 -0.6
v 0.2 1.9 -0.6
v 0.5 0 -0.6
v 0.5 0.1 -0.6
v 0.5 1.5 -0.6
v 0.5 1.9 -0.6
v 1.1 1 -0.6
v 1.1 1.2 -0.6
v 1.1 1.6 -0.6
v 1.1 1.8 -0.6
v 1.1 2.3 -0.6
v 1.1 2.6 -0.6
v 1.4 1 -0.6
v 1.4 1.2 -0.6
v 1.4 1.6 -0.6
v 1.4 1.8 -0.6
v 1.4 2.3 -0.6
v 1.4 2.6 -0.6
v -1.1 2.1 -0.9
v -1.1 2.8 -0.9
v -1 2.1 -0.9
v -1 2.8 -0.9
v -0.7 3.1 -0.9
v -0.7 3.2 -0.9
v 0.7 3.1 -0.9
v 0.7 3.2 -0.9
v 1 2.1 -0.9
v 1 2.8 -0.9
v 1.1 2.1 -0.9
v 1.1 2.8 -0.9
v -1 2 -1
v -1 2.9 -1
v -0.9 2 -1
v -0.9 2.9 -1
v -0.8 3 -1
v -0.8 3.1 -1
v 0.8 3 -1
v 0.8 3.1 -1
v 0.9 2 -1
v 0.9 2.9 -1
v 1 2 -1
v 1 2.9 -1
v -0.9 1.9 -1.1
v -0.9 3 -1.1
v -0.8 2 -1.1
v -0.8 2.9 -1.1
v 0.8 2 -1.1
v 0.8 2.9 -1.1
v 0.9 1.9 -1.1
v 0.9 3 -1.1
v -0.8 2 -1.2
v -0.8 2.9 -1.2
v -0.7 2.1 -1.2
v -0.7 2.8 -1.2
v 0.7 2.1 -1.2
v 0.7 2.8 -1.2
v 0.8 2 -1.2
v 0.8 2.9 -1.2
v -0.7 2.1 -1.3
v -0.7 2.8 -1.3
v 0.7 2.1 -1.3
v 0.7 2.8 -1.3
v -0.5 0 0
v -0.2 0 0
v 0.2 0 0
v 0.5 0 0
v -0.4 0 -0.4
v -0.3 0 -0.4
v 0.3 0 -0.4
v 0.4 0 -0.4
v -0.4 0 -0.5
v -0.3 0 -0.5
v 0.3 0 -0.5
v 0.4 0 -0.5
v -0.5 0 -0.6
v -0.2 0 -0.6
v 0.2 0 -0.6
v 0.5 0 -0.6
v -1.4 1 -0.3
v -1.1 1 -0.3
v 1.1 1 -0.3
v 1.4 1 -0.3
v -1.4 1 -0.6
v -1.1 1 -0.6
v 1.1 1 -0.6
v 1.4 1 -0.6
v -0.5 1.5 -0.3
v -0.2 1.5 -0.3
v 0.2 1.5 -0.3
v 0.5 1.5 -0.3
v -0.4 1.5 -0.4
v -0.3 1.5 -0.4
v 0.3 1.5 -0.4
v 0.4 1.5 -0.4
v -0.4 1.5 -0.5
v -0.3 1.5 -0.5
v 0.3 1.5 -0.5
v 0.4 1.5 -0.5
v -0.5 1.5 -0.6
v -0.2 1.5 -0.6
v 0.2 1.5 -0.6
v 0.5 1.5 -0.6
v -1.4 1.6 -0.3
v -1.1 1.6 -0.3
v 1.1 1.6 -0.3
v 1.4 1.6 -0.3
v -1.3 1.6 -0.4
v -1.2 1.6 -0.4
v 1.2 1.6 -0.4
v 1.3 1.6 -0.4
v -1.3 1.6 -0.5
v -1.2 1.6 -0.5
v 1.2 1.6 -0.5
v 1.3 1.6 -0.5
v -1.4 1.6 -0.6
v -1.1 1.6 -0.6
v 1.1 1.6 -0.6
v 1.4 1.6 -0.6
v -0.9 1.9 0.3
v 0.9 1.9 0.3
v -0.5 1.9 -0.3
v -0.2 1.9 -0.3
v 0.2 1.9 -0.3
v 0.5 1.9 -0.3
v -0.5 1.9 -0.6
v -0.2 1.9 -0.6
v 0.2 1.9 -0.6
v 0.5 1.9 -0.6
v -0.9 1.9 -1.1
v 0.9 1.9 -1.1
v -0.8 2 0.4
v 0.7 2 0.4
v -0.8 2 0.3
v 0.7 2 0.3
v -1 2 0.2
v -0.9 2 0.2
v 0.9 2 0.2
v 1 2 0.2
v -1 2 -1
v -0.9 2 -1
v 0.9 2 -1
v 1 2 -1
v -0.8 2 -1.1
v 0.8 2 -1.1
v -0.8 2 -1.2
v 0.8 2 -1.2
v -1.1 2.1 0.1
v -1 2.1 0.1
v 1 2.1 0.1
v 1.1 2.1 0.1
v -1.1 2.1 -0.9
v -1 2.1 -0.9
v 1 2.1 -0.9
v 1.1 2.1 -0.9
v -0.7 2.1 -1.2
v 0.7 2.1 -1.2
v -0.7 2.1 -1.3
v 0.7 2.1 -1.3
v -1.4 2.3 -0.3
v -1.1 2.3 -0.3
v 1.1 2.3 -0.3
v 1.4 2.3 -0.3
v -1.3 2.3 -0.4
v -1.2 2.3 -0.4
v 1.2 2.3 -0.4
v 1.3 2.3 -0.4
v -1.3 2.3 -0.5
v -1.2 2.3 -0.5
v 1.2 2.3 -0.5
v 1.3 2.3 -0.5
v -1.4 2.3 -0.6
v -1.1 2.3 -0.6
v 1.1 2.3 -0.6
v 1.4 2.3 -0.6
v -0.8 3.8 -0.4
v -0.5 3.8 -0.4
v -0.8 3.8 -0.5
v -0.5 3.8 -0.5
v -0.5 0.1 0
v -0.2 0.1 0
v 0.2 0.1 0
v 0.5 0.1 0
v -0.4 0.1 -0.4
v -0.3 0.1 -0.4
v 0.3 0.1 -0.4
v 0.4 0.1 -0.4
v -0.4 0.1 -0.5
v -0.3 0.1 -0.5
v 0.3 0.1 -0.5
v 0.4 0.1 -0.5
v -0.5 0.1 -0.6
v -0.2 0.1 -0.6
v 0.2 0.1 -0.6
v 0.5 0.1 -0.6
v -1.4 1.2 -0.3
v -1.1 1.2 -0.3
v 1.1 1.2 -0.3
v 1.4 1.2 -0.3
v -1.3 1.2 -0.4
v -1.2 1.2 -0.4
v 1.2 1.2 -0.4
v 1.3 1.2 -0.4
v -1.3 1.2 -0.5
v -1.2 1.2 -0.5
v 1.2 1.2 -0.5
v 1.3 1.2 -0.5
v -1.4 1.2 -0.6
v -1.1 1.2 -0.6
v 1.1 1.2 -0.6
v 1.4 1.2 -0.6
v -1.4 1.8 -0.3
v -1.1 1.8 -0.3
v 1.1 1.8 -0.3
v 1.4 1.8 -0.3
v -1.3 1.8 -0.4
v -1.2 1.8 -0.4
v 1.2 1.8 -0.4
v 1.3 1.8 -0.4
v -1.3 1.8 -0.5
v -1.2 1.8 -0.5
v 1.2 1.8 -0.5
v 1.3 1.8 -0.5
v -1.4 1.8 -0.6
v -1.1 1.8 -0.6
v 1.1 1.8 -0.6
v 1.4 1.8 -0.6
v -1.4 2.6 -0.3
v -1.1 2.6 -0.3
v 1.1 2.6 -0.3
v 1.4 2.6 -0.3
v -1.4 2.6 -0.6
v -1.1 2.6 -0.6
v 1.1 2.6 -0.6
v 1.4 2.6 -0.6
v -1.1 2.8 0.1
v -1 2.8 0.1
v 1 2.8 0.1
v 1.1 2.8 0.1
v -1.1 2.8 -0.9
v -1 2.8 -0.9
v 1 2.8 -0.9
v 1.1 2.8 -0.9
v -0.7 2.8 -1.2
v 0.7 2.8 -1.2
v -0.7 2.8 -1.3
v 0.7 2.8 -1.3
v -0.8 2.9 0.4
v 0.7 2.9 0.4
v -0.8 2.9 0.3
v 0.7 2.9 0.3
v -1 2.9 0.2
v -0.9 2.9 0.2
v 0.9 2.9 0.2
v 1 2.9 0.2
v -1 2.9 -1
v -0.9 2.9 -1
v 0.9 2.9 -1
v 1 2.9 -1
v -0.8 2.9 -1.1
v 0.8 2.9 -1.1
v -0.8 2.9 -1.2
v 0.8 2.9 -1.2
v -0.9 3 0.3
v 0.9 3 0.3
v -0.8 3 0.2
v 0.8 3 0.2
v -0.8 3 -1
v 0.8 3 -1
v -0.9 3 -1.1
v 0.9 3 -1.1
v -0.8 3.1 0.2
v 0.8 3.1 0.2
v -0.7 3.1 0.1
v 0.7 3.1 0.1
v -0.7 3.1 -0.9
v 0.7 3.1 -0.9
v -0.8 3.1 -1
v 0.8 3.1 -1
v -0.7 3.2 0.1
v 0.7 3.2 0.1
v -0.5 3.2 -0.4
v -0.4 3.2 -0.4
v -0.5 3.2 -0.5
v -0.4 3.2 -0.5
v -0.7 3.2 -0.9
v 0.7 3.2 -0.9
v -0.8 3.9 -0.4
v -0.4 3.9 -0.4
v -0.8 3.9 -0.5
v -0.4 3.9 -0.5

# faces
f 3/4/1 2/4/1 1/4/1
f 4/4/1 2/4/1 3/4/1
f 7/6/1 6/6/1 5/6/1
f 8/6/1 6/6/1 7/6/1
f 11/7/1 10/7/1 9/7/1
f 12/7/1 10/7/1 11/7/1
f 13/7/1 11/7/1 9/7/1
f 13/6/1 12/6/1 11/6/1
f 14/7/1 10/7/1 12/7/1
f 14/6/1 12/6/1 13/6/1
f 15/7/1 13/7/1 9/7/1
f 15/7/1 14/7/1 13/7/1
f 16/7/1 10/7/1 14/7/1
f 16/7/1 14/7/1 15/7/1
f 19/7/1 18/7/1 17/7/1
f 20/7/1 18/7/1 19/7/1
f 23/7/1 22/7/1 21/7/1
f 24/7/1 22/7/1 23/7/1
f 27/5/1 26/5/1 25/5/1
f 28/5/1 26/5/1 27/5/1
f 29/5/1 27/5/1 25/5/1
f 30/5/1 26/5/1 28/5/1
f 31/5/1 29/5/1 25/5/1
f 31/5/1 30/5/1 29/5/1
f 32/5/1 26/5/1 30/5/1
f 32/5/1 30/5/1 31/5/1
f 35/5/1 34/5/1 33/5/1
f 36/5/1 34/5/1 35/5/1
f 37/5/1 35/5/1 33/5/1
f 38/5/1 34/5/1 36/5/1
f 39/5/1 37/5/1 33/5/1
f 39/5/1 38/5/1 37/5/1
f 40/5/1 34/5/1 38/5/1
f 40/5/1 38/5/1 39/5/1
f 43/5/1 42/5/1 41/5/1
f 44/5/1 42/5/1 43/5/1
f 45/5/1 43/5/1 41/5/1
f 46/5/1 42/5/1 44/5/1
f 47/5/1 45/5/1 41/5/1
f 47/5/1 46/5/1 45/5/1
f 48/5/1 42/5/1 46/5/1
f 48/5/1 46/5/1 47/5/1
f 53/5/1 50/5/1 49/5/1
f 54/5/1 50/5/1 53/5/1
f 55/5/1 52/5/1 51/5/1
f 56/5/1 52/5/1 55/5/1
f 59/5/1 58/5/1 57/5/1
f 60/5/1 58/5/1 59/5/1
f 63/8/1 62/8/1 61/8/1
f 64/8/1 62/8/1 63/8/1
f 67/5/1 66/5/1 65/5/1
f 68/5/1 66/5/1 67/5/1
f 71/5/1 70/5/1 69/5/1
f 72/5/1 70/5/1 71/5/1
f 75/3/1 74/3/1 73/3/1
f 76/3/1 74/3/1 75/3/1
f 79/4/1 78/4/1 77/4/1
f 80/4/1 78/4/1 79/4/1
f 83/8/1 82/8/1 81/8/1
f 84/8/1 82/8/1 83/8/1
f 87/7/1 86/7/1 85/7/1
f 88/7/1 86/7/1 87/7/1
f 91/3/1 90/3/1 89/3/1
f 92/3/1 90/3/1 91/3/1
f 95/4/1 94/4/1 93/4/1
f 96/4/1 94/4/1 95/4/1
f 99/7/1 98/7/1 97/7/1
f 100/7/1 98/7/1 99/7/1
f 103/4/1 102/4/1 101/4/1
f 104/4/1 102/4/1 103/4/1
f 107/6/1 106/6/1 105/6/1
f 108/6/1 106/6/1 107/6/1
f 111/7/1 110/7/1 109/7/1
f 112/7/1 110/7/1 111/7/1
f 115/7/1 114/7/1 113/7/1
f 116/7/1 114/7/1 115/7/1
f 117/7/2 118/7/2 119/7/2
f 119/7/2 118/7/2 120/7/2
f 121/7/2 122/7/2 123/7/2
f 123/7/2 122/7/2 124/7/2
f 125/4/2 126/4/2 127/4/2
f 127/4/2 126/4/2 128/4/2
f 129/6/2 130/6/2 131/6/2
f 131/6/2 130/6/2 132/6/2
f 133/8/2 134/8/2 135/8/2
f 135/8/2 134/8/2 136/8/2
f 137/7/2 138/7/2 139/7/2
f 139/7/2 138/7/2 140/7/2
f 141/3/2 142/3/2 143/3/2
f 143/3/2 142/3/2 144/3/2
f 145/4/2 146/4/2 147/4/2
f 147/4/2 146/4/2 148/4/2
f 149/7/2 150/7/2 151/7/2
f 151/7/2 150/7/2 152/7/2
f 153/3/2 154/3/2 155/3/2
f 155/3/2 154/3/2 156/3/2
f 157/4/2 158/4/2 159/4/2
f 159/4/2 158/4/2 160/4/2
f 163/5/2 164/5/2 165/5/2
f 165/5/2 164/5/2 166/5/2
f 161/5/2 162/5/2 167/5/2
f 167/5/2 162/5/2 168/5/2
f 169/5/2 170/5/2 171/5/2
f 171/5/2 170/5/2 172/5/2
f 173/5/2 174/5/2 175/5/2
f 175/5/2 174/5/2 176/5/2
f 177/5/2 178/5/2 179/5/2
f 179/5/2 178/5/2 180/5/2
f 181/5/2 182/5/2 183/5/2
f 183/5/2 182/5/2 184/5/2
f 181/5/2 183/5/2 185/5/2
f 184/5/2 182/5/2 186/5/2
f 181/5/2 185/5/2 187/5/2
f 185/5/2 186/5/2 187/5/2
f 186/5/2 182/5/2 188/5/2
f 187/5/2 186/5/2 188/5/2
f 189/5/2 190/5/2 191/5/2
f 191/5/2 190/5/2 192/5/2
f 189/5/2 191/5/2 193/5/2
f 192/5/2 190/5/2 194/5/2
f 189/5/2 193/5/2 195/5/2
f 193/5/2 194/5/2 195/5/2
f 194/5/2 190/5/2 196/5/2
f 195/5/2 194/5/2 196/5/2
f 197/5/2 198/5/2 199/5/2
f 199/5/2 198/5/2 200/5/2
f 197/5/2 199/5/2 201/5/2
f 200/5/2 198/5/2 202/5/2
f 197/5/2 201/5/2 203/5/2
f 201/5/2 202/5/2 203/5/2
f 202/5/2 198/5/2 204/5/2
f 203/5/2 202/5/2 204/5/2
f 205/7/2 206/7/2 207/7/2
f 207/7/2 206/7/2 208/7/2
f 209/7/2 210/7/2 211/7/2
f 211/7/2 210/7/2 212/7/2
f 213/4/2 214/4/2 215/4/2
f 215/4/2 214/4/2 216/4/2
f 217/6/2 218/6/2 219/6/2
f 219/6/2 218/6/2 220/6/2
f 221/7/2 222/7/2 223/7/2
f 223/7/2 222/7/2 224/7/2
f 221/7/2 223/7/2 225/7/2
f 223/6/2 224/6/2 225/6/2
f 224/7/2 222/7/2 226/7/2
f 225/6/2 224/6/2 226/6/2
f 221/7/2 225/7/2 227/7/2
f 225/7/2 226/7/2 227/7/2
f 226/7/2 222/7/2 228/7/2
f 227/7/2 226/7/2 228/7/2
f 231/5/3 230/5/3 229/5/3
f 232/5/3 230/5/3 231/5/3
f 233/2/3 232/2/3 231/2/3
f 234/2/3 232/2/3 233/2/3
f 235/2/3 233/2/3 231/2/3
f 236/2/3 233/2/3 235/2/3
f 237/1/3 234/1/3 233/1/3
f 237/2/3 233/2/3 236/2/3
f 238/2/3 232/2/3 234/2/3
f 238/1/3 234/1/3 237/1/3
f 239/1/3 236/1/3 235/1/3
f 239/2/3 235/2/3 231/2/3
f 240/2/3 237/2/3 236/2/3
f 240/1/3 236/1/3 239/1/3
f 240/2/3 238/2/3 237/2/3
f 241/2/3 238/2/3 240/2/3
f 242/2/3 232/2/3 238/2/3
f 242/2/3 238/2/3 241/2/3
f 243/2/3 241/2/3 240/2/3
f 243/2/3 240/2/3 239/2/3
f 243/1/3 242/1/3 241/1/3
f 244/2/3 232/2/3 242/2/3
f 244/1/3 242/1/3 243/1/3
f 245/5/3 231/5/3 229/5/3
f 245/2/3 239/2/3 231/2/3
f 245/2/3 244/2/3 243/2/3
f 245/2/3 243/2/3 239/2/3
f 246/2/3 232/2/3 244/2/3
f 246/2/3 244/2/3 245/2/3
f 246/5/3 230/5/3 232/5/3
f 247/5/3 245/5/3 229/5/3
f 247/5/3 246/5/3 245/5/3
f 248/5/3 230/5/3 246/5/3
f 248/5/3 246/5/3 247/5/3
f 251/5/3 250/5/3 249/5/3
f 252/5/3 250/5/3 251/5/3
f 253/5/3 251/5/3 249/5/3
f 254/5/3 250/5/3 252/5/3
f 255/5/3 253/5/3 249/5/3
f 255/5/3 254/5/3 253/5/3
f 256/5/3 250/5/3 254/5/3
f 256/5/3 254/5/3 255/5/3
f 259/5/3 258/5/3 257/5/3
f 260/5/3 258/5/3 259/5/3
f 263/5/3 262/5/3 261/5/3
f 264/5/3 262/5/3 263/5/3
f 267/5/3 266/5/3 265/5/3
f 268/5/3 266/5/3 267/5/3
f 271/5/3 270/5/3 269/5/3
f 272/5/3 270/5/3 271/5/3
f 275/5/3 274/5/3 273/5/3
f 276/5/3 274/5/3 275/5/3
f 279/5/3 278/5/3 277/5/3
f 280/5/3 278/5/3 279/5/3
f 283/3/3 282/3/3 281/3/3
f 284/3/3 282/3/3 283/3/3
f 287/3/3 286/3/3 285/3/3
f 288/3/3 286/3/3 287/3/3
f 295/4/3 290/4/3 289/4/3
f 296/4/3 290/4/3 295/4/3
f 297/6/3 292/6/3 291/6/3
f 298/6/3 292/6/3 297/6/3
f 299/7/3 294/7/3 293/7/3
f 300/7/3 294/7/3 299/7/3
f 303/4/3 302/4/3 301/4/3
f 304/4/3 302/4/3 303/4/3
f 307/4/3 306/4/3 305/4/3
f 308/4/3 306/4/3 307/4/3
f 315/4/3 310/4/3 309/4/3
f 316/4/3 310/4/3 315/4/3
f 317/6/3 312/6/3 311/6/3
f 318/6/3 312/6/3 317/6/3
f 319/7/3 314/7/3 313/7/3
f 320/7/3 314/7/3 319/7/3
f 325/7/3 322/7/3 321/7/3
f 326/7/3 322/7/3 325/7/3
f 327/7/3 324/7/3 323/7/3
f 328/7/3 324/7/3 327/7/3
f 332/8/3 330/8/3 329/8/3
f 335/8/3 332/8/3 331/8/3
f 336/8/3 330/8/3 332/8/3
f 336/8/3 332/8/3 335/8/3
f 337/7/3 334/7/3 333/7/3
f 338/7/3 334/7/3 337/7/3
f 341/7/3 340/7/3 339/7/3
f 342/7/3 340/7/3 341/7/3
f 347/7/3 344/7/3 343/7/3
f 348/7/3 344/7/3 347/7/3
f 349/7/3 346/7/3 345/7/3
f 350/7/3 346/7/3 349/7/3
f 351/7/4 352/7/4 355/7/4
f 355/7/4 352/7/4 356/7/4
f 353/7/4 354/7/4 357/7/4
f 357/7/4 354/7/4 358/7/4
f 359/8/4 360/8/4 362/8/4
f 361/8/4 362/8/4 365/8/4
f 362/8/4 360/8/4 366/8/4
f 365/8/4 362/8/4 366/8/4
f 363/7/4 364/7/4 367/7/4
f 367/7/4 364/7/4 368/7/4
f 369/7/4 370/7/4 371/7/4
f 371/7/4 370/7/4 372/7/4
f 373/7/4 374/7/4 377/7/4
f 377/7/4 374/7/4 378/7/4
f 375/7/4 376/7/4 379/7/4
f 379/7/4 376/7/4 380/7/4
f 381/4/4 382/4/4 387/4/4
f 387/4/4 382/4/4 388/4/4
f 383/6/4 384/6/4 389/6/4
f 389/6/4 384/6/4 390/6/4
f 385/7/4 386/7/4 391/7/4
f 391/7/4 386/7/4 392/7/4
f 393/3/4 394/3/4 397/3/4
f 397/3/4 394/3/4 398/3/4
f 395/4/4 396/4/4 399/4/4
f 399/4/4 396/4/4 400/4/4
f 401/3/4 402/3/4 405/3/4
f 405/3/4 402/3/4 406/3/4
f 403/4/4 404/4/4 407/4/4
f 407/4/4 404/4/4 408/4/4
f 409/4/4 410/4/4 415/4/4
f 415/4/4 410/4/4 416/4/4
f 411/6/4 412/6/4 417/6/4
f 417/6/4 412/6/4 418/6/4
f 413/7/4 414/7/4 419/7/4
f 419/7/4 414/7/4 420/7/4
f 421/5/4 422/5/4 423/5/4
f 423/5/4 422/5/4 424/5/4
f 425/5/4 426/5/4 427/5/4
f 427/5/4 426/5/4 428/5/4
f 429/5/4 430/5/4 431/5/4
f 431/5/4 430/5/4 432/5/4
f 433/5/4 434/5/4 435/5/4
f 435/5/4 434/5/4 436/5/4
f 437/5/4 438/5/4 439/5/4
f 439/5/4 438/5/4 440/5/4
f 441/5/4 442/5/4 443/5/4
f 443/5/4 442/5/4 444/5/4
f 445/5/4 446/5/4 447/5/4
f 447/5/4 446/5/4 448/5/4
f 445/5/4 447/5/4 449/5/4
f 448/5/4 446/5/4 450/5/4
f 445/5/4 449/5/4 451/5/4
f 449/5/4 450/5/4 451/5/4
f 450/5/4 446/5/4 452/5/4
f 451/5/4 450/5/4 452/5/4
f 453/5/4 454/5/4 455/5/4
f 455/5/4 454/5/4 456/5/4
f 453/5/4 455/5/4 457/5/4
f 456/5/4 454/5/4 458/5/4
f 453/5/4 457/5/4 459/5/4
f 457/5/4 458/5/4 459/5/4
f 458/5/4 454/5/4 460/5/4
f 459/5/4 458/5/4 460/5/4
f 461/5/4 462/5/4 463/5/4
f 463/5/4 462/5/4 464/5/4
f 469/3/5 466/3/5 465/3/5
f 470/3/5 466/3/5 469/3/5
f 471/3/5 468/3/5 467/3/5
f 472/3/5 468/3/5 471/3/5
f 473/3/5 469/3/5 465/3/5
f 473/7/5 470/7/5 469/7/5
f 474/3/5 466/3/5 470/3/5
f 474/7/5 470/7/5 473/7/5
f 475/7/5 472/7/5 471/7/5
f 475/3/5 471/3/5 467/3/5
f 476/3/5 468/3/5 472/3/5
f 476/7/5 472/7/5 475/7/5
f 477/3/5 473/3/5 465/3/5
f 477/3/5 474/3/5 473/3/5
f 478/3/5 466/3/5 474/3/5
f 478/3/5 474/3/5 477/3/5
f 479/3/5 475/3/5 467/3/5
f 479/3/5 476/3/5 475/3/5
f 480/3/5 468/3/5 476/3/5
f 480/3/5 476/3/5 479/3/5
f 485/4/5 482/4/5 481/4/5
f 486/4/5 482/4/5 485/4/5
f 487/4/5 484/4/5 483/4/5
f 488/4/5 484/4/5 487/4/5
f 493/4/5 490/4/5 489/4/5
f 494/4/5 490/4/5 493/4/5
f 495/4/5 492/4/5 491/4/5
f 496/4/5 492/4/5 495/4/5
f 497/4/5 493/4/5 489/4/5
f 498/4/5 490/4/5 494/4/5
f 499/4/5 495/4/5 491/4/5
f 500/4/5 492/4/5 496/4/5
f 501/4/5 497/4/5 489/4/5
f 501/4/5 498/4/5 497/4/5
f 502/4/5 490/4/5 498/4/5
f 502/4/5 498/4/5 501/4/5
f 503/4/5 500/4/5 499/4/5
f 503/4/5 499/4/5 491/4/5
f 504/4/5 492/4/5 500/4/5
f 504/4/5 500/4/5 503/4/5
f 509/6/5 506/6/5 505/6/5
f 510/6/5 506/6/5 509/6/5
f 511/6/5 508/6/5 507/6/5
f 512/6/5 508/6/5 511/6/5
f 513/6/5 509/6/5 505/6/5
f 514/6/5 506/6/5 510/6/5
f 515/6/5 511/6/5 507/6/5
f 516/6/5 508/6/5 512/6/5
f 517/6/5 513/6/5 505/6/5
f 517/6/5 514/6/5 513/6/5
f 518/6/5 506/6/5 514/6/5
f 518/6/5 514/6/5 517/6/5
f 519/6/5 516/6/5 515/6/5
f 519/6/5 515/6/5 507/6/5
f 520/6/5 508/6/5 516/6/5
f 520/6/5 516/6/5 519/6/5
f 523/5/5 522/5/5 521/5/5
f 524/5/5 522/5/5 523/5/5
f 525/5/5 522/5/5 524/5/5
f 526/5/5 522/5/5 525/5/5
f 527/5/5 523/5/5 521/5/5
f 528/5/5 525/5/5 524/5/5
f 529/5/5 525/5/5 528/5/5
f 530/5/5 522/5/5 526/5/5
f 531/5/5 529/5/5 528/5/5
f 531/5/5 530/5/5 529/5/5
f 531/5/5 527/5/5 521/5/5
f 531/5/5 528/5/5 527/5/5
f 532/5/5 522/5/5 530/5/5
f 532/5/5 530/5/5 531/5/5
f 535/5/5 534/5/5 533/5/5
f 536/5/5 534/5/5 535/5/5
f 541/5/5 538/5/5 537/5/5
f 542/5/5 538/5/5 541/5/5
f 543/5/5 540/5/5 539/5/5
f 544/5/5 540/5/5 543/5/5
f 547/5/5 546/5/5 545/5/5
f 548/5/5 546/5/5 547/5/5
f 553/5/5 550/5/5 549/5/5
f 554/5/5 550/5/5 553/5/5
f 555/5/5 552/5/5 551/5/5
f 556/5/5 552/5/5 555/5/5
f 559/5/5 558/5/5 557/5/5
f 560/5/5 558/5/5 559/5/5
f 565/7/5 562/7/5 561/7/5
f 566/7/5 562/7/5 565/7/5
f 567/7/5 564/7/5 563/7/5
f 568/7/5 564/7/5 567/7/5
f 569/7/5 565/7/5 561/7/5
f 570/7/5 562/7/5 566/7/5
f 571/7/5 567/7/5 563/7/5
f 572/7/5 564/7/5 568/7/5
f 573/7/5 569/7/5 561/7/5
f 573/7/5 570/7/5 569/7/5
f 574/7/5 562/7/5 570/7/5
f 574/7/5 570/7/5 573/7/5
f 575/7/5 572/7/5 571/7/5
f 575/7/5 571/7/5 563/7/5
f 576/7/5 564/7/5 572/7/5
f 576/7/5 572/7/5 575/7/5
f 579/8/5 578/8/5 577/8/5
f 580/8/5 578/8/5 579/8/5
f 581/3/6 582/3/6 585/3/6
f 585/3/6 582/3/6 586/3/6
f 583/3/6 584/3/6 587/3/6
f 587/3/6 584/3/6 588/3/6
f 581/3/6 585/3/6 589/3/6
f 586/3/6 582/3/6 590/3/6
f 583/3/6 587/3/6 591/3/6
f 588/3/6 584/3/6 592/3/6
f 581/3/6 589/3/6 593/3/6
f 589/3/6 590/3/6 593/3/6
f 590/3/6 582/3/6 594/3/6
f 593/3/6 590/3/6 594/3/6
f 591/3/6 592/3/6 595/3/6
f 583/3/6 591/3/6 595/3/6
f 592/3/6 584/3/6 596/3/6
f 595/3/6 592/3/6 596/3/6
f 597/4/6 598/4/6 601/4/6
f 601/4/6 598/4/6 602/4/6
f 599/4/6 600/4/6 603/4/6
f 603/4/6 600/4/6 604/4/6
f 597/4/6 601/4/6 605/4/6
f 602/4/6 598/4/6 606/4/6
f 599/4/6 603/4/6 607/4/6
f 604/4/6 600/4/6 608/4/6
f 597/4/6 605/4/6 609/4/6
f 605/4/6 606/4/6 609/4/6
f 606/4/6 598/4/6 610/4/6
f 609/4/6 606/4/6 610/4/6
f 607/4/6 608/4/6 611/4/6
f 599/4/6 607/4/6 611/4/6
f 608/4/6 600/4/6 612/4/6
f 611/4/6 608/4/6 612/4/6
f 613/6/6 614/6/6 617/6/6
f 617/6/6 614/6/6 618/6/6
f 615/6/6 616/6/6 619/6/6
f 619/6/6 616/6/6 620/6/6
f 613/6/6 617/6/6 621/6/6
f 618/6/6 614/6/6 622/6/6
f 615/6/6 619/6/6 623/6/6
f 620/6/6 616/6/6 624/6/6
f 613/6/6 621/6/6 625/6/6
f 621/6/6 622/6/6 625/6/6
f 622/6/6 614/6/6 626/6/6
f 625/6/6 622/6/6 626/6/6
f 623/6/6 624/6/6 627/6/6
f 615/6/6 623/6/6 627/6/6
f 624/6/6 616/6/6 628/6/6
f 627/6/6 624/6/6 628/6/6
f 629/7/6 630/7/6 633/7/6
f 633/7/6 630/7/6 634/7/6
f 631/7/6 632/7/6 635/7/6
f 635/7/6 632/7/6 636/7/6
f 637/5/6 638/5/6 641/5/6
f 641/5/6 638/5/6 642/5/6
f 639/5/6 640/5/6 643/5/6
f 643/5/6 640/5/6 644/5/6
f 645/5/6 646/5/6 647/5/6
f 647/5/6 646/5/6 648/5/6
f 649/5/6 650/5/6 651/5/6
f 651/5/6 650/5/6 652/5/6
f 653/5/6 654/5/6 657/5/6
f 657/5/6 654/5/6 658/5/6
f 655/5/6 656/5/6 659/5/6
f 659/5/6 656/5/6 660/5/6
f 661/5/6 662/5/6 663/5/6
f 663/5/6 662/5/6 664/5/6
f 665/5/6 666/5/6 667/5/6
f 667/5/6 666/5/6 668/5/6
f 665/5/6 667/5/6 669/5/6
f 668/5/6 666/5/6 670/5/6
f 665/5/6 669/5/6 671/5/6
f 669/5/6 670/5/6 671/5/6
f 670/5/6 666/5/6 672/5/6
f 671/5/6 670/5/6 672/5/6
f 673/5/6 674/5/6 675/5/6
f 675/5/6 674/5/6 676/5/6
f 673/5/6 675/5/6 677/5/6
f 676/5/6 674/5/6 678/5/6
f 673/5/6 677/5/6 679/5/6
f 677/5/6 678/5/6 679/5/6
f 678/5/6 674/5/6 680/5/6
f 679/5/6 678/5/6 680/5/6
f 681/5/6 682/5/6 683/5/6
f 683/5/6 682/5/6 684/5/6
f 681/5/6 683/5/6 685/5/6
f 684/5/6 682/5/6 686/5/6
f 681/5/6 685/5/6 687/5/6
f 685/5/6 686/5/6 687/5/6
f 686/5/6 682/5/6 688/5/6
f 687/5/6 686/5/6 688/5/6
f 689/8/6 690/8/6 691/8/6
f 691/8/6 690/8/6 692/8/6
