# MagicaVoxel @ Ephtracy

# group
o 

# material
mtllib Star.mtl
usemtl palette

# normals
vn -1 0 0
vn 1 0 0
vn 0 0 1
vn 0 0 -1
vn 0 -1 0
vn 0 1 0

# texcoords
vt 0.00195313 0.5
vt 0.0136719 0.5
vt 0.0175781 0.5
vt 0.0214844 0.5

# verts
v -2.23517e-08 0 0.1
v -2.23517e-08 0 -2.98023e-08
v -2.23517e-08 0 -0.1
v -2.23517e-08 0.1 0.3
v -2.23517e-08 0.1 0.2
v -2.23517e-08 0.1 0.1
v -2.23517e-08 0.1 -2.98023e-08
v -2.23517e-08 0.1 -0.1
v -2.23517e-08 0.1 -0.2
v -2.23517e-08 0.2 0.3
v -2.23517e-08 0.2 0.2
v -2.23517e-08 0.2 0.1
v -2.23517e-08 0.3 0.3
v -2.23517e-08 0.3 0.2
v -2.23517e-08 0.3 -2.98023e-08
v -2.23517e-08 0.3 -0.1
v -2.23517e-08 0.3 -0.2
v -2.23517e-08 0.4 0.2
v -2.23517e-08 0.4 -2.98023e-08
v -2.23517e-08 0.4 -0.1
v 0.1 0 0.2
v 0.1 0 0.1
v 0.1 0.1 0.2
v 0.1 0.1 0.1
v 0.1 0.3 -0.1
v 0.1 0.3 -0.2
v 0.1 0.4 -0.1
v 0.1 0.4 -0.2
v 0.2 0 0.3
v 0.2 0 0.2
v 0.2 0 -0.1
v 0.2 0 -0.2
v 0.2 0.1 0.3
v 0.2 0.1 0.2
v 0.2 0.1 -0.1
v 0.2 0.1 -0.2
v 0.2 0.3 0.3
v 0.2 0.3 0.2
v 0.2 0.4 0.3
v 0.2 0.4 0.2
v 0.3 0 0.1
v 0.3 0 -2.98023e-08
v 0.3 0.1 0.1
v 0.3 0.1 -2.98023e-08
v 0.2 0 0.1
v 0.2 0 -2.98023e-08
v 0.2 0.1 0.1
v 0.2 0.1 -2.98023e-08
v 0.3 0 -0.1
v 0.3 0 -0.2
v 0.3 0.1 -0.1
v 0.3 0.1 -0.2
v 0.4 0 0.3
v 0.4 0 0.2
v 0.4 0 0.1
v 0.4 0.1 0.3
v 0.4 0.1 0.2
v 0.4 0.1 0.1
v 0.4 0.3 0.3
v 0.4 0.3 0.2
v 0.4 0.3 0.1
v 0.4 0.3 -2.98023e-08
v 0.4 0.3 -0.1
v 0.4 0.3 -0.2
v 0.4 0.4 0.3
v 0.4 0.4 0.2
v 0.4 0.4 0.1
v 0.4 0.4 -2.98023e-08
v 0.4 0.4 -0.1
v 0.4 0.4 -0.2
v 0.5 0 0.1
v 0.5 0 -0.1
v 0.5 0.1 0.3
v 0.5 0.1 0.2
v 0.5 0.1 0.1
v 0.5 0.1 -2.98023e-08
v 0.5 0.1 -0.1
v 0.5 0.1 -0.2
v 0.5 0.2 0.1
v 0.5 0.2 -2.98023e-08
v 0.5 0.2 -0.1
v 0.5 0.2 -0.2
v 0.5 0.3 0.3
v 0.5 0.3 0.2
v 0.5 0.3 0.1
v 0.5 0.3 -2.98023e-08
v 0.5 0.3 -0.1
v 0.5 0.3 -0.2
v 0.5 0.4 0.2
v 0.5 0.4 0.1
v 0.5 0.4 -2.98023e-08
v 0.5 0.4 -0.1
v -2.23517e-08 0.1 0.3
v -2.23517e-08 0.2 0.3
v -2.23517e-08 0.3 0.3
v 0.1 0.1 0.3
v 0.1 0.2 0.3
v 0.1 0.3 0.3
v 0.2 0 0.3
v 0.2 0.1 0.3
v 0.2 0.2 0.3
v 0.2 0.3 0.3
v 0.2 0.4 0.3
v 0.3 0 0.3
v 0.3 0.1 0.3
v 0.3 0.2 0.3
v 0.3 0.3 0.3
v 0.3 0.4 0.3
v 0.4 0 0.3
v 0.4 0.1 0.3
v 0.4 0.3 0.3
v 0.4 0.4 0.3
v 0.5 0.1 0.3
v 0.5 0.3 0.3
v -2.23517e-08 0.3 0.2
v -2.23517e-08 0.4 0.2
v 0.1 0 0.2
v 0.1 0.1 0.2
v 0.1 0.3 0.2
v 0.1 0.4 0.2
v 0.2 0 0.2
v 0.2 0.1 0.2
v 0.2 0.3 0.2
v 0.2 0.4 0.2
v 0.4 0.3 0.2
v 0.4 0.4 0.2
v 0.5 0.3 0.2
v 0.5 0.4 0.2
v -2.23517e-08 0 0.1
v -2.23517e-08 0.1 0.1
v 0.1 0 0.1
v 0.1 0.1 0.1
v 0.4 0 0.1
v 0.4 0.1 0.1
v 0.5 0 0.1
v 0.5 0.1 0.1
v 0.2 0 -2.98023e-08
v 0.2 0.1 -2.98023e-08
v 0.3 0 -2.98023e-08
v 0.3 0.1 -2.98023e-08
v 0.4 0.3 -2.98023e-08
v 0.4 0.4 -2.98023e-08
v 0.5 0.3 -2.98023e-08
v 0.5 0.4 -2.98023e-08
v 0.2 0 0.1
v 0.2 0.1 0.1
v 0.3 0 0.1
v 0.3 0.1 0.1
v 0.4 0.3 0.1
v 0.4 0.4 0.1
v 0.5 0.3 0.1
v 0.5 0.4 0.1
v -2.23517e-08 0 -0.1
v -2.23517e-08 0.1 -0.1
v -2.23517e-08 0.3 -0.1
v -2.23517e-08 0.4 -0.1
v 0.1 0 -0.1
v 0.1 0.1 -0.1
v 0.1 0.3 -0.1
v 0.1 0.4 -0.1
v 0.2 0 -0.1
v 0.2 0.1 -0.1
v 0.3 0 -0.1
v 0.3 0.1 -0.1
v 0.4 0 -0.1
v 0.4 0.1 -0.1
v 0.4 0.3 -0.1
v 0.4 0.4 -0.1
v 0.5 0 -0.1
v 0.5 0.1 -0.1
v 0.5 0.3 -0.1
v 0.5 0.4 -0.1
v -2.23517e-08 0.1 -0.2
v -2.23517e-08 0.3 -0.2
v 0.1 0.1 -0.2
v 0.1 0.3 -0.2
v 0.1 0.4 -0.2
v 0.2 0 -0.2
v 0.2 0.1 -0.2
v 0.3 0 -0.2
v 0.3 0.1 -0.2
v 0.3 0.2 -0.2
v 0.3 0.3 -0.2
v 0.3 0.4 -0.2
v 0.4 0.1 -0.2
v 0.4 0.2 -0.2
v 0.4 0.3 -0.2
v 0.4 0.4 -0.2
v 0.5 0.1 -0.2
v 0.5 0.2 -0.2
v 0.5 0.3 -0.2
v 0.2 0 0.3
v 0.3 0 0.3
v 0.4 0 0.3
v 0.1 0 0.2
v 0.2 0 0.2
v 0.3 0 0.2
v 0.4 0 0.2
v -2.23517e-08 0 0.1
v 0.1 0 0.1
v 0.2 0 0.1
v 0.3 0 0.1
v 0.4 0 0.1
v 0.5 0 0.1
v -2.23517e-08 0 -2.98023e-08
v 0.1 0 -2.98023e-08
v 0.2 0 -2.98023e-08
v 0.3 0 -2.98023e-08
v 0.4 0 -2.98023e-08
v -2.23517e-08 0 -0.1
v 0.1 0 -0.1
v 0.2 0 -0.1
v 0.3 0 -0.1
v 0.4 0 -0.1
v 0.5 0 -0.1
v 0.2 0 -0.2
v 0.3 0 -0.2
v -2.23517e-08 0.1 0.3
v 0.1 0.1 0.3
v 0.2 0.1 0.3
v 0.4 0.1 0.3
v 0.5 0.1 0.3
v -2.23517e-08 0.1 0.2
v 0.1 0.1 0.2
v 0.2 0.1 0.2
v 0.4 0.1 0.2
v 0.5 0.1 0.2
v -2.23517e-08 0.1 0.1
v 0.1 0.1 0.1
v 0.2 0.1 0.1
v 0.3 0.1 0.1
v 0.4 0.1 0.1
v 0.5 0.1 0.1
v 0.2 0.1 -2.98023e-08
v 0.3 0.1 -2.98023e-08
v -2.23517e-08 0.1 -0.1
v 0.1 0.1 -0.1
v 0.2 0.1 -0.1
v 0.3 0.1 -0.1
v 0.4 0.1 -0.1
v 0.5 0.1 -0.1
v -2.23517e-08 0.1 -0.2
v 0.1 0.1 -0.2
v 0.2 0.1 -0.2
v 0.3 0.1 -0.2
v 0.4 0.1 -0.2
v 0.5 0.1 -0.2
v -2.23517e-08 0.3 0.3
v 0.1 0.3 0.3
v 0.2 0.3 0.3
v 0.4 0.3 0.3
v 0.5 0.3 0.3
v -2.23517e-08 0.3 0.2
v 0.1 0.3 0.2
v 0.2 0.3 0.2
v 0.4 0.3 0.2
v 0.5 0.3 0.2
v 0.4 0.3 0.1
v 0.5 0.3 0.1
v 0.4 0.3 -2.98023e-08
v 0.5 0.3 -2.98023e-08
v -2.23517e-08 0.3 -0.1
v 0.1 0.3 -0.1
v 0.4 0.3 -0.1
v 0.5 0.3 -0.1
v -2.23517e-08 0.3 -0.2
v 0.1 0.3 -0.2
v 0.4 0.3 -0.2
v 0.5 0.3 -0.2
v 0.2 0.4 0.3
v 0.3 0.4 0.3
v 0.4 0.4 0.3
v -2.23517e-08 0.4 0.2
v 0.1 0.4 0.2
v 0.2 0.4 0.2
v 0.4 0.4 0.2
v 0.5 0.4 0.2
v 0.1 0.4 0.1
v 0.2 0.4 0.1
v 0.3 0.4 0.1
v 0.4 0.4 0.1
v 0.5 0.4 0.1
v -2.23517e-08 0.4 -2.98023e-08
v 0.1 0.4 -2.98023e-08
v 0.2 0.4 -2.98023e-08
v 0.4 0.4 -2.98023e-08
v 0.5 0.4 -2.98023e-08
v -2.23517e-08 0.4 -0.1
v 0.1 0.4 -0.1
v 0.3 0.4 -0.1
v 0.4 0.4 -0.1
v 0.5 0.4 -0.1
v 0.1 0.4 -0.2
v 0.3 0.4 -0.2
v 0.4 0.4 -0.2

# faces
f 6/2/1 2/2/1 1/2/1
f 7/4/1 3/4/1 2/4/1
f 7/2/1 2/2/1 6/2/1
f 8/4/1 3/4/1 7/4/1
f 10/4/1 5/4/1 4/4/1
f 11/1/1 6/1/1 5/1/1
f 11/4/1 5/4/1 10/4/1
f 12/4/1 7/4/1 6/4/1
f 12/1/1 6/1/1 11/1/1
f 12/4/1 8/4/1 7/4/1
f 13/2/1 11/2/1 10/2/1
f 14/4/1 12/4/1 11/4/1
f 14/2/1 11/2/1 13/2/1
f 15/4/1 8/4/1 12/4/1
f 15/4/1 12/4/1 14/4/1
f 16/2/1 9/2/1 8/2/1
f 16/4/1 8/4/1 15/4/1
f 17/2/1 9/2/1 16/2/1
f 18/4/1 15/4/1 14/4/1
f 19/3/1 16/3/1 15/3/1
f 19/4/1 15/4/1 18/4/1
f 20/3/1 16/3/1 19/3/1
f 23/4/1 22/4/1 21/4/1
f 24/4/1 22/4/1 23/4/1
f 27/4/1 26/4/1 25/4/1
f 28/4/1 26/4/1 27/4/1
f 33/4/1 30/4/1 29/4/1
f 34/4/1 30/4/1 33/4/1
f 35/2/1 32/2/1 31/2/1
f 36/2/1 32/2/1 35/2/1
f 39/4/1 38/4/1 37/4/1
f 40/4/1 38/4/1 39/4/1
f 43/2/1 42/2/1 41/2/1
f 44/2/1 42/2/1 43/2/1
f 45/4/2 46/4/2 47/4/2
f 47/4/2 46/4/2 48/4/2
f 49/2/2 50/2/2 51/2/2
f 51/2/2 50/2/2 52/2/2
f 53/2/2 54/2/2 56/2/2
f 54/4/2 55/4/2 57/4/2
f 56/2/2 54/2/2 57/2/2
f 57/4/2 55/4/2 58/4/2
f 59/2/2 60/2/2 65/2/2
f 65/2/2 60/2/2 66/2/2
f 61/4/2 62/4/2 67/4/2
f 67/4/2 62/4/2 68/4/2
f 63/3/2 64/3/2 69/3/2
f 69/3/2 64/3/2 70/3/2
f 71/4/2 72/4/2 75/4/2
f 75/4/2 72/4/2 76/4/2
f 76/4/2 72/4/2 77/4/2
f 74/4/2 75/4/2 79/4/2
f 75/1/2 76/1/2 79/1/2
f 76/2/2 77/2/2 80/2/2
f 79/1/2 76/1/2 80/1/2
f 77/4/2 78/4/2 81/4/2
f 80/2/2 77/2/2 81/2/2
f 81/4/2 78/4/2 82/4/2
f 73/2/2 74/2/2 83/2/2
f 79/4/2 80/4/2 84/4/2
f 83/2/2 74/2/2 84/2/2
f 74/4/2 79/4/2 84/4/2
f 80/4/2 81/4/2 84/4/2
f 84/4/2 81/4/2 85/4/2
f 85/4/2 81/4/2 86/4/2
f 81/2/2 82/2/2 87/2/2
f 86/4/2 81/4/2 87/4/2
f 87/2/2 82/2/2 88/2/2
f 84/2/2 85/2/2 89/2/2
f 89/2/2 85/2/2 90/2/2
f 86/4/2 87/4/2 91/4/2
f 91/4/2 87/4/2 92/4/2
f 96/4/3 94/4/3 93/4/3
f 97/2/3 95/2/3 94/2/3
f 97/4/3 94/4/3 96/4/3
f 98/2/3 95/2/3 97/2/3
f 100/2/3 97/2/3 96/2/3
f 101/4/3 98/4/3 97/4/3
f 101/2/3 97/2/3 100/2/3
f 102/4/3 98/4/3 101/4/3
f 104/4/3 100/4/3 99/4/3
f 104/4/3 101/4/3 100/4/3
f 105/4/3 101/4/3 104/4/3
f 106/1/3 102/1/3 101/1/3
f 106/4/3 101/4/3 105/4/3
f 107/4/3 103/4/3 102/4/3
f 107/1/3 102/1/3 106/1/3
f 108/4/3 103/4/3 107/4/3
f 109/2/3 105/2/3 104/2/3
f 110/4/3 106/4/3 105/4/3
f 110/2/3 105/2/3 109/2/3
f 110/4/3 107/4/3 106/4/3
f 111/2/3 108/2/3 107/2/3
f 111/4/3 107/4/3 110/4/3
f 112/2/3 108/2/3 111/2/3
f 113/2/3 111/2/3 110/2/3
f 114/2/3 111/2/3 113/2/3
f 119/4/3 116/4/3 115/4/3
f 120/4/3 116/4/3 119/4/3
f 121/4/3 118/4/3 117/4/3
f 122/4/3 118/4/3 121/4/3
f 123/2/3 120/2/3 119/2/3
f 124/2/3 120/2/3 123/2/3
f 127/2/3 126/2/3 125/2/3
f 128/2/3 126/2/3 127/2/3
f 131/2/3 130/2/3 129/2/3
f 132/2/3 130/2/3 131/2/3
f 135/4/3 134/4/3 133/4/3
f 136/4/3 134/4/3 135/4/3
f 139/4/3 138/4/3 137/4/3
f 140/4/3 138/4/3 139/4/3
f 143/4/3 142/4/3 141/4/3
f 144/4/3 142/4/3 143/4/3
f 145/2/4 146/2/4 147/2/4
f 147/2/4 146/2/4 148/2/4
f 149/2/4 150/2/4 151/2/4
f 151/2/4 150/2/4 152/2/4
f 153/4/4 154/4/4 157/4/4
f 157/4/4 154/4/4 158/4/4
f 155/3/4 156/3/4 159/3/4
f 159/3/4 156/3/4 160/3/4
f 157/2/4 158/2/4 161/2/4
f 161/2/4 158/2/4 162/2/4
f 163/1/4 164/1/4 165/1/4
f 165/1/4 164/1/4 166/1/4
f 165/4/4 166/4/4 169/4/4
f 169/4/4 166/4/4 170/4/4
f 167/4/4 168/4/4 171/4/4
f 171/4/4 168/4/4 172/4/4
f 173/2/4 174/2/4 175/2/4
f 175/2/4 174/2/4 176/2/4
f 175/4/4 176/4/4 179/4/4
f 176/4/4 177/4/4 179/4/4
f 178/2/4 179/2/4 180/2/4
f 179/4/4 177/4/4 181/4/4
f 180/2/4 179/2/4 181/2/4
f 181/4/4 177/4/4 182/4/4
f 182/4/4 177/4/4 183/4/4
f 183/4/4 177/4/4 184/4/4
f 181/2/4 182/2/4 185/2/4
f 182/4/4 183/4/4 186/4/4
f 185/2/4 182/2/4 186/2/4
f 183/3/4 184/3/4 187/3/4
f 186/4/4 183/4/4 187/4/4
f 187/3/4 184/3/4 188/3/4
f 185/4/4 186/4/4 189/4/4
f 186/2/4 187/2/4 190/2/4
f 189/4/4 186/4/4 190/4/4
f 190/2/4 187/2/4 191/2/4
f 196/4/5 193/4/5 192/4/5
f 197/2/5 194/2/5 193/2/5
f 197/4/5 193/4/5 196/4/5
f 198/2/5 194/2/5 197/2/5
f 200/4/5 196/4/5 195/4/5
f 201/2/5 197/2/5 196/2/5
f 201/4/5 196/4/5 200/4/5
f 202/4/5 198/4/5 197/4/5
f 202/2/5 197/2/5 201/2/5
f 203/4/5 198/4/5 202/4/5
f 205/2/5 200/2/5 199/2/5
f 206/4/5 201/4/5 200/4/5
f 206/2/5 200/2/5 205/2/5
f 207/4/5 201/4/5 206/4/5
f 208/2/5 203/2/5 202/2/5
f 209/4/5 204/4/5 203/4/5
f 209/2/5 203/2/5 208/2/5
f 210/4/5 206/4/5 205/4/5
f 211/2/5 207/2/5 206/2/5
f 211/4/5 206/4/5 210/4/5
f 212/4/5 208/4/5 207/4/5
f 212/2/5 207/2/5 211/2/5
f 213/1/5 209/1/5 208/1/5
f 213/4/5 208/4/5 212/4/5
f 214/4/5 204/4/5 209/4/5
f 214/1/5 209/1/5 213/1/5
f 215/4/5 204/4/5 214/4/5
f 216/2/5 213/2/5 212/2/5
f 217/2/5 213/2/5 216/2/5
f 223/4/5 219/4/5 218/4/5
f 224/2/5 220/2/5 219/2/5
f 224/4/5 219/4/5 223/4/5
f 225/2/5 220/2/5 224/2/5
f 226/2/5 222/2/5 221/2/5
f 227/2/5 222/2/5 226/2/5
f 228/1/5 224/1/5 223/1/5
f 229/1/5 224/1/5 228/1/5
f 232/4/5 227/4/5 226/4/5
f 233/4/5 227/4/5 232/4/5
f 234/4/5 231/4/5 230/4/5
f 235/4/5 231/4/5 234/4/5
f 242/2/5 237/2/5 236/2/5
f 243/4/5 238/4/5 237/4/5
f 243/2/5 237/2/5 242/2/5
f 244/4/5 238/4/5 243/4/5
f 245/2/5 240/2/5 239/2/5
f 246/4/5 241/4/5 240/4/5
f 246/2/5 240/2/5 245/2/5
f 247/4/5 241/4/5 246/4/5
f 248/2/6 249/2/6 253/2/6
f 249/4/6 250/4/6 254/4/6
f 253/2/6 249/2/6 254/2/6
f 254/4/6 250/4/6 255/4/6
f 251/2/6 252/2/6 256/2/6
f 256/2/6 252/2/6 257/2/6
f 258/4/6 259/4/6 260/4/6
f 260/4/6 259/4/6 261/4/6
f 262/2/6 263/2/6 266/2/6
f 266/2/6 263/2/6 267/2/6
f 264/2/6 265/2/6 268/2/6
f 268/2/6 265/2/6 269/2/6
f 270/4/6 271/4/6 275/4/6
f 271/2/6 272/2/6 276/2/6
f 273/4/6 274/4/6 278/4/6
f 274/2/6 275/2/6 278/2/6
f 275/4/6 271/4/6 279/4/6
f 278/2/6 275/2/6 279/2/6
f 276/2/6 277/2/6 280/2/6
f 279/4/6 271/4/6 280/4/6
f 271/2/6 276/2/6 280/2/6
f 280/2/6 277/2/6 281/2/6
f 281/2/6 277/2/6 282/2/6
f 273/4/6 278/4/6 283/4/6
f 278/1/6 279/1/6 284/1/6
f 283/4/6 278/4/6 284/4/6
f 279/4/6 280/4/6 285/4/6
f 284/1/6 279/1/6 285/1/6
f 280/4/6 281/4/6 285/4/6
f 285/4/6 281/4/6 286/4/6
f 283/3/6 284/3/6 288/3/6
f 286/4/6 287/4/6 289/4/6
f 288/3/6 284/3/6 289/3/6
f 284/4/6 285/4/6 289/4/6
f 285/4/6 286/4/6 289/4/6
f 289/4/6 287/4/6 290/4/6
f 290/4/6 287/4/6 291/4/6
f 291/4/6 287/4/6 292/4/6
f 289/4/6 290/4/6 293/4/6
f 290/3/6 291/3/6 294/3/6
f 293/4/6 290/4/6 294/4/6
f 294/3/6 291/3/6 295/3/6
