# MagicaVoxel @ Ephtracy

# group
o 

# material
mtllib MarsTile.mtl
usemtl palette

# normals
vn -1 0 0
vn 1 0 0
vn 0 0 1
vn 0 0 -1
vn 0 -1 0
vn 0 1 0

# texcoords
vt 0.0605469 0.5
vt 0.0917969 0.5
vt 0.228516 0.5
vt 0.251953 0.5
vt 0.392578 0.5
vt 0.533203 0.5

# verts
v -2 0 2
v -2 0 -2
v -2 0.1 2
v -2 0.1 -2
v -1.9 0.1 1.9
v -1.9 0.1 -1.9
v -1.9 0.2 1.9
v -1.9 0.2 -1.9
v -1.4 0.2 0.3
v -1.4 0.2 -2.38419e-07
v -1.4 0.3 0.3
v -1.4 0.3 -2.38419e-07
v -1.3 0.3 0.3
v -1.3 0.3 0.0999999
v -1.3 0.4 0.3
v -1.3 0.4 0.0999999
v -1 0.2 1.2
v -1 0.2 1.1
v -1 0.3 1.2
v -1 0.3 1.1
v -0.9 0.2 1.1
v -0.9 0.2 1
v -0.9 0.3 1.1
v -0.9 0.3 1
v -0.8 0.1 -0.6
v -0.8 0.1 -0.7
v -0.8 0.1 -1.2
v -0.8 0.1 -1.3
v -0.8 0.2 -0.6
v -0.8 0.2 -0.7
v -0.8 0.2 -1.2
v -0.8 0.2 -1.3
v -0.7 0.1 -0.7
v -0.7 0.1 -0.8
v -0.7 0.1 -1.1
v -0.7 0.1 -1.2
v -0.7 0.2 -0.7
v -0.7 0.2 -0.8
v -0.7 0.2 -1.1
v -0.7 0.2 -1.2
v -0.6 0.1 -0.8
v -0.6 0.1 -1.1
v -0.6 0.2 -0.8
v -0.6 0.2 -1.1
v 0.3 0.1 0.9
v 0.3 0.1 0.8
v 0.3 0.1 0.3
v 0.3 0.1 0.2
v 0.3 0.2 0.9
v 0.3 0.2 0.8
v 0.3 0.2 0.3
v 0.3 0.2 0.2
v 0.4 0.1 0.8
v 0.4 0.1 0.7
v 0.4 0.1 0.4
v 0.4 0.1 0.3
v 0.4 0.2 0.8
v 0.4 0.2 0.7
v 0.4 0.2 0.4
v 0.4 0.2 0.3
v 0.5 0.1 0.7
v 0.5 0.1 0.4
v 0.5 0.2 0.7
v 0.5 0.2 0.4
v 1.2 0.1 1
v 1.2 0.1 0.9
v 1.2 0.2 1
v 1.2 0.2 0.9
v 1.3 0.1 1.5
v 1.3 0.1 1.4
v 1.3 0.1 1.1
v 1.3 0.1 1
v 1.3 0.1 -0.6
v 1.3 0.1 -0.7
v 1.3 0.2 1.5
v 1.3 0.2 1.4
v 1.3 0.2 1.1
v 1.3 0.2 1
v 1.3 0.2 -0.6
v 1.3 0.2 -0.7
v 1.4 0.1 1.4
v 1.4 0.1 1.1
v 1.4 0.1 -1.5
v 1.4 0.1 -1.6
v 1.4 0.2 1.4
v 1.4 0.2 1.1
v 1.4 0.2 0.4
v 1.4 0.2 0.0999999
v 1.4 0.2 -1.5
v 1.4 0.2 -1.6
v 1.4 0.3 0.4
v 1.4 0.3 0.0999999
v 1.5 0.1 -0.7
v 1.5 0.1 -0.8
v 1.5 0.1 -1.4
v 1.5 0.1 -1.5
v 1.5 0.2 -0.7
v 1.5 0.2 -0.8
v 1.5 0.2 -1.4
v 1.5 0.2 -1.5
v 1.5 0.3 0.4
v 1.5 0.3 0.2
v 1.5 0.4 0.4
v 1.5 0.4 0.2
v 1.6 0.1 -0.8
v 1.6 0.1 -1.4
v 1.6 0.2 -0.8
v 1.6 0.2 -1.4
v -1.2 0.1 -0.8
v -1.2 0.1 -1.1
v -1.2 0.2 -0.8
v -1.2 0.2 -1.1
v -1.1 0.1 -0.7
v -1.1 0.1 -0.8
v -1.1 0.1 -1.1
v -1.1 0.1 -1.2
v -1.1 0.2 0.3
v -1.1 0.2 -2.38419e-07
v -1.1 0.2 -0.7
v -1.1 0.2 -0.8
v -1.1 0.2 -1.1
v -1.1 0.2 -1.2
v -1.1 0.3 0.0999999
v -1.1 0.3 -2.38419e-07
v -1.1 0.4 0.3
v -1.1 0.4 0.0999999
v -1 0.1 -0.6
v -1 0.1 -0.7
v -1 0.1 -1.2
v -1 0.1 -1.3
v -1 0.2 -0.6
v -1 0.2 -0.7
v -1 0.2 -1.2
v -1 0.2 -1.3
v -0.8 0.2 1.2
v -0.8 0.2 1
v -0.8 0.3 1.2
v -0.8 0.3 1
v -0.2 0.1 0.8
v -0.2 0.1 0.4
v -0.2 0.2 0.8
v -0.2 0.2 0.4
v -0.0999999 0.1 0.9
v -0.0999999 0.1 0.8
v -0.0999999 0.1 0.4
v -0.0999999 0.1 0.3
v -0.0999999 0.2 0.9
v -0.0999999 0.2 0.8
v -0.0999999 0.2 0.4
v -0.0999999 0.2 0.3
v 2.38419e-07 0.1 0.3
v 2.38419e-07 0.1 0.2
v 2.38419e-07 0.2 0.3
v 2.38419e-07 0.2 0.2
v 0.7 0.1 -0.8
v 0.7 0.1 -1.4
v 0.7 0.2 -0.8
v 0.7 0.2 -1.4
v 0.8 0.1 -0.7
v 0.8 0.1 -0.8
v 0.8 0.1 -1.4
v 0.8 0.1 -1.5
v 0.8 0.2 -0.7
v 0.8 0.2 -0.8
v 0.8 0.2 -1.4
v 0.8 0.2 -1.5
v 0.9 0.1 1.3
v 0.9 0.1 1.1
v 0.9 0.1 -0.6
v 0.9 0.1 -0.7
v 0.9 0.1 -1.5
v 0.9 0.1 -1.6
v 0.9 0.2 1.3
v 0.9 0.2 1.1
v 0.9 0.2 -0.6
v 0.9 0.2 -0.7
v 0.9 0.2 -1.5
v 0.9 0.2 -1.6
v 1 0.1 1.4
v 1 0.1 1.3
v 1 0.1 1.1
v 1 0.1 1
v 1 0.2 1.4
v 1 0.2 1.3
v 1 0.2 1.1
v 1 0.2 1
v 1.1 0.1 1.5
v 1.1 0.1 1.4
v 1.1 0.1 1
v 1.1 0.1 0.9
v 1.1 0.2 1.5
v 1.1 0.2 1.4
v 1.1 0.2 1
v 1.1 0.2 0.9
v 1.7 0.2 0.4
v 1.7 0.2 0.0999999
v 1.7 0.3 0.2
v 1.7 0.3 0.0999999
v 1.7 0.4 0.4
v 1.7 0.4 0.2
v 1.9 0.1 1.9
v 1.9 0.1 -1.9
v 1.9 0.2 1.9
v 1.9 0.2 -1.9
v 2 0 2
v 2 0 -2
v 2 0.1 2
v 2 0.1 -2
v -2 0 2
v -2 0.1 2
v 2 0 2
v 2 0.1 2
v -1.9 0.1 1.9
v -1.9 0.2 1.9
v 1.9 0.1 1.9
v 1.9 0.2 1.9
v -1 0.2 1.2
v -1 0.3 1.2
v -0.8 0.2 1.2
v -0.8 0.3 1.2
v 0.9 0.1 1.1
v 0.9 0.2 1.1
v 1 0.1 1.1
v 1 0.2 1.1
v 1.3 0.1 1.1
v 1.3 0.2 1.1
v 1.4 0.1 1.1
v 1.4 0.2 1.1
v 1 0.1 1
v 1 0.2 1
v 1.1 0.1 1
v 1.1 0.2 1
v 1.2 0.1 1
v 1.2 0.2 1
v 1.3 0.1 1
v 1.3 0.2 1
v 1.1 0.1 0.9
v 1.1 0.2 0.9
v 1.2 0.1 0.9
v 1.2 0.2 0.9
v -0.2 0.1 0.4
v -0.2 0.2 0.4
v -0.0999999 0.1 0.4
v -0.0999999 0.2 0.4
v 0.4 0.1 0.4
v 0.4 0.2 0.4
v 0.5 0.1 0.4
v 0.5 0.2 0.4
v 1.4 0.2 0.4
v 1.4 0.3 0.4
v 1.5 0.3 0.4
v 1.5 0.4 0.4
v 1.7 0.2 0.4
v 1.7 0.4 0.4
v -1.4 0.2 0.3
v -1.4 0.3 0.3
v -1.3 0.3 0.3
v -1.3 0.4 0.3
v -1.1 0.2 0.3
v -1.1 0.4 0.3
v -0.0999999 0.1 0.3
v -0.0999999 0.2 0.3
v 2.38419e-07 0.1 0.3
v 2.38419e-07 0.2 0.3
v 0.3 0.1 0.3
v 0.3 0.2 0.3
v 0.4 0.1 0.3
v 0.4 0.2 0.3
v 2.38419e-07 0.1 0.2
v 2.38419e-07 0.2 0.2
v 0.3 0.1 0.2
v 0.3 0.2 0.2
v -1.2 0.1 -1.1
v -1.2 0.2 -1.1
v -1.1 0.1 -1.1
v -1.1 0.2 -1.1
v -0.7 0.1 -1.1
v -0.7 0.2 -1.1
v -0.6 0.1 -1.1
v -0.6 0.2 -1.1
v -1.1 0.1 -1.2
v -1.1 0.2 -1.2
v -1 0.1 -1.2
v -1 0.2 -1.2
v -0.8 0.1 -1.2
v -0.8 0.2 -1.2
v -0.7 0.1 -1.2
v -0.7 0.2 -1.2
v -1 0.1 -1.3
v -1 0.2 -1.3
v -0.8 0.1 -1.3
v -0.8 0.2 -1.3
v 0.7 0.1 -1.4
v 0.7 0.2 -1.4
v 0.8 0.1 -1.4
v 0.8 0.2 -1.4
v 1.5 0.1 -1.4
v 1.5 0.2 -1.4
v 1.6 0.1 -1.4
v 1.6 0.2 -1.4
v 0.8 0.1 -1.5
v 0.8 0.2 -1.5
v 0.9 0.1 -1.5
v 0.9 0.2 -1.5
v 1.4 0.1 -1.5
v 1.4 0.2 -1.5
v 1.5 0.1 -1.5
v 1.5 0.2 -1.5
v 0.9 0.1 -1.6
v 0.9 0.2 -1.6
v 1.4 0.1 -1.6
v 1.4 0.2 -1.6
v 1.1 0.1 1.5
v 1.1 0.2 1.5
v 1.3 0.1 1.5
v 1.3 0.2 1.5
v 1 0.1 1.4
v 1 0.2 1.4
v 1.1 0.1 1.4
v 1.1 0.2 1.4
v 1.3 0.1 1.4
v 1.3 0.2 1.4
v 1.4 0.1 1.4
v 1.4 0.2 1.4
v 0.9 0.1 1.3
v 0.9 0.2 1.3
v 1 0.1 1.3
v 1 0.2 1.3
v -1 0.2 1.1
v -1 0.3 1.1
v -0.9 0.2 1.1
v -0.9 0.3 1.1
v -0.9 0.2 1
v -0.9 0.3 1
v -0.8 0.2 1
v -0.8 0.3 1
v -0.0999999 0.1 0.9
v -0.0999999 0.2 0.9
v 0.3 0.1 0.9
v 0.3 0.2 0.9
v -0.2 0.1 0.8
v -0.2 0.2 0.8
v -0.0999999 0.1 0.8
v -0.0999999 0.2 0.8
v 0.3 0.1 0.8
v 0.3 0.2 0.8
v 0.4 0.1 0.8
v 0.4 0.2 0.8
v 0.4 0.1 0.7
v 0.4 0.2 0.7
v 0.5 0.1 0.7
v 0.5 0.2 0.7
v 1.5 0.3 0.2
v 1.5 0.4 0.2
v 1.7 0.3 0.2
v 1.7 0.4 0.2
v -1.3 0.3 0.0999999
v -1.3 0.4 0.0999999
v -1.1 0.3 0.0999999
v -1.1 0.4 0.0999999
v 1.4 0.2 0.0999999
v 1.4 0.3 0.0999999
v 1.7 0.2 0.0999999
v 1.7 0.3 0.0999999
v -1.4 0.2 -2.38419e-07
v -1.4 0.3 -2.38419e-07
v -1.1 0.2 -2.38419e-07
v -1.1 0.3 -2.38419e-07
v -1 0.1 -0.6
v -1 0.2 -0.6
v -0.8 0.1 -0.6
v -0.8 0.2 -0.6
v 0.9 0.1 -0.6
v 0.9 0.2 -0.6
v 1.3 0.1 -0.6
v 1.3 0.2 -0.6
v -1.1 0.1 -0.7
v -1.1 0.2 -0.7
v -1 0.1 -0.7
v -1 0.2 -0.7
v -0.8 0.1 -0.7
v -0.8 0.2 -0.7
v -0.7 0.1 -0.7
v -0.7 0.2 -0.7
v 0.8 0.1 -0.7
v 0.8 0.2 -0.7
v 0.9 0.1 -0.7
v 0.9 0.2 -0.7
v 1.3 0.1 -0.7
v 1.3 0.2 -0.7
v 1.5 0.1 -0.7
v 1.5 0.2 -0.7
v -1.2 0.1 -0.8
v -1.2 0.2 -0.8
v -1.1 0.1 -0.8
v -1.1 0.2 -0.8
v -0.7 0.1 -0.8
v -0.7 0.2 -0.8
v -0.6 0.1 -0.8
v -0.6 0.2 -0.8
v 0.7 0.1 -0.8
v 0.7 0.2 -0.8
v 0.8 0.1 -0.8
v 0.8 0.2 -0.8
v 1.5 0.1 -0.8
v 1.5 0.2 -0.8
v 1.6 0.1 -0.8
v 1.6 0.2 -0.8
v -1.9 0.1 -1.9
v -1.9 0.2 -1.9
v 1.9 0.1 -1.9
v 1.9 0.2 -1.9
v -2 0 -2
v -2 0.1 -2
v 2 0 -2
v 2 0.1 -2
v -2 0 2
v 2 0 2
v -1.9 0 1.9
v 1.9 0 1.9
v -1.9 0 -1.9
v 1.9 0 -1.9
v -2 0 -2
v 2 0 -2
v -2 0.1 2
v 2 0.1 2
v -1.9 0.1 1.9
v 1.9 0.1 1.9
v 1.1 0.1 1.5
v 1.3 0.1 1.5
v 1 0.1 1.4
v 1.1 0.1 1.4
v 1.3 0.1 1.4
v 1.4 0.1 1.4
v 0.9 0.1 1.3
v 1 0.1 1.3
v 0.9 0.1 1.1
v 1 0.1 1.1
v 1.3 0.1 1.1
v 1.4 0.1 1.1
v 1 0.1 1
v 1.1 0.1 1
v 1.2 0.1 1
v 1.3 0.1 1
v -0.0999999 0.1 0.9
v 0.3 0.1 0.9
v 1.1 0.1 0.9
v 1.2 0.1 0.9
v -0.2 0.1 0.8
v -0.0999999 0.1 0.8
v 0.3 0.1 0.8
v 0.4 0.1 0.8
v 0.4 0.1 0.7
v 0.5 0.1 0.7
v -0.2 0.1 0.4
v -0.0999999 0.1 0.4
v 0.4 0.1 0.4
v 0.5 0.1 0.4
v -0.0999999 0.1 0.3
v 2.38419e-07 0.1 0.3
v 0.3 0.1 0.3
v 0.4 0.1 0.3
v 2.38419e-07 0.1 0.2
v 0.3 0.1 0.2
v -1 0.1 -0.6
v -0.8 0.1 -0.6
v 0.9 0.1 -0.6
v 1.3 0.1 -0.6
v -1.1 0.1 -0.7
v -1 0.1 -0.7
v -0.8 0.1 -0.7
v -0.7 0.1 -0.7
v 0.8 0.1 -0.7
v 0.9 0.1 -0.7
v 1.3 0.1 -0.7
v 1.5 0.1 -0.7
v -1.2 0.1 -0.8
v -1.1 0.1 -0.8
v -0.7 0.1 -0.8
v -0.6 0.1 -0.8
v 0.7 0.1 -0.8
v 0.8 0.1 -0.8
v 1.5 0.1 -0.8
v 1.6 0.1 -0.8
v -1.2 0.1 -1.1
v -1.1 0.1 -1.1
v -0.7 0.1 -1.1
v -0.6 0.1 -1.1
v -1.1 0.1 -1.2
v -1 0.1 -1.2
v -0.8 0.1 -1.2
v -0.7 0.1 -1.2
v -1 0.1 -1.3
v -0.8 0.1 -1.3
v 0.7 0.1 -1.4
v 0.8 0.1 -1.4
v 1.5 0.1 -1.4
v 1.6 0.1 -1.4
v 0.8 0.1 -1.5
v 0.9 0.1 -1.5
v 1.4 0.1 -1.5
v 1.5 0.1 -1.5
v 0.9 0.1 -1.6
v 1.4 0.1 -1.6
v -1.9 0.1 -1.9
v 1.9 0.1 -1.9
v -2 0.1 -2
v 2 0.1 -2
v -1.9 0.2 1.9
v 1.9 0.2 1.9
v -0.5 0.2 1.7
v -0.2 0.2 1.7
v 0.2 0.2 1.6
v 0.4 0.2 1.6
v 1.1 0.2 1.5
v 1.3 0.2 1.5
v -0.5 0.2 1.4
v -0.2 0.2 1.4
v 0.2 0.2 1.4
v 0.4 0.2 1.4
v 1 0.2 1.4
v 1.1 0.2 1.4
v 1.3 0.2 1.4
v 1.4 0.2 1.4
v 0.9 0.2 1.3
v 1 0.2 1.3
v -1 0.2 1.2
v -0.8 0.2 1.2
v -1 0.2 1.1
v -0.9 0.2 1.1
v 0.9 0.2 1.1
v 1 0.2 1.1
v 1.3 0.2 1.1
v 1.4 0.2 1.1
v -1.5 0.2 1
v -1.3 0.2 1
v -0.9 0.2 1
v -0.8 0.2 1
v 1 0.2 1
v 1.1 0.2 1
v 1.2 0.2 1
v 1.3 0.2 1
v -0.0999999 0.2 0.9
v 0.3 0.2 0.9
v 1.1 0.2 0.9
v 1.2 0.2 0.9
v -1.5 0.2 0.8
v -1.3 0.2 0.8
v -0.2 0.2 0.8
v -0.0999999 0.2 0.8
v 0.3 0.2 0.8
v 0.4 0.2 0.8
v -0.8 0.2 0.7
v -0.5 0.2 0.7
v 0.4 0.2 0.7
v 0.5 0.2 0.7
v -0.8 0.2 0.5
v -0.7 0.2 0.5
v -0.7 0.2 0.4
v -0.5 0.2 0.4
v -0.2 0.2 0.4
v -0.0999999 0.2 0.4
v 0.4 0.2 0.4
v 0.5 0.2 0.4
v 1.4 0.2 0.4
v 1.7 0.2 0.4
v -1.4 0.2 0.3
v -1.1 0.2 0.3
v -0.0999999 0.2 0.3
v 2.38419e-07 0.2 0.3
v 0.3 0.2 0.3
v 0.4 0.2 0.3
v 2.38419e-07 0.2 0.2
v 0.3 0.2 0.2
v 1.4 0.2 0.0999999
v 1.7 0.2 0.0999999
v -1.4 0.2 -2.38419e-07
v -1.1 0.2 -2.38419e-07
v 0.9 0.2 -2.38419e-07
v 1.1 0.2 -2.38419e-07
v -1.1 0.2 -0.2
v -0.9 0.2 -0.2
v 0.9 0.2 -0.2
v 1.1 0.2 -0.2
v -1.6 0.2 -0.4
v -1.4 0.2 -0.4
v -1.1 0.2 -0.4
v -0.9 0.2 -0.4
v -1.4 0.2 -0.5
v -1.3 0.2 -0.5
v 0.1 0.2 -0.5
v 0.4 0.2 -0.5
v -1 0.2 -0.6
v -0.8 0.2 -0.6
v 0.9 0.2 -0.6
v 1.3 0.2 -0.6
v -1.6 0.2 -0.7
v -1.3 0.2 -0.7
v -1.1 0.2 -0.7
v -1 0.2 -0.7
v -0.8 0.2 -0.7
v -0.7 0.2 -0.7
v 0.1 0.2 -0.7
v 0.2 0.2 -0.7
v 0.8 0.2 -0.7
v 0.9 0.2 -0.7
v 1.3 0.2 -0.7
v 1.5 0.2 -0.7
v -1.2 0.2 -0.8
v -1.1 0.2 -0.8
v -0.7 0.2 -0.8
v -0.6 0.2 -0.8
v 0.2 0.2 -0.8
v 0.4 0.2 -0.8
v 0.7 0.2 -0.8
v 0.8 0.2 -0.8
v 1.5 0.2 -0.8
v 1.6 0.2 -0.8
v -1.2 0.2 -1.1
v -1.1 0.2 -1.1
v -0.7 0.2 -1.1
v -0.6 0.2 -1.1
v -1.1 0.2 -1.2
v -1 0.2 -1.2
v -0.8 0.2 -1.2
v -0.7 0.2 -1.2
v -1 0.2 -1.3
v -0.8 0.2 -1.3
v -0.2 0.2 -1.3
v 2.38419e-07 0.2 -1.3
v -1.6 0.2 -1.4
v -1.4 0.2 -1.4
v 0.4 0.2 -1.4
v 0.6 0.2 -1.4
v 0.7 0.2 -1.4
v 0.8 0.2 -1.4
v 1.5 0.2 -1.4
v 1.6 0.2 -1.4
v -0.2 0.2 -1.5
v 2.38419e-07 0.2 -1.5
v 0.8 0.2 -1.5
v 0.9 0.2 -1.5
v 1.4 0.2 -1.5
v 1.5 0.2 -1.5
v -1.6 0.2 -1.6
v -1.4 0.2 -1.6
v 0.3 0.2 -1.6
v 0.4 0.2 -1.6
v 0.5 0.2 -1.6
v 0.9 0.2 -1.6
v 1.4 0.2 -1.6
v 0.5 0.2 -1.7
v 0.6 0.2 -1.7
v 0.3 0.2 -1.8
v 0.5 0.2 -1.8
v -1.9 0.2 -1.9
v 1.9 0.2 -1.9
v -1 0.3 1.2
v -0.8 0.3 1.2
v -1 0.3 1.1
v -0.9 0.3 1.1
v -0.9 0.3 1
v -0.8 0.3 1
v 1.4 0.3 0.4
v 1.5 0.3 0.4
v -1.4 0.3 0.3
v -1.3 0.3 0.3
v 1.5 0.3 0.2
v 1.7 0.3 0.2
v -1.3 0.3 0.0999999
v -1.1 0.3 0.0999999
v 1.4 0.3 0.0999999
v 1.7 0.3 0.0999999
v -1.4 0.3 -2.38419e-07
v -1.1 0.3 -2.38419e-07
v 1.5 0.4 0.4
v 1.7 0.4 0.4
v -1.3 0.4 0.3
v -1.1 0.4 0.3
v 1.5 0.4 0.2
v 1.7 0.4 0.2
v -1.3 0.4 0.0999999
v -1.1 0.4 0.0999999

# faces
f 3/2/1 2/2/1 1/2/1
f 4/2/1 2/2/1 3/2/1
f 7/2/1 6/2/1 5/2/1
f 8/2/1 6/2/1 7/2/1
f 11/3/1 10/3/1 9/3/1
f 12/3/1 10/3/1 11/3/1
f 15/3/1 14/3/1 13/3/1
f 16/3/1 14/3/1 15/3/1
f 19/3/1 18/3/1 17/3/1
f 20/3/1 18/3/1 19/3/1
f 23/3/1 22/3/1 21/3/1
f 24/3/1 22/3/1 23/3/1
f 29/2/1 26/2/1 25/2/1
f 30/2/1 26/2/1 29/2/1
f 31/2/1 28/2/1 27/2/1
f 32/2/1 28/2/1 31/2/1
f 37/2/1 34/2/1 33/2/1
f 38/2/1 34/2/1 37/2/1
f 39/2/1 36/2/1 35/2/1
f 40/2/1 36/2/1 39/2/1
f 43/2/1 42/2/1 41/2/1
f 44/2/1 42/2/1 43/2/1
f 49/2/1 46/2/1 45/2/1
f 50/2/1 46/2/1 49/2/1
f 51/2/1 48/2/1 47/2/1
f 52/2/1 48/2/1 51/2/1
f 57/2/1 54/2/1 53/2/1
f 58/2/1 54/2/1 57/2/1
f 59/2/1 56/2/1 55/2/1
f 60/2/1 56/2/1 59/2/1
f 63/2/1 62/2/1 61/2/1
f 64/2/1 62/2/1 63/2/1
f 67/2/1 66/2/1 65/2/1
f 68/2/1 66/2/1 67/2/1
f 75/2/1 70/2/1 69/2/1
f 76/2/1 70/2/1 75/2/1
f 77/2/1 72/2/1 71/2/1
f 78/2/1 72/2/1 77/2/1
f 79/2/1 74/2/1 73/2/1
f 80/2/1 74/2/1 79/2/1
f 85/2/1 82/2/1 81/2/1
f 86/2/1 82/2/1 85/2/1
f 89/2/1 84/2/1 83/2/1
f 90/2/1 84/2/1 89/2/1
f 91/3/1 88/3/1 87/3/1
f 92/3/1 88/3/1 91/3/1
f 97/2/1 94/2/1 93/2/1
f 98/2/1 94/2/1 97/2/1
f 99/2/1 96/2/1 95/2/1
f 100/2/1 96/2/1 99/2/1
f 103/3/1 102/3/1 101/3/1
f 104/3/1 102/3/1 103/3/1
f 107/2/1 106/2/1 105/2/1
f 108/2/1 106/2/1 107/2/1
f 109/2/2 110/2/2 111/2/2
f 111/2/2 110/2/2 112/2/2
f 113/2/2 114/2/2 119/2/2
f 119/2/2 114/2/2 120/2/2
f 115/2/2 116/2/2 121/2/2
f 121/2/2 116/2/2 122/2/2
f 117/3/2 118/3/2 123/3/2
f 123/3/2 118/3/2 124/3/2
f 117/3/2 123/3/2 125/3/2
f 125/3/2 123/3/2 126/3/2
f 127/2/2 128/2/2 131/2/2
f 131/2/2 128/2/2 132/2/2
f 129/2/2 130/2/2 133/2/2
f 133/2/2 130/2/2 134/2/2
f 135/3/2 136/3/2 137/3/2
f 137/3/2 136/3/2 138/3/2
f 139/2/2 140/2/2 141/2/2
f 141/2/2 140/2/2 142/2/2
f 143/2/2 144/2/2 147/2/2
f 147/2/2 144/2/2 148/2/2
f 145/2/2 146/2/2 149/2/2
f 149/2/2 146/2/2 150/2/2
f 151/2/2 152/2/2 153/2/2
f 153/2/2 152/2/2 154/2/2
f 155/2/2 156/2/2 157/2/2
f 157/2/2 156/2/2 158/2/2
f 159/2/2 160/2/2 163/2/2
f 163/2/2 160/2/2 164/2/2
f 161/2/2 162/2/2 165/2/2
f 165/2/2 162/2/2 166/2/2
f 167/2/2 168/2/2 173/2/2
f 173/2/2 168/2/2 174/2/2
f 169/2/2 170/2/2 175/2/2
f 175/2/2 170/2/2 176/2/2
f 171/2/2 172/2/2 177/2/2
f 177/2/2 172/2/2 178/2/2
f 179/2/2 180/2/2 183/2/2
f 183/2/2 180/2/2 184/2/2
f 181/2/2 182/2/2 185/2/2
f 185/2/2 182/2/2 186/2/2
f 187/2/2 188/2/2 191/2/2
f 191/2/2 188/2/2 192/2/2
f 189/2/2 190/2/2 193/2/2
f 193/2/2 190/2/2 194/2/2
f 195/3/2 196/3/2 197/3/2
f 197/3/2 196/3/2 198/3/2
f 195/3/2 197/3/2 199/3/2
f 199/3/2 197/3/2 200/3/2
f 201/2/2 202/2/2 203/2/2
f 203/2/2 202/2/2 204/2/2
f 205/2/2 206/2/2 207/2/2
f 207/2/2 206/2/2 208/2/2
f 211/2/3 210/2/3 209/2/3
f 212/2/3 210/2/3 211/2/3
f 215/2/3 214/2/3 213/2/3
f 216/2/3 214/2/3 215/2/3
f 219/3/3 218/3/3 217/3/3
f 220/3/3 218/3/3 219/3/3
f 223/2/3 222/2/3 221/2/3
f 224/2/3 222/2/3 223/2/3
f 227/2/3 226/2/3 225/2/3
f 228/2/3 226/2/3 227/2/3
f 231/2/3 230/2/3 229/2/3
f 232/2/3 230/2/3 231/2/3
f 235/2/3 234/2/3 233/2/3
f 236/2/3 234/2/3 235/2/3
f 239/2/3 238/2/3 237/2/3
f 240/2/3 238/2/3 239/2/3
f 243/2/3 242/2/3 241/2/3
f 244/2/3 242/2/3 243/2/3
f 247/2/3 246/2/3 245/2/3
f 248/2/3 246/2/3 247/2/3
f 251/3/3 250/3/3 249/3/3
f 253/3/3 251/3/3 249/3/3
f 253/3/3 252/3/3 251/3/3
f 254/3/3 252/3/3 253/3/3
f 257/3/3 256/3/3 255/3/3
f 259/3/3 257/3/3 255/3/3
f 259/3/3 258/3/3 257/3/3
f 260/3/3 258/3/3 259/3/3
f 263/2/3 262/2/3 261/2/3
f 264/2/3 262/2/3 263/2/3
f 267/2/3 266/2/3 265/2/3
f 268/2/3 266/2/3 267/2/3
f 271/2/3 270/2/3 269/2/3
f 272/2/3 270/2/3 271/2/3
f 275/2/3 274/2/3 273/2/3
f 276/2/3 274/2/3 275/2/3
f 279/2/3 278/2/3 277/2/3
f 280/2/3 278/2/3 279/2/3
f 283/2/3 282/2/3 281/2/3
f 284/2/3 282/2/3 283/2/3
f 287/2/3 286/2/3 285/2/3
f 288/2/3 286/2/3 287/2/3
f 291/2/3 290/2/3 289/2/3
f 292/2/3 290/2/3 291/2/3
f 295/2/3 294/2/3 293/2/3
f 296/2/3 294/2/3 295/2/3
f 299/2/3 298/2/3 297/2/3
f 300/2/3 298/2/3 299/2/3
f 303/2/3 302/2/3 301/2/3
f 304/2/3 302/2/3 303/2/3
f 307/2/3 306/2/3 305/2/3
f 308/2/3 306/2/3 307/2/3
f 311/2/3 310/2/3 309/2/3
f 312/2/3 310/2/3 311/2/3
f 313/2/4 314/2/4 315/2/4
f 315/2/4 314/2/4 316/2/4
f 317/2/4 318/2/4 319/2/4
f 319/2/4 318/2/4 320/2/4
f 321/2/4 322/2/4 323/2/4
f 323/2/4 322/2/4 324/2/4
f 325/2/4 326/2/4 327/2/4
f 327/2/4 326/2/4 328/2/4
f 329/3/4 330/3/4 331/3/4
f 331/3/4 330/3/4 332/3/4
f 333/3/4 334/3/4 335/3/4
f 335/3/4 334/3/4 336/3/4
f 337/2/4 338/2/4 339/2/4
f 339/2/4 338/2/4 340/2/4
f 341/2/4 342/2/4 343/2/4
f 343/2/4 342/2/4 344/2/4
f 345/2/4 346/2/4 347/2/4
f 347/2/4 346/2/4 348/2/4
f 349/2/4 350/2/4 351/2/4
f 351/2/4 350/2/4 352/2/4
f 353/3/4 354/3/4 355/3/4
f 355/3/4 354/3/4 356/3/4
f 357/3/4 358/3/4 359/3/4
f 359/3/4 358/3/4 360/3/4
f 361/3/4 362/3/4 363/3/4
f 363/3/4 362/3/4 364/3/4
f 365/3/4 366/3/4 367/3/4
f 367/3/4 366/3/4 368/3/4
f 369/2/4 370/2/4 371/2/4
f 371/2/4 370/2/4 372/2/4
f 373/2/4 374/2/4 375/2/4
f 375/2/4 374/2/4 376/2/4
f 377/2/4 378/2/4 379/2/4
f 379/2/4 378/2/4 380/2/4
f 381/2/4 382/2/4 383/2/4
f 383/2/4 382/2/4 384/2/4
f 385/2/4 386/2/4 387/2/4
f 387/2/4 386/2/4 388/2/4
f 389/2/4 390/2/4 391/2/4
f 391/2/4 390/2/4 392/2/4
f 393/2/4 394/2/4 395/2/4
f 395/2/4 394/2/4 396/2/4
f 397/2/4 398/2/4 399/2/4
f 399/2/4 398/2/4 400/2/4
f 401/2/4 402/2/4 403/2/4
f 403/2/4 402/2/4 404/2/4
f 405/2/4 406/2/4 407/2/4
f 407/2/4 406/2/4 408/2/4
f 409/2/4 410/2/4 411/2/4
f 411/2/4 410/2/4 412/2/4
f 413/2/4 414/2/4 415/2/4
f 415/2/4 414/2/4 416/2/4
f 419/2/5 418/2/5 417/2/5
f 420/2/5 418/2/5 419/2/5
f 421/2/5 419/2/5 417/2/5
f 421/3/5 420/3/5 419/3/5
f 422/2/5 418/2/5 420/2/5
f 422/3/5 420/3/5 421/3/5
f 423/2/5 421/2/5 417/2/5
f 423/2/5 422/2/5 421/2/5
f 424/2/5 418/2/5 422/2/5
f 424/2/5 422/2/5 423/2/5
f 425/2/6 426/2/6 427/2/6
f 427/2/6 426/2/6 428/2/6
f 429/3/6 430/3/6 432/3/6
f 432/3/6 430/3/6 433/3/6
f 431/3/6 432/3/6 436/3/6
f 433/3/6 434/3/6 436/3/6
f 432/3/6 433/3/6 436/3/6
f 435/3/6 436/3/6 437/3/6
f 436/3/6 434/3/6 438/3/6
f 437/3/6 436/3/6 438/3/6
f 438/3/6 434/3/6 439/3/6
f 439/3/6 434/3/6 440/3/6
f 438/3/6 439/3/6 441/3/6
f 441/3/6 439/3/6 442/3/6
f 442/3/6 439/3/6 443/3/6
f 443/3/6 439/3/6 444/3/6
f 442/3/6 443/3/6 447/3/6
f 447/3/6 443/3/6 448/3/6
f 445/3/6 446/3/6 450/3/6
f 450/3/6 446/3/6 451/3/6
f 449/3/6 450/3/6 453/3/6
f 451/3/6 452/3/6 453/3/6
f 450/3/6 451/3/6 453/3/6
f 449/3/6 453/3/6 455/3/6
f 453/3/6 454/3/6 455/3/6
f 455/3/6 454/3/6 456/3/6
f 456/3/6 454/3/6 457/3/6
f 457/3/6 454/3/6 458/3/6
f 456/3/6 457/3/6 459/3/6
f 459/3/6 457/3/6 460/3/6
f 460/3/6 457/3/6 461/3/6
f 461/3/6 457/3/6 462/3/6
f 460/3/6 461/3/6 463/3/6
f 463/3/6 461/3/6 464/3/6
f 465/3/6 466/3/6 470/3/6
f 470/3/6 466/3/6 471/3/6
f 467/3/6 468/3/6 474/3/6
f 474/3/6 468/3/6 475/3/6
f 471/3/6 472/3/6 478/3/6
f 469/3/6 470/3/6 478/3/6
f 470/3/6 471/3/6 478/3/6
f 478/3/6 472/3/6 479/3/6
f 474/3/6 475/3/6 482/3/6
f 473/3/6 474/3/6 482/3/6
f 475/3/6 476/3/6 482/3/6
f 482/3/6 476/3/6 483/3/6
f 479/3/6 480/3/6 485/3/6
f 478/3/6 479/3/6 485/3/6
f 477/3/6 478/3/6 485/3/6
f 485/3/6 480/3/6 486/3/6
f 486/3/6 480/3/6 487/3/6
f 487/3/6 480/3/6 488/3/6
f 486/3/6 487/3/6 489/3/6
f 489/3/6 487/3/6 490/3/6
f 490/3/6 487/3/6 491/3/6
f 491/3/6 487/3/6 492/3/6
f 490/3/6 491/3/6 493/3/6
f 493/3/6 491/3/6 494/3/6
f 483/3/6 484/3/6 495/3/6
f 482/3/6 483/3/6 495/3/6
f 481/3/6 482/3/6 495/3/6
f 495/3/6 484/3/6 496/3/6
f 496/3/6 484/3/6 497/3/6
f 497/3/6 484/3/6 498/3/6
f 496/3/6 497/3/6 499/3/6
f 499/3/6 497/3/6 500/3/6
f 500/3/6 497/3/6 501/3/6
f 501/3/6 497/3/6 502/3/6
f 500/3/6 501/3/6 503/3/6
f 503/3/6 501/3/6 504/3/6
f 425/2/6 427/2/6 505/2/6
f 428/2/6 426/2/6 506/2/6
f 425/2/6 505/2/6 507/2/6
f 505/2/6 506/2/6 507/2/6
f 506/2/6 426/2/6 508/2/6
f 507/2/6 506/2/6 508/2/6
f 509/2/6 510/2/6 511/2/6
f 511/2/6 510/2/6 512/2/6
f 512/2/6 510/2/6 513/2/6
f 513/2/6 510/2/6 514/2/6
f 514/2/6 510/2/6 515/2/6
f 515/2/6 510/2/6 516/2/6
f 509/2/6 511/2/6 517/2/6
f 511/5/6 512/5/6 517/5/6
f 512/2/6 513/2/6 518/2/6
f 517/5/6 512/5/6 518/5/6
f 513/5/6 514/5/6 519/5/6
f 518/2/6 513/2/6 519/2/6
f 514/2/6 515/2/6 520/2/6
f 519/5/6 514/5/6 520/5/6
f 520/2/6 515/2/6 521/2/6
f 521/2/6 515/2/6 522/2/6
f 516/2/6 510/2/6 523/2/6
f 523/2/6 510/2/6 524/2/6
f 518/2/6 519/2/6 525/2/6
f 517/2/6 518/2/6 525/2/6
f 520/2/6 521/2/6 525/2/6
f 519/2/6 520/2/6 525/2/6
f 525/2/6 521/2/6 526/2/6
f 509/2/6 517/2/6 527/2/6
f 517/2/6 525/2/6 527/2/6
f 527/2/6 525/2/6 528/2/6
f 509/2/6 527/2/6 529/2/6
f 528/2/6 525/2/6 531/2/6
f 524/2/6 510/2/6 534/2/6
f 529/2/6 530/2/6 535/2/6
f 509/2/6 529/2/6 535/2/6
f 535/2/6 530/2/6 536/2/6
f 536/2/6 530/2/6 537/2/6
f 528/2/6 531/2/6 538/2/6
f 531/2/6 532/2/6 538/2/6
f 538/2/6 532/2/6 539/2/6
f 533/2/6 534/2/6 542/2/6
f 536/2/6 537/2/6 543/2/6
f 539/2/6 540/2/6 543/2/6
f 537/2/6 538/2/6 543/2/6
f 538/2/6 539/2/6 543/2/6
f 543/2/6 540/2/6 544/2/6
f 544/2/6 540/2/6 545/2/6
f 541/2/6 542/2/6 546/2/6
f 535/5/6 536/5/6 547/5/6
f 509/2/6 535/2/6 547/2/6
f 536/2/6 543/2/6 548/2/6
f 547/5/6 536/5/6 548/5/6
f 548/2/6 543/2/6 549/2/6
f 549/2/6 543/2/6 550/2/6
f 544/2/6 545/2/6 551/2/6
f 545/2/6 546/2/6 551/2/6
f 551/2/6 546/2/6 552/2/6
f 548/2/6 549/2/6 553/2/6
f 547/2/6 548/2/6 553/2/6
f 553/2/6 549/2/6 554/2/6
f 552/2/6 546/2/6 555/2/6
f 555/2/6 546/2/6 556/2/6
f 547/2/6 553/2/6 557/2/6
f 553/4/6 554/4/6 557/4/6
f 557/4/6 554/4/6 558/4/6
f 557/2/6 558/2/6 559/2/6
f 558/4/6 554/4/6 559/4/6
f 554/2/6 549/2/6 560/2/6
f 559/4/6 554/4/6 560/4/6
f 560/2/6 549/2/6 561/2/6
f 556/2/6 546/2/6 564/2/6
f 542/2/6 534/2/6 565/2/6
f 534/2/6 510/2/6 565/2/6
f 564/2/6 546/2/6 565/2/6
f 546/2/6 542/2/6 565/2/6
f 565/2/6 510/2/6 566/2/6
f 557/2/6 559/2/6 567/2/6
f 560/2/6 561/2/6 567/2/6
f 561/2/6 562/2/6 567/2/6
f 559/2/6 560/2/6 567/2/6
f 547/2/6 557/2/6 567/2/6
f 567/2/6 562/2/6 568/2/6
f 568/2/6 562/2/6 569/2/6
f 563/2/6 564/2/6 572/2/6
f 564/2/6 565/2/6 572/2/6
f 569/2/6 570/2/6 573/2/6
f 568/2/6 569/2/6 573/2/6
f 571/2/6 572/2/6 574/2/6
f 572/2/6 565/2/6 575/2/6
f 573/2/6 574/2/6 575/2/6
f 574/2/6 572/2/6 575/2/6
f 566/2/6 510/2/6 576/2/6
f 547/2/6 567/2/6 577/2/6
f 573/2/6 575/2/6 578/2/6
f 568/2/6 573/2/6 578/2/6
f 575/2/6 576/2/6 578/2/6
f 578/2/6 576/2/6 579/2/6
f 579/2/6 576/2/6 580/2/6
f 577/2/6 578/2/6 581/2/6
f 578/2/6 579/2/6 581/2/6
f 581/2/6 579/2/6 582/2/6
f 579/4/6 580/4/6 583/4/6
f 582/2/6 579/2/6 583/2/6
f 580/2/6 576/2/6 584/2/6
f 583/4/6 580/4/6 584/4/6
f 547/2/6 577/2/6 585/2/6
f 509/2/6 547/2/6 585/2/6
f 577/2/6 581/2/6 585/2/6
f 585/2/6 581/2/6 586/2/6
f 581/4/6 582/4/6 587/4/6
f 586/2/6 581/2/6 587/2/6
f 583/2/6 584/2/6 588/2/6
f 587/4/6 582/4/6 588/4/6
f 582/2/6 583/2/6 588/2/6
f 586/2/6 587/2/6 589/2/6
f 585/4/6 586/4/6 589/4/6
f 587/2/6 588/2/6 589/2/6
f 589/2/6 588/2/6 590/2/6
f 588/2/6 584/2/6 591/2/6
f 590/2/6 588/2/6 591/2/6
f 591/2/6 584/2/6 592/2/6
f 590/2/6 591/2/6 593/2/6
f 593/2/6 591/2/6 594/2/6
f 592/2/6 584/2/6 595/2/6
f 584/2/6 576/2/6 596/2/6
f 595/2/6 584/2/6 596/2/6
f 589/4/6 590/4/6 597/4/6
f 509/2/6 585/2/6 597/2/6
f 585/4/6 589/4/6 597/4/6
f 590/2/6 593/2/6 598/2/6
f 597/4/6 590/4/6 598/4/6
f 598/2/6 593/2/6 599/2/6
f 599/2/6 593/2/6 600/2/6
f 594/2/6 591/2/6 601/2/6
f 601/2/6 591/2/6 602/2/6
f 591/5/6 592/5/6 603/5/6
f 602/2/6 591/2/6 603/2/6
f 603/5/6 592/5/6 604/5/6
f 592/2/6 595/2/6 605/2/6
f 605/2/6 595/2/6 606/2/6
f 596/2/6 576/2/6 607/2/6
f 607/2/6 576/2/6 608/2/6
f 597/2/6 598/2/6 609/2/6
f 598/2/6 599/2/6 609/2/6
f 609/2/6 599/2/6 610/2/6
f 603/2/6 604/2/6 611/2/6
f 602/2/6 603/2/6 611/2/6
f 611/2/6 604/2/6 612/2/6
f 604/5/6 592/5/6 613/5/6
f 612/2/6 604/2/6 613/2/6
f 592/2/6 605/2/6 614/2/6
f 613/5/6 592/5/6 614/5/6
f 614/2/6 605/2/6 615/2/6
f 615/2/6 605/2/6 616/2/6
f 608/2/6 576/2/6 617/2/6
f 617/2/6 576/2/6 618/2/6
f 597/2/6 609/2/6 619/2/6
f 612/2/6 613/2/6 622/2/6
f 614/2/6 615/2/6 622/2/6
f 613/2/6 614/2/6 622/2/6
f 619/2/6 620/2/6 623/2/6
f 621/2/6 622/2/6 626/2/6
f 623/2/6 624/2/6 627/2/6
f 625/2/6 626/2/6 628/2/6
f 622/2/6 615/2/6 629/2/6
f 626/2/6 622/2/6 629/2/6
f 628/2/6 626/2/6 629/2/6
f 629/2/6 615/2/6 630/2/6
f 509/2/6 597/2/6 631/2/6
f 623/2/6 627/2/6 631/2/6
f 597/2/6 619/2/6 631/2/6
f 628/2/6 629/2/6 631/2/6
f 627/2/6 628/2/6 631/2/6
f 619/2/6 623/2/6 631/2/6
f 631/2/6 629/2/6 632/2/6
f 630/2/6 615/2/6 633/2/6
f 633/2/6 615/2/6 634/2/6
f 634/2/6 615/2/6 635/2/6
f 618/2/6 576/2/6 638/2/6
f 632/2/6 629/2/6 639/2/6
f 629/1/6 630/1/6 639/1/6
f 630/2/6 633/2/6 640/2/6
f 639/1/6 630/1/6 640/1/6
f 635/2/6 636/2/6 641/2/6
f 634/2/6 635/2/6 641/2/6
f 637/2/6 638/2/6 644/2/6
f 509/2/6 631/2/6 645/2/6
f 631/6/6 632/6/6 645/6/6
f 632/2/6 639/2/6 646/2/6
f 645/6/6 632/6/6 646/6/6
f 639/2/6 640/2/6 646/2/6
f 640/2/6 633/2/6 647/2/6
f 646/2/6 640/2/6 647/2/6
f 633/1/6 634/1/6 648/1/6
f 647/2/6 633/2/6 648/2/6
f 648/1/6 634/1/6 649/1/6
f 641/2/6 642/2/6 650/2/6
f 643/2/6 644/2/6 651/2/6
f 649/1/6 634/1/6 652/1/6
f 647/5/6 648/5/6 652/5/6
f 648/5/6 649/5/6 652/5/6
f 650/2/6 651/2/6 653/2/6
f 652/1/6 634/1/6 653/1/6
f 641/2/6 650/2/6 653/2/6
f 634/2/6 641/2/6 653/2/6
f 645/2/6 646/2/6 654/2/6
f 647/5/6 652/5/6 654/5/6
f 646/2/6 647/2/6 654/2/6
f 652/2/6 653/2/6 655/2/6
f 654/5/6 652/5/6 655/5/6
f 645/2/6 654/2/6 656/2/6
f 509/2/6 645/2/6 656/2/6
f 654/2/6 655/2/6 656/2/6
f 653/2/6 651/2/6 657/2/6
f 656/2/6 655/2/6 657/2/6
f 576/2/6 510/2/6 657/2/6
f 655/2/6 653/2/6 657/2/6
f 651/2/6 644/2/6 657/2/6
f 638/2/6 576/2/6 657/2/6
f 644/2/6 638/2/6 657/2/6
f 658/3/6 659/3/6 660/3/6
f 660/3/6 659/3/6 661/3/6
f 661/3/6 659/3/6 662/3/6
f 662/3/6 659/3/6 663/3/6
f 664/3/6 665/3/6 668/3/6
f 666/3/6 667/3/6 670/3/6
f 668/3/6 669/3/6 672/3/6
f 664/3/6 668/3/6 672/3/6
f 672/3/6 669/3/6 673/3/6
f 670/3/6 671/3/6 674/3/6
f 666/3/6 670/3/6 674/3/6
f 674/3/6 671/3/6 675/3/6
f 676/3/6 677/3/6 680/3/6
f 680/3/6 677/3/6 681/3/6
f 678/3/6 679/3/6 682/3/6
f 682/3/6 679/3/6 683/3/6
