# MagicaVoxel @ Ephtracy

# group
o 

# material
mtllib TileSand.mtl
usemtl palette

# normals
vn -1 0 0
vn 1 0 0
vn 0 0 1
vn 0 0 -1
vn 0 -1 0
vn 0 1 0

# texcoords
vt 0.00976563 0.5
vt 0.0136719 0.5
vt 0.0175781 0.5
vt 0.0214844 0.5
vt 0.341797 0.5

# verts
v -2 0 2
v -2 0 -2
v -2 0.1 2
v -2 0.1 -2
v 2 0 2
v 2 0 -2
v 2 0.1 2
v 2 0.1 -2
v -2 0 2
v -2 0.1 2
v 2 0 2
v 2 0.1 2
v -2 0 -2
v -2 0.1 -2
v 2 0 -2
v 2 0.1 -2
v -2 0 2
v 2 0 2
v -1.8 0 1.7
v -1.3 0 1.7
v -0.6 0 1.7
v -0.3 0 1.7
v 0.7 0 1.6
v 0.8 0 1.6
v -0.6 0 1.5
v -0.3 0 1.5
v -0.2 0 1.5
v 0.4 0 1.5
v 0.7 0 1.5
v 0.8 0 1.5
v 1.6 0 1.5
v 1.7 0 1.5
v -1.8 0 1.4
v -1.7 0 1.4
v 1.1 0 1.4
v 1.4 0 1.4
v -1.8 0 1.3
v -1.7 0 1.3
v 2.38419e-07 0 1.3
v 0.1 0 1.3
v -0.8 0 1.2
v -0.5 0 1.2
v 2.38419e-07 0 1.2
v 0.1 0 1.2
v -1.8 0 1
v -1.3 0 1
v 0.9 0 1
v 1.1 0 1
v 1.2 0 1
v 1.3 0 1
v 1.6 0 1
v 1.7 0 1
v -0.2 0 0.9
v 0.4 0 0.9
v 0.5 0 0.9
v 0.7 0 0.9
v 1.3 0 0.9
v 1.4 0 0.9
v 0.9 0 0.8
v 1.2 0 0.8
v 1.3 0 0.8
v 1.4 0 0.8
v -1 0 0.7
v -0.8 0 0.7
v -0.6 0 0.7
v 0.5 0 0.7
v 0.7 0 0.7
v 2.38419e-07 0 0.6
v 0.3 0 0.6
v -1 0 0.5
v -0.6 0 0.5
v -0.5 0 0.5
v 1.4 0 0.4
v 1.8 0 0.4
v -0.7 0 0.3
v 2.38419e-07 0 0.3
v 0.1 0 0.3
v 0.3 0 0.3
v 0.5 0 0.3
v 1.1 0 0.3
v -1.6 0 0.2
v -1.3 0 0.2
v 1.4 0 0.2
v 1.6 0 0.2
v 1.8 0 0.2
v -0.7 0 0.0999999
v -0.6 0 0.0999999
v -0.5 0 0.0999999
v -0.4 0 0.0999999
v -0.3 0 0.0999999
v -0.7 0 -2.38419e-07
v -0.6 0 -2.38419e-07
v -0.5 0 -2.38419e-07
v -0.4 0 -2.38419e-07
v -0.3 0 -2.38419e-07
v -0.9 0 -0.1
v -0.7 0 -0.1
v -0.6 0 -0.1
v -0.5 0 -0.1
v -0.3 0 -0.1
v -0.0999999 0 -0.1
v 2.38419e-07 0 -0.1
v -1.6 0 -0.2
v -1.3 0 -0.2
v -0.7 0 -0.2
v -0.6 0 -0.2
v -0.5 0 -0.2
v -0.3 0 -0.2
v -0.2 0 -0.2
v -0.0999999 0 -0.2
v 0.5 0 -0.2
v 0.6 0 -0.2
v -0.9 0 -0.3
v -0.7 0 -0.3
v -0.2 0 -0.3
v 2.38419e-07 0 -0.3
v 0.5 0 -0.3
v 0.6 0 -0.3
v 0.7 0 -0.3
v 1.4 0 -0.3
v 1.6 0 -0.3
v -0.3 0 -0.4
v -0.2 0 -0.4
v 0.6 0 -0.4
v 0.7 0 -0.4
v 0.9 0 -0.4
v 1 0 -0.4
v -0.7 0 -0.5
v -0.3 0 -0.5
v -0.2 0 -0.5
v 0.1 0 -0.5
v 0.9 0 -0.5
v 1 0 -0.5
v 1.6 0 -0.5
v 1.8 0 -0.5
v -1.4 0 -0.6
v -1.2 0 -0.6
v 0.3 0 -0.7
v 0.5 0 -0.7
v 0.8 0 -0.7
v 1.1 0 -0.7
v 1.3 0 -0.7
v 1.5 0 -0.7
v 1.6 0 -0.7
v 1.8 0 -0.7
v -1.4 0 -0.8
v -1.2 0 -0.8
v -0.3 0 -0.8
v 0.1 0 -0.8
v -1.7 0 -0.9
v -1.3 0 -0.9
v -0.9 0 -0.9
v -0.5 0 -0.9
v 1.3 0 -0.9
v 1.5 0 -0.9
v 1.7 0 -0.9
v 0.3 0 -1.1
v 0.5 0 -1.1
v 1.3 0 -1.1
v 1.6 0 -1.1
v 0.5 0 -1.2
v 0.8 0 -1.2
v 1.3 0 -1.2
v 1.6 0 -1.2
v -1.3 0 -1.3
v -1 0 -1.3
v -0.3 0 -1.3
v 2.38419e-07 0 -1.3
v 0.1 0 -1.3
v 0.3 0 -1.3
v -1.5 0 -1.4
v -1.4 0 -1.4
v -0.9 0 -1.4
v -0.5 0 -1.4
v -0.0999999 0 -1.4
v 2.38419e-07 0 -1.4
v -1.5 0 -1.5
v -1.4 0 -1.5
v -0.5 0 -1.5
v -0.0999999 0 -1.5
v 0.8 0 -1.5
v 1 0 -1.5
v 1.3 0 -1.5
v -1.2 0 -1.6
v -1 0 -1.6
v 0.8 0 -1.6
v 1 0 -1.6
v -1.7 0 -1.7
v -1.2 0 -1.7
v -0.5 0 -1.7
v 0.3 0 -1.7
v 1 0 -1.7
v 1.7 0 -1.7
v -1.2 0 -1.8
v -1 0 -1.8
v -2 0 -2
v 2 0 -2
v -2 0.1 2
v 2 0.1 2
v -1.8 0.1 1.7
v -1.3 0.1 1.7
v -0.6 0.1 1.7
v -0.3 0.1 1.7
v 0.7 0.1 1.6
v 0.8 0.1 1.6
v -0.6 0.1 1.5
v -0.3 0.1 1.5
v -0.2 0.1 1.5
v 0.4 0.1 1.5
v 0.7 0.1 1.5
v 0.8 0.1 1.5
v 1.6 0.1 1.5
v 1.7 0.1 1.5
v -1.8 0.1 1.4
v -1.7 0.1 1.4
v 1.1 0.1 1.4
v 1.4 0.1 1.4
v -1.8 0.1 1.3
v -1.7 0.1 1.3
v 2.38419e-07 0.1 1.3
v 0.1 0.1 1.3
v -0.8 0.1 1.2
v -0.5 0.1 1.2
v 2.38419e-07 0.1 1.2
v 0.1 0.1 1.2
v -1.8 0.1 1
v -1.3 0.1 1
v 0.9 0.1 1
v 1.1 0.1 1
v 1.2 0.1 1
v 1.3 0.1 1
v 1.6 0.1 1
v 1.7 0.1 1
v -0.2 0.1 0.9
v 0.4 0.1 0.9
v 0.5 0.1 0.9
v 0.7 0.1 0.9
v 1.3 0.1 0.9
v 1.4 0.1 0.9
v 0.9 0.1 0.8
v 1.2 0.1 0.8
v 1.3 0.1 0.8
v 1.4 0.1 0.8
v -1 0.1 0.7
v -0.8 0.1 0.7
v -0.6 0.1 0.7
v 0.5 0.1 0.7
v 0.7 0.1 0.7
v 2.38419e-07 0.1 0.6
v 0.3 0.1 0.6
v -1 0.1 0.5
v -0.6 0.1 0.5
v -0.5 0.1 0.5
v 1.4 0.1 0.4
v 1.8 0.1 0.4
v -0.7 0.1 0.3
v 2.38419e-07 0.1 0.3
v 0.1 0.1 0.3
v 0.3 0.1 0.3
v 0.5 0.1 0.3
v 1.1 0.1 0.3
v -1.6 0.1 0.2
v -1.3 0.1 0.2
v 1.4 0.1 0.2
v 1.6 0.1 0.2
v 1.8 0.1 0.2
v -0.7 0.1 0.0999999
v -0.6 0.1 0.0999999
v -0.5 0.1 0.0999999
v -0.4 0.1 0.0999999
v -0.3 0.1 0.0999999
v -0.7 0.1 -2.38419e-07
v -0.6 0.1 -2.38419e-07
v -0.5 0.1 -2.38419e-07
v -0.4 0.1 -2.38419e-07
v -0.3 0.1 -2.38419e-07
v -0.9 0.1 -0.1
v -0.7 0.1 -0.1
v -0.6 0.1 -0.1
v -0.5 0.1 -0.1
v -0.3 0.1 -0.1
v -0.0999999 0.1 -0.1
v 2.38419e-07 0.1 -0.1
v -1.6 0.1 -0.2
v -1.3 0.1 -0.2
v -0.7 0.1 -0.2
v -0.6 0.1 -0.2
v -0.5 0.1 -0.2
v -0.3 0.1 -0.2
v -0.2 0.1 -0.2
v -0.0999999 0.1 -0.2
v 0.5 0.1 -0.2
v 0.6 0.1 -0.2
v -0.9 0.1 -0.3
v -0.7 0.1 -0.3
v -0.2 0.1 -0.3
v 2.38419e-07 0.1 -0.3
v 0.5 0.1 -0.3
v 0.6 0.1 -0.3
v 0.7 0.1 -0.3
v 1.4 0.1 -0.3
v 1.6 0.1 -0.3
v -0.3 0.1 -0.4
v -0.2 0.1 -0.4
v 0.6 0.1 -0.4
v 0.7 0.1 -0.4
v 0.9 0.1 -0.4
v 1 0.1 -0.4
v -0.7 0.1 -0.5
v -0.3 0.1 -0.5
v -0.2 0.1 -0.5
v 0.1 0.1 -0.5
v 0.9 0.1 -0.5
v 1 0.1 -0.5
v 1.6 0.1 -0.5
v 1.8 0.1 -0.5
v -1.4 0.1 -0.6
v -1.2 0.1 -0.6
v 0.3 0.1 -0.7
v 0.5 0.1 -0.7
v 0.8 0.1 -0.7
v 1.1 0.1 -0.7
v 1.3 0.1 -0.7
v 1.5 0.1 -0.7
v 1.6 0.1 -0.7
v 1.8 0.1 -0.7
v -1.4 0.1 -0.8
v -1.2 0.1 -0.8
v -0.3 0.1 -0.8
v 0.1 0.1 -0.8
v -1.7 0.1 -0.9
v -1.3 0.1 -0.9
v -0.9 0.1 -0.9
v -0.5 0.1 -0.9
v 1.3 0.1 -0.9
v 1.5 0.1 -0.9
v 1.7 0.1 -0.9
v 0.3 0.1 -1.1
v 0.5 0.1 -1.1
v 1.3 0.1 -1.1
v 1.6 0.1 -1.1
v 0.5 0.1 -1.2
v 0.8 0.1 -1.2
v 1.3 0.1 -1.2
v 1.6 0.1 -1.2
v -1.3 0.1 -1.3
v -1 0.1 -1.3
v -0.3 0.1 -1.3
v 2.38419e-07 0.1 -1.3
v 0.1 0.1 -1.3
v 0.3 0.1 -1.3
v -1.5 0.1 -1.4
v -1.4 0.1 -1.4
v -0.9 0.1 -1.4
v -0.5 0.1 -1.4
v -0.0999999 0.1 -1.4
v 2.38419e-07 0.1 -1.4
v -1.5 0.1 -1.5
v -1.4 0.1 -1.5
v -0.5 0.1 -1.5
v -0.0999999 0.1 -1.5
v 0.8 0.1 -1.5
v 1 0.1 -1.5
v 1.3 0.1 -1.5
v -1.2 0.1 -1.6
v -1 0.1 -1.6
v 0.8 0.1 -1.6
v 1 0.1 -1.6
v -1.7 0.1 -1.7
v -1.2 0.1 -1.7
v -0.5 0.1 -1.7
v 0.3 0.1 -1.7
v 1 0.1 -1.7
v 1.7 0.1 -1.7
v -1.2 0.1 -1.8
v -1 0.1 -1.8
v -2 0.1 -2
v 2 0.1 -2

# faces
f 3/2/1 2/2/1 1/2/1
f 4/2/1 2/2/1 3/2/1
f 5/2/2 6/2/2 7/2/2
f 7/2/2 6/2/2 8/2/2
f 11/2/3 10/2/3 9/2/3
f 12/2/3 10/2/3 11/2/3
f 13/2/4 14/2/4 15/2/4
f 15/2/4 14/2/4 16/2/4
f 19/2/5 18/2/5 17/2/5
f 20/2/5 18/2/5 19/2/5
f 21/2/5 18/2/5 20/2/5
f 22/2/5 18/2/5 21/2/5
f 23/2/5 18/2/5 22/2/5
f 24/2/5 18/2/5 23/2/5
f 25/2/5 21/2/5 20/2/5
f 25/5/5 22/5/5 21/5/5
f 26/2/5 23/2/5 22/2/5
f 26/5/5 22/5/5 25/5/5
f 27/2/5 23/2/5 26/2/5
f 28/2/5 23/2/5 27/2/5
f 29/4/5 24/4/5 23/4/5
f 29/2/5 23/2/5 28/2/5
f 30/2/5 18/2/5 24/2/5
f 30/4/5 24/4/5 29/4/5
f 31/2/5 18/2/5 30/2/5
f 32/2/5 18/2/5 31/2/5
f 33/2/5 19/2/5 17/2/5
f 33/3/5 20/3/5 19/3/5
f 34/3/5 20/3/5 33/3/5
f 35/2/5 29/2/5 28/2/5
f 35/2/5 30/2/5 29/2/5
f 35/2/5 31/2/5 30/2/5
f 36/2/5 31/2/5 35/2/5
f 37/2/5 34/2/5 33/2/5
f 37/2/5 33/2/5 17/2/5
f 38/3/5 20/3/5 34/3/5
f 38/2/5 34/2/5 37/2/5
f 39/3/5 28/3/5 27/3/5
f 40/3/5 28/3/5 39/3/5
f 41/2/5 25/2/5 20/2/5
f 41/2/5 26/2/5 25/2/5
f 41/2/5 27/2/5 26/2/5
f 42/2/5 27/2/5 41/2/5
f 43/2/5 40/2/5 39/2/5
f 43/3/5 39/3/5 27/3/5
f 44/3/5 28/3/5 40/3/5
f 44/2/5 40/2/5 43/2/5
f 45/2/5 37/2/5 17/2/5
f 45/3/5 38/3/5 37/3/5
f 46/3/5 20/3/5 38/3/5
f 46/3/5 38/3/5 45/3/5
f 46/2/5 41/2/5 20/2/5
f 47/2/5 35/2/5 28/2/5
f 48/3/5 36/3/5 35/3/5
f 48/2/5 35/2/5 47/2/5
f 49/3/5 36/3/5 48/3/5
f 50/3/5 36/3/5 49/3/5
f 51/4/5 32/4/5 31/4/5
f 51/2/5 31/2/5 36/2/5
f 52/2/5 18/2/5 32/2/5
f 52/4/5 32/4/5 51/4/5
f 53/3/5 43/3/5 27/3/5
f 53/2/5 27/2/5 42/2/5
f 53/3/5 44/3/5 43/3/5
f 54/3/5 28/3/5 44/3/5
f 54/3/5 44/3/5 53/3/5
f 54/2/5 47/2/5 28/2/5
f 55/2/5 47/2/5 54/2/5
f 56/2/5 47/2/5 55/2/5
f 57/3/5 36/3/5 50/3/5
f 57/2/5 50/2/5 49/2/5
f 58/2/5 51/2/5 36/2/5
f 58/3/5 36/3/5 57/3/5
f 58/2/5 52/2/5 51/2/5
f 59/2/5 47/2/5 56/2/5
f 59/5/5 48/5/5 47/5/5
f 59/5/5 49/5/5 48/5/5
f 60/2/5 57/2/5 49/2/5
f 60/5/5 49/5/5 59/5/5
f 61/4/5 58/4/5 57/4/5
f 61/2/5 57/2/5 60/2/5
f 62/2/5 52/2/5 58/2/5
f 62/4/5 58/4/5 61/4/5
f 63/2/5 41/2/5 46/2/5
f 63/2/5 46/2/5 45/2/5
f 64/3/5 42/3/5 41/3/5
f 64/2/5 41/2/5 63/2/5
f 65/3/5 42/3/5 64/3/5
f 66/2/5 55/2/5 54/2/5
f 66/4/5 56/4/5 55/4/5
f 66/2/5 54/2/5 53/2/5
f 67/2/5 59/2/5 56/2/5
f 67/4/5 56/4/5 66/4/5
f 67/2/5 61/2/5 60/2/5
f 67/2/5 62/2/5 61/2/5
f 67/2/5 60/2/5 59/2/5
f 68/2/5 66/2/5 53/2/5
f 68/2/5 67/2/5 66/2/5
f 69/2/5 67/2/5 68/2/5
f 70/5/5 64/5/5 63/5/5
f 70/2/5 63/2/5 45/2/5
f 70/5/5 65/5/5 64/5/5
f 71/3/5 42/3/5 65/3/5
f 71/5/5 65/5/5 70/5/5
f 72/2/5 53/2/5 42/2/5
f 72/3/5 42/3/5 71/3/5
f 72/2/5 68/2/5 53/2/5
f 73/2/5 62/2/5 67/2/5
f 73/2/5 67/2/5 69/2/5
f 73/2/5 52/2/5 62/2/5
f 74/2/5 18/2/5 52/2/5
f 74/2/5 52/2/5 73/2/5
f 75/2/5 72/2/5 71/2/5
f 75/2/5 71/2/5 70/2/5
f 76/2/5 68/2/5 72/2/5
f 76/2/5 72/2/5 75/2/5
f 76/4/5 69/4/5 68/4/5
f 77/4/5 69/4/5 76/4/5
f 78/2/5 73/2/5 69/2/5
f 78/4/5 69/4/5 77/4/5
f 79/2/5 73/2/5 78/2/5
f 80/2/5 73/2/5 79/2/5
f 81/2/5 75/2/5 70/2/5
f 81/2/5 70/2/5 45/2/5
f 82/2/5 75/2/5 81/2/5
f 83/2/5 73/2/5 80/2/5
f 83/4/5 74/4/5 73/4/5
f 84/4/5 74/4/5 83/4/5
f 85/2/5 18/2/5 74/2/5
f 85/4/5 74/4/5 84/4/5
f 86/2/5 75/2/5 82/2/5
f 86/3/5 77/3/5 76/3/5
f 86/3/5 76/3/5 75/3/5
f 87/3/5 77/3/5 86/3/5
f 88/3/5 77/3/5 87/3/5
f 89/3/5 77/3/5 88/3/5
f 90/3/5 77/3/5 89/3/5
f 91/2/5 86/2/5 82/2/5
f 91/4/5 87/4/5 86/4/5
f 92/2/5 88/2/5 87/2/5
f 92/4/5 87/4/5 91/4/5
f 93/3/5 89/3/5 88/3/5
f 93/2/5 88/2/5 92/2/5
f 94/2/5 90/2/5 89/2/5
f 94/3/5 89/3/5 93/3/5
f 95/3/5 77/3/5 90/3/5
f 95/2/5 90/2/5 94/2/5
f 96/2/5 91/2/5 82/2/5
f 97/3/5 94/3/5 93/3/5
f 97/2/5 91/2/5 96/2/5
f 97/3/5 93/3/5 92/3/5
f 97/3/5 95/3/5 94/3/5
f 97/3/5 92/3/5 91/3/5
f 98/3/5 95/3/5 97/3/5
f 99/3/5 95/3/5 98/3/5
f 100/3/5 77/3/5 95/3/5
f 100/3/5 95/3/5 99/3/5
f 101/3/5 77/3/5 100/3/5
f 102/3/5 77/3/5 101/3/5
f 103/3/5 82/3/5 81/3/5
f 103/2/5 81/2/5 45/2/5
f 104/2/5 96/2/5 82/2/5
f 104/3/5 82/3/5 103/3/5
f 105/5/5 97/5/5 96/5/5
f 105/2/5 98/2/5 97/2/5
f 106/3/5 99/3/5 98/3/5
f 106/2/5 98/2/5 105/2/5
f 107/2/5 100/2/5 99/2/5
f 107/3/5 99/3/5 106/3/5
f 108/3/5 101/3/5 100/3/5
f 108/2/5 100/2/5 107/2/5
f 109/3/5 101/3/5 108/3/5
f 110/2/5 102/2/5 101/2/5
f 110/3/5 101/3/5 109/3/5
f 111/3/5 80/3/5 79/3/5
f 111/2/5 78/2/5 77/2/5
f 111/2/5 79/2/5 78/2/5
f 112/3/5 80/3/5 111/3/5
f 113/5/5 105/5/5 96/5/5
f 113/2/5 96/2/5 104/2/5
f 113/2/5 104/2/5 103/2/5
f 114/3/5 108/3/5 107/3/5
f 114/5/5 105/5/5 113/5/5
f 114/3/5 109/3/5 108/3/5
f 114/3/5 107/3/5 106/3/5
f 114/3/5 106/3/5 105/3/5
f 115/2/5 110/2/5 109/2/5
f 115/3/5 109/3/5 114/3/5
f 116/3/5 77/3/5 102/3/5
f 116/2/5 110/2/5 115/2/5
f 116/2/5 102/2/5 110/2/5
f 117/2/5 112/2/5 111/2/5
f 117/2/5 111/2/5 77/2/5
f 118/3/5 80/3/5 112/3/5
f 118/2/5 112/2/5 117/2/5
f 119/3/5 80/3/5 118/3/5
f 120/3/5 84/3/5 83/3/5
f 120/2/5 83/2/5 80/2/5
f 121/2/5 85/2/5 84/2/5
f 121/3/5 84/3/5 120/3/5
f 122/3/5 115/3/5 114/3/5
f 122/3/5 116/3/5 115/3/5
f 123/3/5 116/3/5 122/3/5
f 124/2/5 119/2/5 118/2/5
f 124/3/5 118/3/5 117/3/5
f 125/3/5 80/3/5 119/3/5
f 125/2/5 119/2/5 124/2/5
f 126/3/5 80/3/5 125/3/5
f 127/3/5 80/3/5 126/3/5
f 128/2/5 114/2/5 113/2/5
f 128/3/5 122/3/5 114/3/5
f 129/2/5 123/2/5 122/2/5
f 129/3/5 122/3/5 128/3/5
f 130/3/5 116/3/5 123/3/5
f 130/2/5 123/2/5 129/2/5
f 131/3/5 77/3/5 116/3/5
f 131/3/5 116/3/5 130/3/5
f 131/2/5 117/2/5 77/2/5
f 132/3/5 126/3/5 125/3/5
f 132/2/5 127/2/5 126/2/5
f 132/3/5 125/3/5 124/3/5
f 133/3/5 80/3/5 127/3/5
f 133/2/5 127/2/5 132/2/5
f 134/2/5 85/2/5 121/2/5
f 134/2/5 121/2/5 120/2/5
f 135/2/5 18/2/5 85/2/5
f 135/2/5 85/2/5 134/2/5
f 136/2/5 130/2/5 129/2/5
f 136/2/5 129/2/5 128/2/5
f 136/2/5 113/2/5 103/2/5
f 136/2/5 131/2/5 130/2/5
f 136/2/5 128/2/5 113/2/5
f 137/2/5 131/2/5 136/2/5
f 138/2/5 117/2/5 131/2/5
f 138/2/5 131/2/5 137/2/5
f 139/3/5 124/3/5 117/3/5
f 139/2/5 117/2/5 138/2/5
f 139/3/5 132/3/5 124/3/5
f 139/3/5 133/3/5 132/3/5
f 140/3/5 133/3/5 139/3/5
f 141/2/5 134/2/5 120/2/5
f 141/3/5 133/3/5 140/3/5
f 141/3/5 80/3/5 133/3/5
f 141/2/5 120/2/5 80/2/5
f 142/2/5 134/2/5 141/2/5
f 143/2/5 134/2/5 142/2/5
f 144/4/5 135/4/5 134/4/5
f 144/2/5 134/2/5 143/2/5
f 145/2/5 18/2/5 135/2/5
f 145/4/5 135/4/5 144/4/5
f 146/2/5 136/2/5 103/2/5
f 146/5/5 137/5/5 136/5/5
f 147/2/5 138/2/5 137/2/5
f 147/5/5 137/5/5 146/5/5
f 148/2/5 138/2/5 147/2/5
f 149/2/5 138/2/5 148/2/5
f 150/2/5 146/2/5 103/2/5
f 150/2/5 103/2/5 45/2/5
f 150/2/5 147/2/5 146/2/5
f 150/2/5 148/2/5 147/2/5
f 151/2/5 148/2/5 150/2/5
f 152/2/5 148/2/5 151/2/5
f 153/2/5 148/2/5 152/2/5
f 154/5/5 143/5/5 142/5/5
f 154/2/5 141/2/5 140/2/5
f 154/2/5 142/2/5 141/2/5
f 155/2/5 144/2/5 143/2/5
f 155/5/5 143/5/5 154/5/5
f 155/2/5 145/2/5 144/2/5
f 156/2/5 145/2/5 155/2/5
f 157/2/5 138/2/5 149/2/5
f 157/5/5 139/5/5 138/5/5
f 158/3/5 140/3/5 139/3/5
f 158/5/5 139/5/5 157/5/5
f 159/3/5 156/3/5 155/3/5
f 159/2/5 154/2/5 140/2/5
f 159/3/5 155/3/5 154/3/5
f 160/3/5 156/3/5 159/3/5
f 161/3/5 140/3/5 158/3/5
f 161/2/5 158/2/5 157/2/5
f 162/2/5 160/2/5 159/2/5
f 162/3/5 140/3/5 161/3/5
f 162/2/5 159/2/5 140/2/5
f 163/2/5 160/2/5 162/2/5
f 164/3/5 156/3/5 160/3/5
f 164/2/5 160/2/5 163/2/5
f 165/3/5 151/3/5 150/3/5
f 165/2/5 152/2/5 151/2/5
f 166/2/5 152/2/5 165/2/5
f 167/3/5 149/3/5 148/3/5
f 167/2/5 148/2/5 153/2/5
f 168/3/5 149/3/5 167/3/5
f 169/2/5 157/2/5 149/2/5
f 169/3/5 149/3/5 168/3/5
f 169/2/5 163/2/5 162/2/5
f 169/2/5 161/2/5 157/2/5
f 169/2/5 162/2/5 161/2/5
f 170/2/5 163/2/5 169/2/5
f 171/3/5 165/3/5 150/3/5
f 171/3/5 166/3/5 165/3/5
f 172/3/5 166/3/5 171/3/5
f 173/2/5 152/2/5 166/2/5
f 173/3/5 153/3/5 152/3/5
f 174/2/5 168/2/5 167/2/5
f 174/3/5 153/3/5 173/3/5
f 174/2/5 167/2/5 153/2/5
f 175/2/5 168/2/5 174/2/5
f 176/3/5 170/3/5 169/3/5
f 176/2/5 168/2/5 175/2/5
f 176/3/5 169/3/5 168/3/5
f 177/3/5 171/3/5 150/3/5
f 177/2/5 172/2/5 171/2/5
f 178/3/5 166/3/5 172/3/5
f 178/2/5 172/2/5 177/2/5
f 179/2/5 175/2/5 174/2/5
f 179/2/5 174/2/5 173/2/5
f 180/3/5 176/3/5 175/3/5
f 180/2/5 175/2/5 179/2/5
f 181/2/5 163/2/5 170/2/5
f 182/2/5 163/2/5 181/2/5
f 183/3/5 164/3/5 163/3/5
f 183/2/5 163/2/5 182/2/5
f 184/3/5 166/3/5 178/3/5
f 184/3/5 178/3/5 177/3/5
f 185/2/5 173/2/5 166/2/5
f 185/3/5 166/3/5 184/3/5
f 185/2/5 179/2/5 173/2/5
f 186/2/5 181/2/5 170/2/5
f 186/1/5 182/1/5 181/1/5
f 187/3/5 183/3/5 182/3/5
f 187/1/5 182/1/5 186/1/5
f 188/3/5 184/3/5 177/3/5
f 188/3/5 177/3/5 150/3/5
f 188/2/5 150/2/5 45/2/5
f 189/5/5 185/5/5 184/5/5
f 189/3/5 184/3/5 188/3/5
f 190/2/5 179/2/5 185/2/5
f 190/3/5 180/3/5 179/3/5
f 191/3/5 170/3/5 176/3/5
f 191/3/5 180/3/5 190/3/5
f 191/2/5 187/2/5 186/2/5
f 191/2/5 186/2/5 170/2/5
f 191/3/5 176/3/5 180/3/5
f 192/3/5 183/3/5 187/3/5
f 192/2/5 187/2/5 191/2/5
f 193/2/5 145/2/5 156/2/5
f 193/3/5 183/3/5 192/3/5
f 193/3/5 164/3/5 183/3/5
f 193/3/5 156/3/5 164/3/5
f 194/2/5 189/2/5 188/2/5
f 194/5/5 185/5/5 189/5/5
f 195/2/5 191/2/5 190/2/5
f 195/5/5 185/5/5 194/5/5
f 195/2/5 192/2/5 191/2/5
f 195/2/5 190/2/5 185/2/5
f 195/2/5 193/2/5 192/2/5
f 196/2/5 194/2/5 188/2/5
f 196/2/5 188/2/5 45/2/5
f 196/2/5 195/2/5 194/2/5
f 196/2/5 45/2/5 17/2/5
f 197/2/5 193/2/5 195/2/5
f 197/2/5 195/2/5 196/2/5
f 197/2/5 18/2/5 145/2/5
f 197/2/5 145/2/5 193/2/5
f 198/2/6 199/2/6 200/2/6
f 200/2/6 199/2/6 201/2/6
f 201/2/6 199/2/6 202/2/6
f 202/2/6 199/2/6 203/2/6
f 203/2/6 199/2/6 204/2/6
f 204/2/6 199/2/6 205/2/6
f 201/2/6 202/2/6 206/2/6
f 202/5/6 203/5/6 206/5/6
f 203/2/6 204/2/6 207/2/6
f 206/5/6 203/5/6 207/5/6
f 207/2/6 204/2/6 208/2/6
f 208/2/6 204/2/6 209/2/6
f 204/4/6 205/4/6 210/4/6
f 209/2/6 204/2/6 210/2/6
f 205/2/6 199/2/6 211/2/6
f 210/4/6 205/4/6 211/4/6
f 211/2/6 199/2/6 212/2/6
f 212/2/6 199/2/6 213/2/6
f 198/2/6 200/2/6 214/2/6
f 200/3/6 201/3/6 214/3/6
f 214/3/6 201/3/6 215/3/6
f 209/2/6 210/2/6 216/2/6
f 210/2/6 211/2/6 216/2/6
f 211/2/6 212/2/6 216/2/6
f 216/2/6 212/2/6 217/2/6
f 214/2/6 215/2/6 218/2/6
f 198/2/6 214/2/6 218/2/6
f 215/3/6 201/3/6 219/3/6
f 218/2/6 215/2/6 219/2/6
f 208/3/6 209/3/6 220/3/6
f 220/3/6 209/3/6 221/3/6
f 201/2/6 206/2/6 222/2/6
f 206/2/6 207/2/6 222/2/6
f 207/2/6 208/2/6 222/2/6
f 222/2/6 208/2/6 223/2/6
f 220/2/6 221/2/6 224/2/6
f 208/3/6 220/3/6 224/3/6
f 221/3/6 209/3/6 225/3/6
f 224/2/6 221/2/6 225/2/6
f 198/2/6 218/2/6 226/2/6
f 218/3/6 219/3/6 226/3/6
f 219/3/6 201/3/6 227/3/6
f 226/3/6 219/3/6 227/3/6
f 201/2/6 222/2/6 227/2/6
f 209/2/6 216/2/6 228/2/6
f 216/3/6 217/3/6 229/3/6
f 228/2/6 216/2/6 229/2/6
f 229/3/6 217/3/6 230/3/6
f 230/3/6 217/3/6 231/3/6
f 212/4/6 213/4/6 232/4/6
f 217/2/6 212/2/6 232/2/6
f 213/2/6 199/2/6 233/2/6
f 232/4/6 213/4/6 233/4/6
f 208/3/6 224/3/6 234/3/6
f 223/2/6 208/2/6 234/2/6
f 224/3/6 225/3/6 234/3/6
f 225/3/6 209/3/6 235/3/6
f 234/3/6 225/3/6 235/3/6
f 209/2/6 228/2/6 235/2/6
f 235/2/6 228/2/6 236/2/6
f 236/2/6 228/2/6 237/2/6
f 231/3/6 217/3/6 238/3/6
f 230/2/6 231/2/6 238/2/6
f 217/2/6 232/2/6 239/2/6
f 238/3/6 217/3/6 239/3/6
f 232/2/6 233/2/6 239/2/6
f 237/2/6 228/2/6 240/2/6
f 228/5/6 229/5/6 240/5/6
f 229/5/6 230/5/6 240/5/6
f 230/2/6 238/2/6 241/2/6
f 240/5/6 230/5/6 241/5/6
f 238/4/6 239/4/6 242/4/6
f 241/2/6 238/2/6 242/2/6
f 239/2/6 233/2/6 243/2/6
f 242/4/6 239/4/6 243/4/6
f 227/2/6 222/2/6 244/2/6
f 226/2/6 227/2/6 244/2/6
f 222/3/6 223/3/6 245/3/6
f 244/2/6 222/2/6 245/2/6
f 245/3/6 223/3/6 246/3/6
f 235/2/6 236/2/6 247/2/6
f 236/4/6 237/4/6 247/4/6
f 234/2/6 235/2/6 247/2/6
f 237/2/6 240/2/6 248/2/6
f 247/4/6 237/4/6 248/4/6
f 241/2/6 242/2/6 248/2/6
f 242/2/6 243/2/6 248/2/6
f 240/2/6 241/2/6 248/2/6
f 234/2/6 247/2/6 249/2/6
f 247/2/6 248/2/6 249/2/6
f 249/2/6 248/2/6 250/2/6
f 244/5/6 245/5/6 251/5/6
f 226/2/6 244/2/6 251/2/6
f 245/5/6 246/5/6 251/5/6
f 246/3/6 223/3/6 252/3/6
f 251/5/6 246/5/6 252/5/6
f 223/2/6 234/2/6 253/2/6
f 252/3/6 223/3/6 253/3/6
f 234/2/6 249/2/6 253/2/6
f 248/2/6 243/2/6 254/2/6
f 250/2/6 248/2/6 254/2/6
f 243/2/6 233/2/6 254/2/6
f 233/2/6 199/2/6 255/2/6
f 254/2/6 233/2/6 255/2/6
f 252/2/6 253/2/6 256/2/6
f 251/2/6 252/2/6 256/2/6
f 253/2/6 249/2/6 257/2/6
f 256/2/6 253/2/6 257/2/6
f 249/4/6 250/4/6 257/4/6
f 257/4/6 250/4/6 258/4/6
f 250/2/6 254/2/6 259/2/6
f 258/4/6 250/4/6 259/4/6
f 259/2/6 254/2/6 260/2/6
f 260/2/6 254/2/6 261/2/6
f 251/2/6 256/2/6 262/2/6
f 226/2/6 251/2/6 262/2/6
f 262/2/6 256/2/6 263/2/6
f 261/2/6 254/2/6 264/2/6
f 254/4/6 255/4/6 264/4/6
f 264/4/6 255/4/6 265/4/6
f 255/2/6 199/2/6 266/2/6
f 265/4/6 255/4/6 266/4/6
f 263/2/6 256/2/6 267/2/6
f 257/3/6 258/3/6 267/3/6
f 256/3/6 257/3/6 267/3/6
f 267/3/6 258/3/6 268/3/6
f 268/3/6 258/3/6 269/3/6
f 269/3/6 258/3/6 270/3/6
f 270/3/6 258/3/6 271/3/6
f 263/2/6 267/2/6 272/2/6
f 267/4/6 268/4/6 272/4/6
f 268/2/6 269/2/6 273/2/6
f 272/4/6 268/4/6 273/4/6
f 269/3/6 270/3/6 274/3/6
f 273/2/6 269/2/6 274/2/6
f 270/2/6 271/2/6 275/2/6
f 274/3/6 270/3/6 275/3/6
f 271/3/6 258/3/6 276/3/6
f 275/2/6 271/2/6 276/2/6
f 263/2/6 272/2/6 277/2/6
f 274/3/6 275/3/6 278/3/6
f 277/2/6 272/2/6 278/2/6
f 273/3/6 274/3/6 278/3/6
f 275/3/6 276/3/6 278/3/6
f 272/3/6 273/3/6 278/3/6
f 278/3/6 276/3/6 279/3/6
f 279/3/6 276/3/6 280/3/6
f 276/3/6 258/3/6 281/3/6
f 280/3/6 276/3/6 281/3/6
f 281/3/6 258/3/6 282/3/6
f 282/3/6 258/3/6 283/3/6
f 262/3/6 263/3/6 284/3/6
f 226/2/6 262/2/6 284/2/6
f 263/2/6 277/2/6 285/2/6
f 284/3/6 263/3/6 285/3/6
f 277/5/6 278/5/6 286/5/6
f 278/2/6 279/2/6 286/2/6
f 279/3/6 280/3/6 287/3/6
f 286/2/6 279/2/6 287/2/6
f 280/2/6 281/2/6 288/2/6
f 287/3/6 280/3/6 288/3/6
f 281/3/6 282/3/6 289/3/6
f 288/2/6 281/2/6 289/2/6
f 289/3/6 282/3/6 290/3/6
f 282/2/6 283/2/6 291/2/6
f 290/3/6 282/3/6 291/3/6
f 260/3/6 261/3/6 292/3/6
f 258/2/6 259/2/6 292/2/6
f 259/2/6 260/2/6 292/2/6
f 292/3/6 261/3/6 293/3/6
f 277/5/6 286/5/6 294/5/6
f 285/2/6 277/2/6 294/2/6
f 284/2/6 285/2/6 294/2/6
f 288/3/6 289/3/6 295/3/6
f 294/5/6 286/5/6 295/5/6
f 289/3/6 290/3/6 295/3/6
f 287/3/6 288/3/6 295/3/6
f 286/3/6 287/3/6 295/3/6
f 290/2/6 291/2/6 296/2/6
f 295/3/6 290/3/6 296/3/6
f 283/3/6 258/3/6 297/3/6
f 296/2/6 291/2/6 297/2/6
f 291/2/6 283/2/6 297/2/6
f 292/2/6 293/2/6 298/2/6
f 258/2/6 292/2/6 298/2/6
f 293/3/6 261/3/6 299/3/6
f 298/2/6 293/2/6 299/2/6
f 299/3/6 261/3/6 300/3/6
f 264/3/6 265/3/6 301/3/6
f 261/2/6 264/2/6 301/2/6
f 265/2/6 266/2/6 302/2/6
f 301/3/6 265/3/6 302/3/6
f 295/3/6 296/3/6 303/3/6
f 296/3/6 297/3/6 303/3/6
f 303/3/6 297/3/6 304/3/6
f 299/2/6 300/2/6 305/2/6
f 298/3/6 299/3/6 305/3/6
f 300/3/6 261/3/6 306/3/6
f 305/2/6 300/2/6 306/2/6
f 306/3/6 261/3/6 307/3/6
f 307/3/6 261/3/6 308/3/6
f 294/2/6 295/2/6 309/2/6
f 295/3/6 303/3/6 309/3/6
f 303/2/6 304/2/6 310/2/6
f 309/3/6 303/3/6 310/3/6
f 304/3/6 297/3/6 311/3/6
f 310/2/6 304/2/6 311/2/6
f 297/3/6 258/3/6 312/3/6
f 311/3/6 297/3/6 312/3/6
f 258/2/6 298/2/6 312/2/6
f 306/3/6 307/3/6 313/3/6
f 307/2/6 308/2/6 313/2/6
f 305/3/6 306/3/6 313/3/6
f 308/3/6 261/3/6 314/3/6
f 313/2/6 308/2/6 314/2/6
f 302/2/6 266/2/6 315/2/6
f 301/2/6 302/2/6 315/2/6
f 266/2/6 199/2/6 316/2/6
f 315/2/6 266/2/6 316/2/6
f 310/2/6 311/2/6 317/2/6
f 309/2/6 310/2/6 317/2/6
f 284/2/6 294/2/6 317/2/6
f 311/2/6 312/2/6 317/2/6
f 294/2/6 309/2/6 317/2/6
f 317/2/6 312/2/6 318/2/6
f 312/2/6 298/2/6 319/2/6
f 318/2/6 312/2/6 319/2/6
f 298/3/6 305/3/6 320/3/6
f 319/2/6 298/2/6 320/2/6
f 305/3/6 313/3/6 320/3/6
f 313/3/6 314/3/6 320/3/6
f 320/3/6 314/3/6 321/3/6
f 301/2/6 315/2/6 322/2/6
f 321/3/6 314/3/6 322/3/6
f 314/3/6 261/3/6 322/3/6
f 261/2/6 301/2/6 322/2/6
f 322/2/6 315/2/6 323/2/6
f 323/2/6 315/2/6 324/2/6
f 315/4/6 316/4/6 325/4/6
f 324/2/6 315/2/6 325/2/6
f 316/2/6 199/2/6 326/2/6
f 325/4/6 316/4/6 326/4/6
f 284/2/6 317/2/6 327/2/6
f 317/5/6 318/5/6 327/5/6
f 318/2/6 319/2/6 328/2/6
f 327/5/6 318/5/6 328/5/6
f 328/2/6 319/2/6 329/2/6
f 329/2/6 319/2/6 330/2/6
f 284/2/6 327/2/6 331/2/6
f 226/2/6 284/2/6 331/2/6
f 327/2/6 328/2/6 331/2/6
f 328/2/6 329/2/6 331/2/6
f 331/2/6 329/2/6 332/2/6
f 332/2/6 329/2/6 333/2/6
f 333/2/6 329/2/6 334/2/6
f 323/5/6 324/5/6 335/5/6
f 321/2/6 322/2/6 335/2/6
f 322/2/6 323/2/6 335/2/6
f 324/2/6 325/2/6 336/2/6
f 335/5/6 324/5/6 336/5/6
f 325/2/6 326/2/6 336/2/6
f 336/2/6 326/2/6 337/2/6
f 330/2/6 319/2/6 338/2/6
f 319/5/6 320/5/6 338/5/6
f 320/3/6 321/3/6 339/3/6
f 338/5/6 320/5/6 339/5/6
f 336/3/6 337/3/6 340/3/6
f 321/2/6 335/2/6 340/2/6
f 335/3/6 336/3/6 340/3/6
f 340/3/6 337/3/6 341/3/6
f 339/3/6 321/3/6 342/3/6
f 338/2/6 339/2/6 342/2/6
f 340/2/6 341/2/6 343/2/6
f 342/3/6 321/3/6 343/3/6
f 321/2/6 340/2/6 343/2/6
f 343/2/6 341/2/6 344/2/6
f 341/3/6 337/3/6 345/3/6
f 344/2/6 341/2/6 345/2/6
f 331/3/6 332/3/6 346/3/6
f 332/2/6 333/2/6 346/2/6
f 346/2/6 333/2/6 347/2/6
f 329/3/6 330/3/6 348/3/6
f 334/2/6 329/2/6 348/2/6
f 348/3/6 330/3/6 349/3/6
f 330/2/6 338/2/6 350/2/6
f 349/3/6 330/3/6 350/3/6
f 343/2/6 344/2/6 350/2/6
f 338/2/6 342/2/6 350/2/6
f 342/2/6 343/2/6 350/2/6
f 350/2/6 344/2/6 351/2/6
f 331/3/6 346/3/6 352/3/6
f 346/3/6 347/3/6 352/3/6
f 352/3/6 347/3/6 353/3/6
f 347/2/6 333/2/6 354/2/6
f 333/3/6 334/3/6 354/3/6
f 348/2/6 349/2/6 355/2/6
f 354/3/6 334/3/6 355/3/6
f 334/2/6 348/2/6 355/2/6
f 355/2/6 349/2/6 356/2/6
f 350/3/6 351/3/6 357/3/6
f 356/2/6 349/2/6 357/2/6
f 349/3/6 350/3/6 357/3/6
f 331/3/6 352/3/6 358/3/6
f 352/2/6 353/2/6 358/2/6
f 353/3/6 347/3/6 359/3/6
f 358/2/6 353/2/6 359/2/6
f 355/2/6 356/2/6 360/2/6
f 354/2/6 355/2/6 360/2/6
f 356/3/6 357/3/6 361/3/6
f 360/2/6 356/2/6 361/2/6
f 351/2/6 344/2/6 362/2/6
f 362/2/6 344/2/6 363/2/6
f 344/3/6 345/3/6 364/3/6
f 363/2/6 344/2/6 364/2/6
f 359/3/6 347/3/6 365/3/6
f 358/3/6 359/3/6 365/3/6
f 347/2/6 354/2/6 366/2/6
f 365/3/6 347/3/6 366/3/6
f 354/2/6 360/2/6 366/2/6
f 351/2/6 362/2/6 367/2/6
f 362/1/6 363/1/6 367/1/6
f 363/3/6 364/3/6 368/3/6
f 367/1/6 363/1/6 368/1/6
f 358/3/6 365/3/6 369/3/6
f 331/3/6 358/3/6 369/3/6
f 226/2/6 331/2/6 369/2/6
f 365/5/6 366/5/6 370/5/6
f 369/3/6 365/3/6 370/3/6
f 366/2/6 360/2/6 371/2/6
f 360/3/6 361/3/6 371/3/6
f 357/3/6 351/3/6 372/3/6
f 371/3/6 361/3/6 372/3/6
f 367/2/6 368/2/6 372/2/6
f 351/2/6 367/2/6 372/2/6
f 361/3/6 357/3/6 372/3/6
f 368/3/6 364/3/6 373/3/6
f 372/2/6 368/2/6 373/2/6
f 337/2/6 326/2/6 374/2/6
f 373/3/6 364/3/6 374/3/6
f 364/3/6 345/3/6 374/3/6
f 345/3/6 337/3/6 374/3/6
f 369/2/6 370/2/6 375/2/6
f 370/5/6 366/5/6 375/5/6
f 371/2/6 372/2/6 376/2/6
f 375/5/6 366/5/6 376/5/6
f 372/2/6 373/2/6 376/2/6
f 366/2/6 371/2/6 376/2/6
f 373/2/6 374/2/6 376/2/6
f 369/2/6 375/2/6 377/2/6
f 226/2/6 369/2/6 377/2/6
f 375/2/6 376/2/6 377/2/6
f 198/2/6 226/2/6 377/2/6
f 376/2/6 374/2/6 378/2/6
f 377/2/6 376/2/6 378/2/6
f 326/2/6 199/2/6 378/2/6
f 374/2/6 326/2/6 378/2/6
