# MagicaVoxel @ Ephtracy

# group
o 

# material
mtllib Plane1.mtl
usemtl palette

# normals
vn -1 0 0
vn 1 0 0
vn 0 0 1
vn 0 0 -1
vn 0 -1 0
vn 0 1 0

# texcoords
vt 0.962891 0.5
vt 0.966797 0.5
vt 0.982422 0.5
vt 0.994141 0.5

# verts
v -2 0.2 0.5
v -2 0.2 0.2
v -2 0.3 0.5
v -2 0.3 0.2
v -1.9 0.2 0.2
v -1.9 0.2 0.1
v -1.9 0.3 0.2
v -1.9 0.3 0.1
v -1.8 0.2 0.1
v -1.8 0.2 0
v -1.8 0.3 0.1
v -1.8 0.3 0
v -1.2 0 0.5
v -1.2 0 0.4
v -1.2 0 0
v -1.2 0.1 0.5
v -1.2 0.1 0.4
v -1.2 0.2 0.5
v -1.2 0.2 0.1
v -1.2 0.2 0
v -0.8 0.2 -1.3
v -0.8 0.2 -1.4
v -0.8 0.3 -1.3
v -0.8 0.3 -1.4
v -0.7 0.2 -1.2
v -0.7 0.2 -1.3
v -0.7 0.3 -1.2
v -0.7 0.3 -1.3
v -0.6 0.1 -1.2
v -0.6 0.1 -1.4
v -0.6 0.2 -1.1
v -0.6 0.2 -1.2
v -0.6 0.2 -1.4
v -0.6 0.3 -1.1
v -0.6 0.3 -1.2
v -0.5 0.2 -1
v -0.5 0.2 -1.1
v -0.5 0.3 -1
v -0.5 0.3 -1.1
v -0.4 0.1 -1
v -0.4 0.1 -1.2
v -0.4 0.2 -1
v -0.4 0.2 -1.2
v -0.3 0.1 1.1
v -0.3 0.1 0.7
v -0.3 0.1 -0.6
v -0.3 0.1 -1
v -0.3 0.2 1.1
v -0.3 0.2 0.8
v -0.3 0.2 0.7
v -0.3 0.2 0.6
v -0.3 0.2 0.5
v -0.3 0.2 0
v -0.3 0.2 -0.1
v -0.3 0.2 -0.2
v -0.3 0.2 -0.4
v -0.3 0.2 -0.5
v -0.3 0.2 -0.7
v -0.3 0.2 -0.8
v -0.3 0.3 0.7
v -0.3 0.3 0.6
v -0.3 0.3 0.5
v -0.3 0.3 0
v -0.3 0.3 -0.1
v -0.3 0.3 -0.2
v -0.3 0.3 -0.4
v -0.3 0.3 -0.5
v -0.3 0.3 -0.7
v -0.3 0.3 -0.8
v -0.3 0.3 -1
v -0.3 0.3 -1.3
v -0.3 0.4 1.1
v -0.3 0.4 0.8
v -0.3 0.4 0.7
v -0.3 0.4 -0.6
v -0.3 0.4 -1.3
v -0.2 0 0.9
v -0.2 0 0.7
v -0.2 0 -0.1
v -0.2 0.1 0.9
v -0.2 0.1 0.7
v -0.2 0.1 -0.1
v -0.2 0.4 1.1
v -0.2 0.4 0.8
v -0.2 0.4 0.7
v -0.2 0.4 -0.6
v -0.2 0.4 -1.2
v -0.2 0.5 1.1
v -0.2 0.5 0.8
v -0.2 0.5 0.7
v -0.2 0.5 -0.6
v -0.2 0.5 -1.2
v -0.0999999 0 1
v -0.0999999 0 0.9
v -0.0999999 0 -0.1
v -0.0999999 0 -0.6
v -0.0999999 0.1 1
v -0.0999999 0.1 0.9
v -0.0999999 0.1 -0.1
v -0.0999999 0.1 -0.6
v -0.0999999 0.3 -1.3
v -0.0999999 0.3 -1.4
v -0.0999999 0.4 -1.2
v -0.0999999 0.4 -1.3
v -0.0999999 0.5 -0.8
v -0.0999999 0.5 -1.2
v -0.0999999 0.6 -0.8
v -0.0999999 0.6 -0.9
v -0.0999999 0.7 -0.9
v -0.0999999 0.7 -1.1
v -0.0999999 0.8 -1.1
v -0.0999999 0.8 -1.2
v -0.0999999 0.9 -1.2
v -0.0999999 0.9 -1.3
v -0.0999999 1 -1.3
v -0.0999999 1 -1.4
v 0.9 0 0.5
v 0.9 0 0.4
v 0.9 0 0
v 0.9 0.1 0.5
v 0.9 0.1 0.4
v 0.9 0.2 0.5
v 0.9 0.2 0.1
v 0.9 0.2 0
v -0.9 0 0.5
v -0.9 0 0.4
v -0.9 0 0
v -0.9 0.1 0.5
v -0.9 0.1 0.4
v -0.9 0.2 0.5
v -0.9 0.2 0.1
v -0.9 0.2 0
v 0.1 0 1
v 0.1 0 0.9
v 0.1 0 -0.1
v 0.1 0 -0.6
v 0.1 0.1 1
v 0.1 0.1 0.9
v 0.1 0.1 -0.1
v 0.1 0.1 -0.6
v 0.1 0.3 -1.3
v 0.1 0.3 -1.4
v 0.1 0.4 -1.2
v 0.1 0.4 -1.3
v 0.1 0.5 -0.8
v 0.1 0.5 -1.2
v 0.1 0.6 -0.8
v 0.1 0.6 -0.9
v 0.1 0.7 -0.9
v 0.1 0.7 -1.1
v 0.1 0.8 -1.1
v 0.1 0.8 -1.2
v 0.1 0.9 -1.2
v 0.1 0.9 -1.3
v 0.1 1 -1.3
v 0.1 1 -1.4
v 0.2 0 0.9
v 0.2 0 0.7
v 0.2 0 -0.1
v 0.2 0.1 0.9
v 0.2 0.1 0.7
v 0.2 0.1 -0.1
v 0.2 0.4 1.1
v 0.2 0.4 0.8
v 0.2 0.4 0.7
v 0.2 0.4 -0.6
v 0.2 0.4 -1.2
v 0.2 0.5 1.1
v 0.2 0.5 0.8
v 0.2 0.5 0.7
v 0.2 0.5 -0.6
v 0.2 0.5 -1.2
v 0.3 0.1 1.1
v 0.3 0.1 0.7
v 0.3 0.1 -0.6
v 0.3 0.1 -1
v 0.3 0.2 1.1
v 0.3 0.2 0.8
v 0.3 0.2 0.7
v 0.3 0.2 0.6
v 0.3 0.2 0.5
v 0.3 0.2 0
v 0.3 0.2 -0.1
v 0.3 0.2 -0.2
v 0.3 0.2 -0.4
v 0.3 0.2 -0.5
v 0.3 0.2 -0.7
v 0.3 0.2 -0.8
v 0.3 0.3 0.7
v 0.3 0.3 0.6
v 0.3 0.3 0.5
v 0.3 0.3 0
v 0.3 0.3 -0.1
v 0.3 0.3 -0.2
v 0.3 0.3 -0.4
v 0.3 0.3 -0.5
v 0.3 0.3 -0.7
v 0.3 0.3 -0.8
v 0.3 0.3 -1
v 0.3 0.3 -1.3
v 0.3 0.4 1.1
v 0.3 0.4 0.8
v 0.3 0.4 0.7
v 0.3 0.4 -0.6
v 0.3 0.4 -1.3
v 0.4 0.1 -1
v 0.4 0.1 -1.2
v 0.4 0.2 -1
v 0.4 0.2 -1.2
v 0.5 0.2 -1
v 0.5 0.2 -1.1
v 0.5 0.3 -1
v 0.5 0.3 -1.1
v 0.6 0.1 -1.2
v 0.6 0.1 -1.4
v 0.6 0.2 -1.1
v 0.6 0.2 -1.2
v 0.6 0.2 -1.4
v 0.6 0.3 -1.1
v 0.6 0.3 -1.2
v 0.7 0.2 -1.2
v 0.7 0.2 -1.3
v 0.7 0.3 -1.2
v 0.7 0.3 -1.3
v 0.8 0.2 -1.3
v 0.8 0.2 -1.4
v 0.8 0.3 -1.3
v 0.8 0.3 -1.4
v 1.2 0 0.5
v 1.2 0 0.4
v 1.2 0 0
v 1.2 0.1 0.5
v 1.2 0.1 0.4
v 1.2 0.2 0.5
v 1.2 0.2 0.1
v 1.2 0.2 0
v 1.8 0.2 0.1
v 1.8 0.2 0
v 1.8 0.3 0.1
v 1.8 0.3 0
v 1.9 0.2 0.2
v 1.9 0.2 0.1
v 1.9 0.3 0.2
v 1.9 0.3 0.1
v 2 0.2 0.5
v 2 0.2 0.2
v 2 0.3 0.5
v 2 0.3 0.2
v -0.3 0.1 1.1
v -0.3 0.2 1.1
v -0.3 0.4 1.1
v -0.2 0.4 1.1
v -0.2 0.5 1.1
v 0.2 0.4 1.1
v 0.2 0.5 1.1
v 0.3 0.1 1.1
v 0.3 0.2 1.1
v 0.3 0.4 1.1
v -0.0999999 0 1
v -0.0999999 0.1 1
v 0.1 0 1
v 0.1 0.1 1
v -0.2 0 0.9
v -0.2 0.1 0.9
v -0.0999999 0 0.9
v -0.0999999 0.1 0.9
v 0.1 0 0.9
v 0.1 0.1 0.9
v 0.2 0 0.9
v 0.2 0.1 0.9
v -2 0.2 0.5
v -2 0.3 0.5
v -1.7 0.2 0.5
v -1.7 0.3 0.5
v -1.2 0 0.5
v -1.2 0.1 0.5
v -1.2 0.2 0.5
v -1.1 0 0.5
v -1.1 0.1 0.5
v -1.1 0.2 0.5
v -1 0 0.5
v -1 0.1 0.5
v -1 0.2 0.5
v -0.9 0 0.5
v -0.9 0.1 0.5
v -0.9 0.2 0.5
v -0.5 0.2 0.5
v -0.5 0.3 0.5
v -0.3 0.2 0.5
v -0.3 0.3 0.5
v 0.3 0.2 0.5
v 0.3 0.3 0.5
v 0.5 0.2 0.5
v 0.5 0.3 0.5
v 0.9 0 0.5
v 0.9 0.1 0.5
v 0.9 0.2 0.5
v 1 0 0.5
v 1 0.1 0.5
v 1 0.2 0.5
v 1.1 0 0.5
v 1.1 0.1 0.5
v 1.1 0.2 0.5
v 1.2 0 0.5
v 1.2 0.1 0.5
v 1.2 0.2 0.5
v 1.7 0.2 0.5
v 1.7 0.3 0.5
v 2 0.2 0.5
v 2 0.3 0.5
v -0.0999999 0.5 -0.8
v -0.0999999 0.6 -0.8
v 0.1 0.5 -0.8
v 0.1 0.6 -0.8
v -0.0999999 0.6 -0.9
v -0.0999999 0.7 -0.9
v 0.1 0.6 -0.9
v 0.1 0.7 -0.9
v -0.5 0.2 -1
v -0.5 0.3 -1
v -0.4 0.1 -1
v -0.4 0.2 -1
v -0.3 0.1 -1
v -0.3 0.3 -1
v 0.3 0.1 -1
v 0.3 0.3 -1
v 0.4 0.1 -1
v 0.4 0.2 -1
v 0.5 0.2 -1
v 0.5 0.3 -1
v -0.6 0.2 -1.1
v -0.6 0.3 -1.1
v -0.5 0.2 -1.1
v -0.5 0.3 -1.1
v -0.0999999 0.7 -1.1
v -0.0999999 0.8 -1.1
v 0.1 0.7 -1.1
v 0.1 0.8 -1.1
v 0.5 0.2 -1.1
v 0.5 0.3 -1.1
v 0.6 0.2 -1.1
v 0.6 0.3 -1.1
v -0.7 0.2 -1.2
v -0.7 0.3 -1.2
v -0.6 0.1 -1.2
v -0.6 0.2 -1.2
v -0.6 0.3 -1.2
v -0.4 0.1 -1.2
v -0.4 0.2 -1.2
v -0.0999999 0.8 -1.2
v -0.0999999 0.9 -1.2
v 0.1 0.8 -1.2
v 0.1 0.9 -1.2
v 0.4 0.1 -1.2
v 0.4 0.2 -1.2
v 0.6 0.1 -1.2
v 0.6 0.2 -1.2
v 0.6 0.3 -1.2
v 0.7 0.2 -1.2
v 0.7 0.3 -1.2
v -0.8 0.2 -1.3
v -0.8 0.3 -1.3
v -0.7 0.2 -1.3
v -0.7 0.3 -1.3
v -0.0999999 0.9 -1.3
v -0.0999999 1 -1.3
v 0.1 0.9 -1.3
v 0.1 1 -1.3
v 0.7 0.2 -1.3
v 0.7 0.3 -1.3
v 0.8 0.2 -1.3
v 0.8 0.3 -1.3
v -2 0.2 0.2
v -2 0.3 0.2
v -1.9 0.2 0.2
v -1.9 0.3 0.2
v 1.9 0.2 0.2
v 1.9 0.3 0.2
v 2 0.2 0.2
v 2 0.3 0.2
v -1.9 0.2 0.1
v -1.9 0.3 0.1
v -1.8 0.2 0.1
v -1.8 0.3 0.1
v 1.8 0.2 0.1
v 1.8 0.3 0.1
v 1.9 0.2 0.1
v 1.9 0.3 0.1
v -1.8 0.2 0
v -1.8 0.3 0
v -1.2 0 0
v -1.2 0.2 0
v -1.1 0.1 0
v -1.1 0.2 0
v -1 0.1 0
v -1 0.2 0
v -0.9 0 0
v -0.9 0.2 0
v -0.3 0.2 0
v -0.3 0.3 0
v 0.3 0.2 0
v 0.3 0.3 0
v 0.9 0 0
v 0.9 0.2 0
v 1 0.1 0
v 1 0.2 0
v 1.1 0.1 0
v 1.1 0.2 0
v 1.2 0 0
v 1.2 0.2 0
v 1.8 0.2 0
v 1.8 0.3 0
v -0.2 0 -0.1
v -0.2 0.1 -0.1
v -0.0999999 0 -0.1
v -0.0999999 0.1 -0.1
v 0.1 0 -0.1
v 0.1 0.1 -0.1
v 0.2 0 -0.1
v 0.2 0.1 -0.1
v -0.0999999 0 -0.6
v -0.0999999 0.1 -0.6
v 0.1 0 -0.6
v 0.1 0.1 -0.6
v -0.2 0.4 -1.2
v -0.2 0.5 -1.2
v -0.0999999 0.4 -1.2
v -0.0999999 0.5 -1.2
v 0.1 0.4 -1.2
v 0.1 0.5 -1.2
v 0.2 0.4 -1.2
v 0.2 0.5 -1.2
v -0.3 0.3 -1.3
v -0.3 0.4 -1.3
v -0.0999999 0.3 -1.3
v -0.0999999 0.4 -1.3
v 0.1 0.3 -1.3
v 0.1 0.4 -1.3
v 0.3 0.3 -1.3
v 0.3 0.4 -1.3
v -0.8 0.2 -1.4
v -0.8 0.3 -1.4
v -0.6 0.1 -1.4
v -0.6 0.2 -1.4
v -0.0999999 0.3 -1.4
v -0.0999999 1 -1.4
v 0.1 0.3 -1.4
v 0.1 1 -1.4
v 0.6 0.1 -1.4
v 0.6 0.2 -1.4
v 0.8 0.2 -1.4
v 0.8 0.3 -1.4
v -0.0999999 0 1
v 0.1 0 1
v -0.2 0 0.9
v -0.0999999 0 0.9
v 0.1 0 0.9
v 0.2 0 0.9
v -0.2 0 0.7
v 0.2 0 0.7
v -1.2 0 0.5
v -1.1 0 0.5
v -1 0 0.5
v -0.9 0 0.5
v 0.9 0 0.5
v 1 0 0.5
v 1.1 0 0.5
v 1.2 0 0.5
v -1.2 0 0.4
v -1.1 0 0.4
v -1 0 0.4
v -0.9 0 0.4
v 0.9 0 0.4
v 1 0 0.4
v 1.1 0 0.4
v 1.2 0 0.4
v -1.2 0 0
v -0.9 0 0
v 0.9 0 0
v 1.2 0 0
v -0.2 0 -0.1
v -0.0999999 0 -0.1
v 0.1 0 -0.1
v 0.2 0 -0.1
v -0.0999999 0 -0.6
v 0.1 0 -0.6
v -0.3 0.1 1.1
v 0.3 0.1 1.1
v -0.0999999 0.1 1
v 0.1 0.1 1
v -0.2 0.1 0.9
v -0.0999999 0.1 0.9
v 0.1 0.1 0.9
v 0.2 0.1 0.9
v -0.3 0.1 0.7
v -0.2 0.1 0.7
v 0.2 0.1 0.7
v 0.3 0.1 0.7
v -0.2 0.1 -0.1
v -0.0999999 0.1 -0.1
v 0.1 0.1 -0.1
v 0.2 0.1 -0.1
v -0.3 0.1 -0.6
v -0.0999999 0.1 -0.6
v 0.1 0.1 -0.6
v 0.3 0.1 -0.6
v -0.4 0.1 -1
v -0.3 0.1 -1
v 0.3 0.1 -1
v 0.4 0.1 -1
v -0.6 0.1 -1.2
v -0.4 0.1 -1.2
v 0.4 0.1 -1.2
v 0.6 0.1 -1.2
v -0.6 0.1 -1.4
v 0.6 0.1 -1.4
v -2 0.2 0.5
v -1.7 0.2 0.5
v -1.2 0.2 0.5
v -0.9 0.2 0.5
v -0.5 0.2 0.5
v -0.3 0.2 0.5
v 0.3 0.2 0.5
v 0.5 0.2 0.5
v 0.9 0.2 0.5
v 1.2 0.2 0.5
v 1.7 0.2 0.5
v 2 0.2 0.5
v -2 0.2 0.2
v -1.9 0.2 0.2
v 1.9 0.2 0.2
v 2 0.2 0.2
v -1.9 0.2 0.1
v -1.8 0.2 0.1
v -1.7 0.2 0.1
v -1.2 0.2 0.1
v -0.9 0.2 0.1
v -0.5 0.2 0.1
v 0.5 0.2 0.1
v 0.9 0.2 0.1
v 1.2 0.2 0.1
v 1.7 0.2 0.1
v 1.8 0.2 0.1
v 1.9 0.2 0.1
v -1.8 0.2 0
v -1.2 0.2 0
v -0.9 0.2 0
v -0.3 0.2 0
v 0.3 0.2 0
v 0.9 0.2 0
v 1.2 0.2 0
v 1.8 0.2 0
v -0.5 0.2 -1
v -0.4 0.2 -1
v 0.4 0.2 -1
v 0.5 0.2 -1
v -0.6 0.2 -1.1
v -0.5 0.2 -1.1
v 0.5 0.2 -1.1
v 0.6 0.2 -1.1
v -0.7 0.2 -1.2
v -0.6 0.2 -1.2
v -0.4 0.2 -1.2
v 0.4 0.2 -1.2
v 0.6 0.2 -1.2
v 0.7 0.2 -1.2
v -0.8 0.2 -1.3
v -0.7 0.2 -1.3
v 0.7 0.2 -1.3
v 0.8 0.2 -1.3
v -0.8 0.2 -1.4
v -0.6 0.2 -1.4
v 0.6 0.2 -1.4
v 0.8 0.2 -1.4
v -2 0.3 0.5
v -1.7 0.3 0.5
v -0.5 0.3 0.5
v -0.3 0.3 0.5
v 0.3 0.3 0.5
v 0.5 0.3 0.5
v 1.7 0.3 0.5
v 2 0.3 0.5
v -2 0.3 0.2
v -1.9 0.3 0.2
v 1.9 0.3 0.2
v 2 0.3 0.2
v -1.9 0.3 0.1
v -1.8 0.3 0.1
v -1.7 0.3 0.1
v -0.5 0.3 0.1
v 0.5 0.3 0.1
v 1.7 0.3 0.1
v 1.8 0.3 0.1
v 1.9 0.3 0.1
v -1.8 0.3 0
v -0.3 0.3 0
v 0.3 0.3 0
v 1.8 0.3 0
v -0.5 0.3 -1
v -0.3 0.3 -1
v 0.3 0.3 -1
v 0.5 0.3 -1
v -0.6 0.3 -1.1
v -0.5 0.3 -1.1
v 0.5 0.3 -1.1
v 0.6 0.3 -1.1
v -0.7 0.3 -1.2
v -0.6 0.3 -1.2
v 0.6 0.3 -1.2
v 0.7 0.3 -1.2
v -0.8 0.3 -1.3
v -0.7 0.3 -1.3
v -0.3 0.3 -1.3
v -0.0999999 0.3 -1.3
v 0.1 0.3 -1.3
v 0.3 0.3 -1.3
v 0.7 0.3 -1.3
v 0.8 0.3 -1.3
v -0.8 0.3 -1.4
v -0.0999999 0.3 -1.4
v 0.1 0.3 -1.4
v 0.8 0.3 -1.4
v -0.3 0.4 1.1
v -0.2 0.4 1.1
v 0.2 0.4 1.1
v 0.3 0.4 1.1
v -0.3 0.4 0.8
v -0.2 0.4 0.8
v 0.2 0.4 0.8
v 0.3 0.4 0.8
v -0.3 0.4 0.7
v -0.2 0.4 0.7
v 0.2 0.4 0.7
v 0.3 0.4 0.7
v -0.3 0.4 -0.6
v -0.2 0.4 -0.6
v 0.2 0.4 -0.6
v 0.3 0.4 -0.6
v -0.2 0.4 -1.2
v -0.0999999 0.4 -1.2
v 0.1 0.4 -1.2
v 0.2 0.4 -1.2
v -0.3 0.4 -1.3
v -0.0999999 0.4 -1.3
v 0.1 0.4 -1.3
v 0.3 0.4 -1.3
v -0.2 0.5 1.1
v 0.2 0.5 1.1
v -0.2 0.5 0.8
v 0.2 0.5 0.8
v -0.2 0.5 0.7
v 0.2 0.5 0.7
v -0.2 0.5 -0.6
v 0.2 0.5 -0.6
v -0.0999999 0.5 -0.8
v 0.1 0.5 -0.8
v -0.2 0.5 -1.2
v -0.0999999 0.5 -1.2
v 0.1 0.5 -1.2
v 0.2 0.5 -1.2
v -0.0999999 0.6 -0.8
v 0.1 0.6 -0.8
v -0.0999999 0.6 -0.9
v 0.1 0.6 -0.9
v -0.0999999 0.7 -0.9
v 0.1 0.7 -0.9
v -0.0999999 0.7 -1.1
v 0.1 0.7 -1.1
v -0.0999999 0.8 -1.1
v 0.1 0.8 -1.1
v -0.0999999 0.8 -1.2
v 0.1 0.8 -1.2
v -0.0999999 0.9 -1.2
v 0.1 0.9 -1.2
v -0.0999999 0.9 -1.3
v 0.1 0.9 -1.3
v -0.0999999 1 -1.3
v 0.1 1 -1.3
v -0.0999999 1 -1.4
v 0.1 1 -1.4

# faces
f 3/1/1 2/1/1 1/1/1
f 4/1/1 2/1/1 3/1/1
f 7/1/1 6/1/1 5/1/1
f 8/1/1 6/1/1 7/1/1
f 11/1/1 10/1/1 9/1/1
f 12/1/1 10/1/1 11/1/1
f 16/4/1 14/4/1 13/4/1
f 17/3/1 15/3/1 14/3/1
f 17/4/1 14/4/1 16/4/1
f 18/3/1 17/3/1 16/3/1
f 19/3/1 15/3/1 17/3/1
f 19/3/1 17/3/1 18/3/1
f 20/3/1 15/3/1 19/3/1
f 23/1/1 22/1/1 21/1/1
f 24/1/1 22/1/1 23/1/1
f 27/1/1 26/1/1 25/1/1
f 28/1/1 26/1/1 27/1/1
f 32/1/1 30/1/1 29/1/1
f 33/1/1 30/1/1 32/1/1
f 34/1/1 32/1/1 31/1/1
f 35/1/1 32/1/1 34/1/1
f 38/1/1 37/1/1 36/1/1
f 39/1/1 37/1/1 38/1/1
f 42/1/1 41/1/1 40/1/1
f 43/1/1 41/1/1 42/1/1
f 48/1/1 45/1/1 44/1/1
f 49/1/1 45/1/1 48/1/1
f 50/2/1 46/2/1 45/2/1
f 50/1/1 45/1/1 49/1/1
f 51/2/1 46/2/1 50/2/1
f 52/2/1 46/2/1 51/2/1
f 53/2/1 46/2/1 52/2/1
f 54/2/1 46/2/1 53/2/1
f 55/2/1 46/2/1 54/2/1
f 56/2/1 46/2/1 55/2/1
f 57/2/1 46/2/1 56/2/1
f 58/1/1 47/1/1 46/1/1
f 59/1/1 47/1/1 58/1/1
f 60/1/1 50/1/1 49/1/1
f 60/4/1 51/4/1 50/4/1
f 61/2/1 52/2/1 51/2/1
f 61/4/1 51/4/1 60/4/1
f 62/2/1 52/2/1 61/2/1
f 63/2/1 54/2/1 53/2/1
f 64/4/1 55/4/1 54/4/1
f 64/2/1 54/2/1 63/2/1
f 65/2/1 56/2/1 55/2/1
f 65/4/1 55/4/1 64/4/1
f 66/4/1 57/4/1 56/4/1
f 66/2/1 56/2/1 65/2/1
f 67/2/1 46/2/1 57/2/1
f 67/4/1 57/4/1 66/4/1
f 68/4/1 59/4/1 58/4/1
f 68/1/1 58/1/1 46/1/1
f 69/1/1 47/1/1 59/1/1
f 69/4/1 59/4/1 68/4/1
f 70/1/1 47/1/1 69/1/1
f 72/4/1 49/4/1 48/4/1
f 73/1/1 60/1/1 49/1/1
f 73/4/1 49/4/1 72/4/1
f 74/2/1 66/2/1 65/2/1
f 74/1/1 60/1/1 73/1/1
f 74/2/1 67/2/1 66/2/1
f 74/2/1 62/2/1 61/2/1
f 74/2/1 63/2/1 62/2/1
f 74/2/1 64/2/1 63/2/1
f 74/2/1 61/2/1 60/2/1
f 74/2/1 65/2/1 64/2/1
f 75/1/1 71/1/1 70/1/1
f 75/2/1 67/2/1 74/2/1
f 75/1/1 68/1/1 46/1/1
f 75/2/1 46/2/1 67/2/1
f 75/1/1 69/1/1 68/1/1
f 75/1/1 70/1/1 69/1/1
f 76/1/1 71/1/1 75/1/1
f 80/1/1 78/1/1 77/1/1
f 81/2/1 79/2/1 78/2/1
f 81/1/1 78/1/1 80/1/1
f 82/2/1 79/2/1 81/2/1
f 88/4/1 84/4/1 83/4/1
f 89/1/1 85/1/1 84/1/1
f 89/4/1 84/4/1 88/4/1
f 90/2/1 86/2/1 85/2/1
f 90/1/1 85/1/1 89/1/1
f 91/1/1 87/1/1 86/1/1
f 91/2/1 86/2/1 90/2/1
f 92/1/1 87/1/1 91/1/1
f 97/1/1 94/1/1 93/1/1
f 98/1/1 94/1/1 97/1/1
f 99/2/1 96/2/1 95/2/1
f 100/2/1 96/2/1 99/2/1
f 104/1/1 102/1/1 101/1/1
f 106/1/1 104/1/1 103/1/1
f 107/1/1 106/1/1 105/1/1
f 108/1/1 106/1/1 107/1/1
f 109/1/1 106/1/1 108/1/1
f 110/1/1 106/1/1 109/1/1
f 111/1/1 106/1/1 110/1/1
f 112/1/1 104/1/1 106/1/1
f 112/1/1 106/1/1 111/1/1
f 113/1/1 104/1/1 112/1/1
f 114/1/1 102/1/1 104/1/1
f 114/1/1 104/1/1 113/1/1
f 115/1/1 102/1/1 114/1/1
f 116/1/1 102/1/1 115/1/1
f 120/4/1 118/4/1 117/4/1
f 121/3/1 119/3/1 118/3/1
f 121/4/1 118/4/1 120/4/1
f 122/3/1 121/3/1 120/3/1
f 123/3/1 119/3/1 121/3/1
f 123/3/1 121/3/1 122/3/1
f 124/3/1 119/3/1 123/3/1
f 125/4/2 126/4/2 128/4/2
f 126/3/2 127/3/2 129/3/2
f 128/4/2 126/4/2 129/4/2
f 128/3/2 129/3/2 130/3/2
f 129/3/2 127/3/2 131/3/2
f 130/3/2 129/3/2 131/3/2
f 131/3/2 127/3/2 132/3/2
f 133/1/2 134/1/2 137/1/2
f 137/1/2 134/1/2 138/1/2
f 135/2/2 136/2/2 139/2/2
f 139/2/2 136/2/2 140/2/2
f 141/1/2 142/1/2 144/1/2
f 143/1/2 144/1/2 146/1/2
f 145/1/2 146/1/2 147/1/2
f 147/1/2 146/1/2 148/1/2
f 148/1/2 146/1/2 149/1/2
f 149/1/2 146/1/2 150/1/2
f 150/1/2 146/1/2 151/1/2
f 146/1/2 144/1/2 152/1/2
f 151/1/2 146/1/2 152/1/2
f 152/1/2 144/1/2 153/1/2
f 144/1/2 142/1/2 154/1/2
f 153/1/2 144/1/2 154/1/2
f 154/1/2 142/1/2 155/1/2
f 155/1/2 142/1/2 156/1/2
f 157/1/2 158/1/2 160/1/2
f 158/2/2 159/2/2 161/2/2
f 160/1/2 158/1/2 161/1/2
f 161/2/2 159/2/2 162/2/2
f 163/4/2 164/4/2 168/4/2
f 164/1/2 165/1/2 169/1/2
f 168/4/2 164/4/2 169/4/2
f 165/2/2 166/2/2 170/2/2
f 169/1/2 165/1/2 170/1/2
f 166/1/2 167/1/2 171/1/2
f 170/2/2 166/2/2 171/2/2
f 171/1/2 167/1/2 172/1/2
f 173/1/2 174/1/2 177/1/2
f 177/1/2 174/1/2 178/1/2
f 174/2/2 175/2/2 179/2/2
f 178/1/2 174/1/2 179/1/2
f 179/2/2 175/2/2 180/2/2
f 180/2/2 175/2/2 181/2/2
f 181/2/2 175/2/2 182/2/2
f 182/2/2 175/2/2 183/2/2
f 183/2/2 175/2/2 184/2/2
f 184/2/2 175/2/2 185/2/2
f 185/2/2 175/2/2 186/2/2
f 175/1/2 176/1/2 187/1/2
f 187/1/2 176/1/2 188/1/2
f 178/1/2 179/1/2 189/1/2
f 179/4/2 180/4/2 189/4/2
f 180/2/2 181/2/2 190/2/2
f 189/4/2 180/4/2 190/4/2
f 190/2/2 181/2/2 191/2/2
f 182/2/2 183/2/2 192/2/2
f 183/4/2 184/4/2 193/4/2
f 192/2/2 183/2/2 193/2/2
f 184/2/2 185/2/2 194/2/2
f 193/4/2 184/4/2 194/4/2
f 185/4/2 186/4/2 195/4/2
f 194/2/2 185/2/2 195/2/2
f 186/2/2 175/2/2 196/2/2
f 195/4/2 186/4/2 196/4/2
f 187/4/2 188/4/2 197/4/2
f 175/1/2 187/1/2 197/1/2
f 188/1/2 176/1/2 198/1/2
f 197/4/2 188/4/2 198/4/2
f 198/1/2 176/1/2 199/1/2
f 177/4/2 178/4/2 201/4/2
f 178/1/2 189/1/2 202/1/2
f 201/4/2 178/4/2 202/4/2
f 194/2/2 195/2/2 203/2/2
f 202/1/2 189/1/2 203/1/2
f 195/2/2 196/2/2 203/2/2
f 190/2/2 191/2/2 203/2/2
f 191/2/2 192/2/2 203/2/2
f 192/2/2 193/2/2 203/2/2
f 189/2/2 190/2/2 203/2/2
f 193/2/2 194/2/2 203/2/2
f 199/1/2 200/1/2 204/1/2
f 203/2/2 196/2/2 204/2/2
f 175/1/2 197/1/2 204/1/2
f 196/2/2 175/2/2 204/2/2
f 197/1/2 198/1/2 204/1/2
f 198/1/2 199/1/2 204/1/2
f 204/1/2 200/1/2 205/1/2
f 206/1/2 207/1/2 208/1/2
f 208/1/2 207/1/2 209/1/2
f 210/1/2 211/1/2 212/1/2
f 212/1/2 211/1/2 213/1/2
f 214/1/2 215/1/2 217/1/2
f 217/1/2 215/1/2 218/1/2
f 216/1/2 217/1/2 219/1/2
f 219/1/2 217/1/2 220/1/2
f 221/1/2 222/1/2 223/1/2
f 223/1/2 222/1/2 224/1/2
f 225/1/2 226/1/2 227/1/2
f 227/1/2 226/1/2 228/1/2
f 229/4/2 230/4/2 232/4/2
f 230/3/2 231/3/2 233/3/2
f 232/4/2 230/4/2 233/4/2
f 232/3/2 233/3/2 234/3/2
f 233/3/2 231/3/2 235/3/2
f 234/3/2 233/3/2 235/3/2
f 235/3/2 231/3/2 236/3/2
f 237/1/2 238/1/2 239/1/2
f 239/1/2 238/1/2 240/1/2
f 241/1/2 242/1/2 243/1/2
f 243/1/2 242/1/2 244/1/2
f 245/1/2 246/1/2 247/1/2
f 247/1/2 246/1/2 248/1/2
f 252/4/3 251/4/3 250/4/3
f 254/4/3 252/4/3 250/4/3
f 254/4/3 253/4/3 252/4/3
f 255/4/3 253/4/3 254/4/3
f 256/1/3 250/1/3 249/1/3
f 257/4/3 254/4/3 250/4/3
f 257/1/3 250/1/3 256/1/3
f 258/4/3 254/4/3 257/4/3
f 261/1/3 260/1/3 259/1/3
f 262/1/3 260/1/3 261/1/3
f 265/1/3 264/1/3 263/1/3
f 266/1/3 264/1/3 265/1/3
f 269/1/3 268/1/3 267/1/3
f 270/1/3 268/1/3 269/1/3
f 273/1/3 272/1/3 271/1/3
f 274/1/3 272/1/3 273/1/3
f 277/2/3 274/2/3 273/2/3
f 278/4/3 276/4/3 275/4/3
f 279/3/3 277/3/3 276/3/3
f 279/4/3 276/4/3 278/4/3
f 280/2/3 274/2/3 277/2/3
f 280/3/3 277/3/3 279/3/3
f 281/3/3 279/3/3 278/3/3
f 282/4/3 280/4/3 279/4/3
f 282/3/3 279/3/3 281/3/3
f 283/2/3 274/2/3 280/2/3
f 283/4/3 280/4/3 282/4/3
f 284/4/3 282/4/3 281/4/3
f 285/3/3 283/3/3 282/3/3
f 285/4/3 282/4/3 284/4/3
f 286/2/3 274/2/3 283/2/3
f 286/3/3 283/3/3 285/3/3
f 287/2/3 274/2/3 286/2/3
f 288/2/3 274/2/3 287/2/3
f 289/1/3 288/1/3 287/1/3
f 290/1/3 288/1/3 289/1/3
f 293/1/3 292/1/3 291/1/3
f 294/1/3 292/1/3 293/1/3
f 297/2/3 294/2/3 293/2/3
f 298/4/3 296/4/3 295/4/3
f 299/3/3 297/3/3 296/3/3
f 299/4/3 296/4/3 298/4/3
f 300/2/3 294/2/3 297/2/3
f 300/3/3 297/3/3 299/3/3
f 301/3/3 299/3/3 298/3/3
f 302/4/3 300/4/3 299/4/3
f 302/3/3 299/3/3 301/3/3
f 303/2/3 294/2/3 300/2/3
f 303/4/3 300/4/3 302/4/3
f 304/4/3 302/4/3 301/4/3
f 305/3/3 303/3/3 302/3/3
f 305/4/3 302/4/3 304/4/3
f 306/2/3 294/2/3 303/2/3
f 306/3/3 303/3/3 305/3/3
f 307/2/3 294/2/3 306/2/3
f 308/2/3 294/2/3 307/2/3
f 309/1/3 308/1/3 307/1/3
f 310/1/3 308/1/3 309/1/3
f 313/1/3 312/1/3 311/1/3
f 314/1/3 312/1/3 313/1/3
f 317/1/3 316/1/3 315/1/3
f 318/1/3 316/1/3 317/1/3
f 322/1/3 320/1/3 319/1/3
f 323/1/3 322/1/3 321/1/3
f 324/1/3 320/1/3 322/1/3
f 324/1/3 322/1/3 323/1/3
f 327/1/3 326/1/3 325/1/3
f 328/1/3 326/1/3 327/1/3
f 329/1/3 326/1/3 328/1/3
f 330/1/3 326/1/3 329/1/3
f 333/1/3 332/1/3 331/1/3
f 334/1/3 332/1/3 333/1/3
f 337/1/3 336/1/3 335/1/3
f 338/1/3 336/1/3 337/1/3
f 341/1/3 340/1/3 339/1/3
f 342/1/3 340/1/3 341/1/3
f 346/1/3 344/1/3 343/1/3
f 347/1/3 344/1/3 346/1/3
f 348/1/3 346/1/3 345/1/3
f 349/1/3 346/1/3 348/1/3
f 352/1/3 351/1/3 350/1/3
f 353/1/3 351/1/3 352/1/3
f 356/1/3 355/1/3 354/1/3
f 357/1/3 355/1/3 356/1/3
f 359/1/3 358/1/3 357/1/3
f 360/1/3 358/1/3 359/1/3
f 363/1/3 362/1/3 361/1/3
f 364/1/3 362/1/3 363/1/3
f 367/1/3 366/1/3 365/1/3
f 368/1/3 366/1/3 367/1/3
f 371/1/3 370/1/3 369/1/3
f 372/1/3 370/1/3 371/1/3
f 373/1/4 374/1/4 375/1/4
f 375/1/4 374/1/4 376/1/4
f 377/1/4 378/1/4 379/1/4
f 379/1/4 378/1/4 380/1/4
f 381/1/4 382/1/4 383/1/4
f 383/1/4 382/1/4 384/1/4
f 385/1/4 386/1/4 387/1/4
f 387/1/4 386/1/4 388/1/4
f 389/1/4 390/1/4 392/1/4
f 391/3/4 392/3/4 393/3/4
f 392/1/4 390/1/4 394/1/4
f 393/3/4 392/3/4 394/3/4
f 391/3/4 393/3/4 395/3/4
f 393/4/4 394/4/4 395/4/4
f 394/1/4 390/1/4 396/1/4
f 395/4/4 394/4/4 396/4/4
f 391/3/4 395/3/4 397/3/4
f 395/3/4 396/3/4 397/3/4
f 396/1/4 390/1/4 398/1/4
f 397/3/4 396/3/4 398/3/4
f 398/1/4 390/1/4 399/1/4
f 399/1/4 390/1/4 400/1/4
f 401/1/4 402/1/4 404/1/4
f 403/3/4 404/3/4 405/3/4
f 404/1/4 402/1/4 406/1/4
f 405/3/4 404/3/4 406/3/4
f 403/3/4 405/3/4 407/3/4
f 405/4/4 406/4/4 407/4/4
f 406/1/4 402/1/4 408/1/4
f 407/4/4 406/4/4 408/4/4
f 403/3/4 407/3/4 409/3/4
f 407/3/4 408/3/4 409/3/4
f 408/1/4 402/1/4 410/1/4
f 409/3/4 408/3/4 410/3/4
f 410/1/4 402/1/4 411/1/4
f 411/1/4 402/1/4 412/1/4
f 413/2/4 414/2/4 415/2/4
f 415/2/4 414/2/4 416/2/4
f 417/2/4 418/2/4 419/2/4
f 419/2/4 418/2/4 420/2/4
f 421/2/4 422/2/4 423/2/4
f 423/2/4 422/2/4 424/2/4
f 425/1/4 426/1/4 427/1/4
f 427/1/4 426/1/4 428/1/4
f 429/1/4 430/1/4 431/1/4
f 431/1/4 430/1/4 432/1/4
f 433/1/4 434/1/4 435/1/4
f 435/1/4 434/1/4 436/1/4
f 437/1/4 438/1/4 439/1/4
f 439/1/4 438/1/4 440/1/4
f 441/1/4 442/1/4 444/1/4
f 444/1/4 442/1/4 445/1/4
f 443/1/4 444/1/4 445/1/4
f 443/1/4 445/1/4 447/1/4
f 445/1/4 446/1/4 447/1/4
f 447/1/4 446/1/4 448/1/4
f 443/1/4 447/1/4 449/1/4
f 449/1/4 447/1/4 450/1/4
f 450/1/4 447/1/4 451/1/4
f 451/1/4 447/1/4 452/1/4
f 456/1/5 454/1/5 453/1/5
f 457/1/5 454/1/5 456/1/5
f 459/1/5 456/1/5 455/1/5
f 459/1/5 458/1/5 457/1/5
f 459/1/5 457/1/5 456/1/5
f 460/1/5 458/1/5 459/1/5
f 469/4/5 462/4/5 461/4/5
f 470/3/5 463/3/5 462/3/5
f 470/4/5 462/4/5 469/4/5
f 471/4/5 464/4/5 463/4/5
f 471/3/5 463/3/5 470/3/5
f 472/4/5 464/4/5 471/4/5
f 473/4/5 466/4/5 465/4/5
f 474/3/5 467/3/5 466/3/5
f 474/4/5 466/4/5 473/4/5
f 475/4/5 468/4/5 467/4/5
f 475/3/5 467/3/5 474/3/5
f 476/4/5 468/4/5 475/4/5
f 477/3/5 470/3/5 469/3/5
f 477/3/5 472/3/5 471/3/5
f 477/3/5 471/3/5 470/3/5
f 478/3/5 472/3/5 477/3/5
f 479/3/5 474/3/5 473/3/5
f 479/3/5 476/3/5 475/3/5
f 479/3/5 475/3/5 474/3/5
f 480/3/5 476/3/5 479/3/5
f 481/2/5 460/2/5 459/2/5
f 482/2/5 460/2/5 481/2/5
f 483/2/5 460/2/5 482/2/5
f 484/2/5 460/2/5 483/2/5
f 485/2/5 483/2/5 482/2/5
f 486/2/5 483/2/5 485/2/5
f 489/1/5 488/1/5 487/1/5
f 490/1/5 488/1/5 489/1/5
f 491/1/5 489/1/5 487/1/5
f 492/1/5 489/1/5 491/1/5
f 493/1/5 488/1/5 490/1/5
f 494/1/5 488/1/5 493/1/5
f 495/1/5 491/1/5 487/1/5
f 496/1/5 491/1/5 495/1/5
f 497/1/5 488/1/5 494/1/5
f 498/1/5 488/1/5 497/1/5
f 499/2/5 496/2/5 495/2/5
f 502/2/5 498/2/5 497/2/5
f 503/2/5 500/2/5 499/2/5
f 503/2/5 499/2/5 495/2/5
f 504/2/5 500/2/5 503/2/5
f 505/2/5 502/2/5 501/2/5
f 506/2/5 498/2/5 502/2/5
f 506/2/5 502/2/5 505/2/5
f 508/1/5 504/1/5 503/1/5
f 508/1/5 505/1/5 504/1/5
f 508/1/5 506/1/5 505/1/5
f 509/1/5 506/1/5 508/1/5
f 512/1/5 509/1/5 508/1/5
f 512/1/5 510/1/5 509/1/5
f 512/1/5 508/1/5 507/1/5
f 513/1/5 510/1/5 512/1/5
f 515/1/5 512/1/5 511/1/5
f 515/1/5 514/1/5 513/1/5
f 515/1/5 513/1/5 512/1/5
f 516/1/5 514/1/5 515/1/5
f 529/1/5 518/1/5 517/1/5
f 530/1/5 518/1/5 529/1/5
f 531/1/5 528/1/5 527/1/5
f 532/1/5 528/1/5 531/1/5
f 533/1/5 518/1/5 530/1/5
f 534/1/5 518/1/5 533/1/5
f 535/2/5 519/2/5 518/2/5
f 535/1/5 518/1/5 534/1/5
f 536/2/5 519/2/5 535/2/5
f 537/2/5 521/2/5 520/2/5
f 538/1/5 522/1/5 521/1/5
f 538/2/5 521/2/5 537/2/5
f 539/1/5 524/1/5 523/1/5
f 539/2/5 525/2/5 524/2/5
f 540/2/5 525/2/5 539/2/5
f 541/2/5 527/2/5 526/2/5
f 542/1/5 531/1/5 527/1/5
f 542/2/5 527/2/5 541/2/5
f 543/1/5 531/1/5 542/1/5
f 544/1/5 531/1/5 543/1/5
f 545/1/5 536/1/5 535/1/5
f 545/1/5 535/1/5 534/1/5
f 546/1/5 536/1/5 545/1/5
f 547/1/5 538/1/5 537/1/5
f 548/1/5 522/1/5 538/1/5
f 548/1/5 538/1/5 547/1/5
f 549/1/5 540/1/5 539/1/5
f 549/1/5 539/1/5 523/1/5
f 550/1/5 540/1/5 549/1/5
f 551/1/5 543/1/5 542/1/5
f 551/1/5 542/1/5 541/1/5
f 552/1/5 543/1/5 551/1/5
f 558/1/5 554/1/5 553/1/5
f 559/1/5 556/1/5 555/1/5
f 562/1/5 558/1/5 557/1/5
f 563/1/5 554/1/5 558/1/5
f 563/1/5 558/1/5 562/1/5
f 564/1/5 560/1/5 559/1/5
f 564/1/5 559/1/5 555/1/5
f 565/1/5 560/1/5 564/1/5
f 568/1/5 562/1/5 561/1/5
f 569/1/5 566/1/5 565/1/5
f 571/1/5 568/1/5 567/1/5
f 572/1/5 562/1/5 568/1/5
f 572/1/5 568/1/5 571/1/5
f 573/1/5 570/1/5 569/1/5
f 573/1/5 569/1/5 565/1/5
f 574/1/5 570/1/5 573/1/5
f 575/1/6 576/1/6 583/1/6
f 583/1/6 576/1/6 584/1/6
f 581/1/6 582/1/6 585/1/6
f 585/1/6 582/1/6 586/1/6
f 584/1/6 576/1/6 587/1/6
f 587/1/6 576/1/6 588/1/6
f 576/2/6 577/2/6 589/2/6
f 588/1/6 576/1/6 589/1/6
f 577/1/6 578/1/6 590/1/6
f 589/2/6 577/2/6 590/2/6
f 579/1/6 580/1/6 591/1/6
f 580/2/6 581/2/6 591/2/6
f 581/1/6 585/1/6 592/1/6
f 591/2/6 581/2/6 592/2/6
f 592/1/6 585/1/6 593/1/6
f 593/1/6 585/1/6 594/1/6
f 588/1/6 589/1/6 595/1/6
f 589/1/6 590/1/6 595/1/6
f 590/1/6 578/1/6 596/1/6
f 595/1/6 590/1/6 596/1/6
f 592/1/6 593/1/6 597/1/6
f 591/1/6 592/1/6 597/1/6
f 579/1/6 591/1/6 597/1/6
f 597/1/6 593/1/6 598/1/6
f 599/1/6 600/1/6 604/1/6
f 601/1/6 602/1/6 605/1/6
f 603/1/6 604/1/6 608/1/6
f 605/1/6 606/1/6 609/1/6
f 607/1/6 608/1/6 612/1/6
f 604/1/6 600/1/6 613/1/6
f 608/1/6 604/1/6 613/1/6
f 612/1/6 608/1/6 613/1/6
f 609/1/6 610/1/6 616/1/6
f 601/1/6 605/1/6 616/1/6
f 605/1/6 609/1/6 616/1/6
f 616/1/6 610/1/6 617/1/6
f 613/1/6 614/1/6 619/1/6
f 611/1/6 612/1/6 619/1/6
f 612/1/6 613/1/6 619/1/6
f 619/1/6 614/1/6 620/1/6
f 617/1/6 618/1/6 621/1/6
f 616/1/6 617/1/6 621/1/6
f 615/1/6 616/1/6 621/1/6
f 621/1/6 618/1/6 622/1/6
f 623/4/6 624/4/6 627/4/6
f 627/4/6 624/4/6 628/4/6
f 625/4/6 626/4/6 629/4/6
f 629/4/6 626/4/6 630/4/6
f 627/1/6 628/1/6 631/1/6
f 631/1/6 628/1/6 632/1/6
f 629/1/6 630/1/6 633/1/6
f 633/1/6 630/1/6 634/1/6
f 631/2/6 632/2/6 635/2/6
f 635/2/6 632/2/6 636/2/6
f 633/2/6 634/2/6 637/2/6
f 637/2/6 634/2/6 638/2/6
f 635/1/6 636/1/6 639/1/6
f 637/1/6 638/1/6 642/1/6
f 639/1/6 640/1/6 643/1/6
f 635/1/6 639/1/6 643/1/6
f 643/1/6 640/1/6 644/1/6
f 641/1/6 642/1/6 645/1/6
f 642/1/6 638/1/6 646/1/6
f 645/1/6 642/1/6 646/1/6
f 647/4/6 648/4/6 649/4/6
f 649/4/6 648/4/6 650/4/6
f 649/1/6 650/1/6 651/1/6
f 651/1/6 650/1/6 652/1/6
f 651/2/6 652/2/6 653/2/6
f 653/2/6 652/2/6 654/2/6
f 653/1/6 654/1/6 655/1/6
f 655/1/6 654/1/6 656/1/6
f 653/1/6 655/1/6 657/1/6
f 657/1/6 655/1/6 658/1/6
f 656/1/6 654/1/6 659/1/6
f 659/1/6 654/1/6 660/1/6
f 661/1/6 662/1/6 663/1/6
f 663/1/6 662/1/6 664/1/6
f 665/1/6 666/1/6 667/1/6
f 667/1/6 666/1/6 668/1/6
f 669/1/6 670/1/6 671/1/6
f 671/1/6 670/1/6 672/1/6
f 673/1/6 674/1/6 675/1/6
f 675/1/6 674/1/6 676/1/6
f 677/1/6 678/1/6 679/1/6
f 679/1/6 678/1/6 680/1/6
