# MagicaVoxel @ Ephtracy

# group
o 

# material
mtllib Tree1-2.mtl
usemtl palette

# normals
vn -1 0 0
vn 1 0 0
vn 0 0 1
vn 0 0 -1
vn 0 -1 0
vn 0 1 0

# texcoords
vt 0.201172 0.5
vt 0.373047 0.5
vt 0.537109 0.5
vt 0.767578 0.5
vt 0.794922 0.5

# verts
v -0.6 1.7 0.3
v -0.6 1.7 0.1
v -0.6 1.7 -0.1
v -0.6 1.7 -0.3
v -0.6 1.7 -0.5
v -0.6 1.7 -0.6
v -0.6 1.8 0.1
v -0.6 1.8 -2.98023e-08
v -0.6 1.9 0.3
v -0.6 1.9 0.2
v -0.6 1.9 -0.1
v -0.6 1.9 -0.3
v -0.6 1.9 -0.5
v -0.6 1.9 -0.6
v -0.6 2 0.2
v -0.6 2 -2.98023e-08
v -0.6 2 -0.2
v -0.6 2 -0.5
v -0.6 2.1 0.3
v -0.6 2.1 -0.1
v -0.6 2.1 -0.5
v -0.6 2.1 -0.6
v -0.6 2.2 0.3
v -0.6 2.2 -0.1
v -0.6 2.2 -0.2
v -0.6 2.2 -0.6
v -0.5 1.6 0.2
v -0.5 1.6 0.1
v -0.5 1.6 -0.1
v -0.5 1.6 -0.3
v -0.5 1.6 -0.5
v -0.5 1.7 0.2
v -0.5 1.7 0.1
v -0.5 1.7 -0.1
v -0.5 1.7 -0.3
v -0.5 1.7 -0.5
v -0.5 2.2 0.2
v -0.5 2.2 -0.1
v -0.5 2.2 -0.2
v -0.5 2.2 -0.4
v -0.5 2.2 -0.5
v -0.5 2.3 0.2
v -0.5 2.3 -0.1
v -0.5 2.3 -0.2
v -0.5 2.3 -0.4
v -0.5 2.3 -0.5
v -0.4 2.3 0.1
v -0.4 2.3 -0.1
v -0.4 2.3 -0.2
v -0.4 2.3 -0.4
v -0.4 2.4 0.1
v -0.4 2.4 -0.2
v -0.4 2.4 -0.4
v -0.3 0 -2.98023e-08
v -0.3 0 -0.1
v -0.3 0 -0.2
v -0.3 0 -0.3
v -0.3 0.2 -2.98023e-08
v -0.3 0.2 -0.1
v -0.3 0.2 -0.2
v -0.3 0.4 -0.1
v -0.3 0.4 -0.3
v -0.3 0.5 -2.98023e-08
v -0.3 0.5 -0.1
v -0.3 0.5 -0.2
v -0.3 0.5 -0.3
v -0.3 0.7 -2.98023e-08
v -0.3 0.7 -0.1
v -0.3 0.8 -2.98023e-08
v -0.3 0.8 -0.1
v -0.3 0.8 -0.2
v -0.3 0.8 -0.3
v -0.3 0.9 -0.1
v -0.3 0.9 -0.2
v -0.3 1.2 -2.98023e-08
v -0.3 1.2 -0.1
v -0.3 1.3 -0.1
v -0.3 1.3 -0.2
v -0.3 1.3 -0.3
v -0.3 1.4 -2.98023e-08
v -0.3 1.4 -0.1
v -0.3 1.6 -2.98023e-08
v -0.3 1.6 -0.1
v -0.3 1.6 -0.2
v -0.3 1.6 -0.3
v 5.96046e-08 0 -2.98023e-08
v 5.96046e-08 0 -0.2
v 5.96046e-08 0 -0.3
v 5.96046e-08 0.1 -2.98023e-08
v 5.96046e-08 0.1 -0.1
v 5.96046e-08 0.1 -0.2
v 5.96046e-08 0.1 -0.3
v 5.96046e-08 0.2 -2.98023e-08
v 5.96046e-08 0.2 -0.1
v 5.96046e-08 0.3 -0.2
v 5.96046e-08 0.3 -0.3
v 5.96046e-08 0.5 -0.2
v 5.96046e-08 0.5 -0.3
v 5.96046e-08 0.6 -2.98023e-08
v 5.96046e-08 0.6 -0.1
v 5.96046e-08 0.9 -0.2
v 5.96046e-08 0.9 -0.3
v 5.96046e-08 1 -0.1
v 5.96046e-08 1 -0.2
v 5.96046e-08 1.1 -2.98023e-08
v 5.96046e-08 1.1 -0.1
v 5.96046e-08 1.1 -0.2
v 5.96046e-08 1.1 -0.3
v 5.96046e-08 1.3 -2.98023e-08
v 5.96046e-08 1.3 -0.1
v 5.96046e-08 1.5 -0.2
v 5.96046e-08 1.5 -0.3
v 5.96046e-08 1.6 -2.98023e-08
v 5.96046e-08 1.6 -0.1
v 5.96046e-08 1.6 -0.2
v 5.96046e-08 1.6 -0.3
v 0.1 2.3 0.1
v 0.1 2.3 -0.2
v 0.1 2.3 -0.4
v 0.1 2.4 0.1
v 0.1 2.4 -0.2
v 0.1 2.4 -0.4
v 0.2 1.6 0.2
v 0.2 1.6 -0.1
v 0.2 1.6 -0.4
v 0.2 1.6 -0.5
v 0.2 1.7 0.2
v 0.2 1.7 -0.1
v 0.2 1.7 -0.2
v 0.2 1.7 -0.3
v 0.2 1.7 -0.4
v 0.2 1.7 -0.5
v 0.2 2.2 0.2
v 0.2 2.2 0.1
v 0.2 2.2 -2.98023e-08
v 0.2 2.2 -0.2
v 0.2 2.2 -0.3
v 0.2 2.2 -0.4
v 0.2 2.2 -0.5
v 0.2 2.3 0.2
v 0.2 2.3 -0.2
v 0.2 2.3 -0.4
v 0.2 2.3 -0.5
v 0.3 1.7 0.3
v 0.3 1.7 0.2
v 0.3 1.7 -0.2
v 0.3 1.7 -0.3
v 0.3 1.7 -0.6
v 0.3 1.8 0.2
v 0.3 1.8 -2.98023e-08
v 0.3 1.9 0.3
v 0.3 1.9 0.1
v 0.3 1.9 -2.98023e-08
v 0.3 1.9 -0.2
v 0.3 1.9 -0.3
v 0.3 1.9 -0.6
v 0.3 2 -2.98023e-08
v 0.3 2 -0.2
v 0.3 2 -0.3
v 0.3 2 -0.5
v 0.3 2.1 -0.5
v 0.3 2.1 -0.6
v 0.3 2.2 0.3
v 0.3 2.2 0.1
v 0.3 2.2 -2.98023e-08
v 0.3 2.2 -0.2
v 0.3 2.2 -0.3
v 0.3 2.2 -0.6
v -0.6 1.7 0.3
v -0.6 1.9 0.3
v -0.6 2.1 0.3
v -0.6 2.2 0.3
v -0.4 1.7 0.3
v -0.4 1.8 0.3
v -0.4 1.9 0.3
v -0.4 2.1 0.3
v -0.3 1.8 0.3
v -0.3 1.9 0.3
v -0.2 1.7 0.3
v -0.2 1.8 0.3
v -0.2 1.9 0.3
v -0.2 2.2 0.3
v -0.0999999 1.8 0.3
v -0.0999999 2.2 0.3
v 5.96046e-08 1.8 0.3
v 5.96046e-08 2 0.3
v 0.1 1.7 0.3
v 0.1 1.8 0.3
v 0.1 1.9 0.3
v 0.1 2 0.3
v 0.3 1.7 0.3
v 0.3 1.9 0.3
v 0.3 2.2 0.3
v -0.5 1.6 0.2
v -0.5 1.7 0.2
v -0.5 2.2 0.2
v -0.5 2.3 0.2
v -0.4 1.6 0.2
v -0.4 1.7 0.2
v -0.3 2.2 0.2
v -0.3 2.3 0.2
v -0.2 1.6 0.2
v -0.2 1.7 0.2
v -0.2 2.2 0.2
v -0.0999999 2.2 0.2
v 0.1 1.7 0.2
v 0.2 1.6 0.2
v 0.2 1.7 0.2
v 0.2 2.2 0.2
v 0.2 2.3 0.2
v -0.4 2.3 0.1
v -0.4 2.4 0.1
v -0.3 2.3 0.1
v -0.3 2.4 0.1
v 5.96046e-08 2.3 0.1
v 5.96046e-08 2.4 0.1
v 0.1 2.3 0.1
v 0.1 2.4 0.1
v -0.3 0 -2.98023e-08
v -0.3 0.2 -2.98023e-08
v -0.3 0.5 -2.98023e-08
v -0.3 0.7 -2.98023e-08
v -0.3 0.8 -2.98023e-08
v -0.3 1.2 -2.98023e-08
v -0.3 1.4 -2.98023e-08
v -0.3 1.6 -2.98023e-08
v -0.2 0.2 -2.98023e-08
v -0.2 0.5 -2.98023e-08
v -0.2 0.7 -2.98023e-08
v -0.2 0.8 -2.98023e-08
v -0.2 1.2 -2.98023e-08
v -0.2 1.4 -2.98023e-08
v -0.2 1.6 -2.98023e-08
v -0.0999999 0.1 -2.98023e-08
v -0.0999999 0.2 -2.98023e-08
v -0.0999999 0.5 -2.98023e-08
v -0.0999999 0.6 -2.98023e-08
v -0.0999999 1.1 -2.98023e-08
v -0.0999999 1.3 -2.98023e-08
v -0.0999999 1.6 -2.98023e-08
v 5.96046e-08 0 -2.98023e-08
v 5.96046e-08 0.1 -2.98023e-08
v 5.96046e-08 0.2 -2.98023e-08
v 5.96046e-08 0.6 -2.98023e-08
v 5.96046e-08 1.1 -2.98023e-08
v 5.96046e-08 1.3 -2.98023e-08
v 5.96046e-08 1.6 -2.98023e-08
v -0.3 0 -0.3
v -0.3 0.4 -0.3
v -0.3 0.5 -0.3
v -0.3 0.8 -0.3
v -0.3 1.3 -0.3
v -0.3 1.6 -0.3
v -0.2 0 -0.3
v -0.2 0.4 -0.3
v -0.2 0.5 -0.3
v -0.2 0.8 -0.3
v -0.2 1.1 -0.3
v -0.2 1.3 -0.3
v -0.2 1.6 -0.3
v -0.0999999 0 -0.3
v -0.0999999 0.1 -0.3
v -0.0999999 0.3 -0.3
v -0.0999999 0.5 -0.3
v -0.0999999 0.9 -0.3
v -0.0999999 1.1 -0.3
v -0.0999999 1.3 -0.3
v -0.0999999 1.5 -0.3
v 5.96046e-08 0 -0.3
v 5.96046e-08 0.1 -0.3
v 5.96046e-08 0.3 -0.3
v 5.96046e-08 0.5 -0.3
v 5.96046e-08 0.9 -0.3
v 5.96046e-08 1.1 -0.3
v 5.96046e-08 1.5 -0.3
v 5.96046e-08 1.6 -0.3
v -0.4 2.3 -0.4
v -0.4 2.4 -0.4
v -0.3 2.3 -0.4
v -0.3 2.4 -0.4
v -0.2 2.3 -0.4
v -0.2 2.4 -0.4
v -0.0999999 2.3 -0.4
v 0.1 2.3 -0.4
v 0.1 2.4 -0.4
v -0.5 1.6 -0.5
v -0.5 1.7 -0.5
v -0.5 2.2 -0.5
v -0.5 2.3 -0.5
v -0.3 1.7 -0.5
v -0.2 2.2 -0.5
v -0.2 2.3 -0.5
v -0.0999999 1.7 -0.5
v -0.0999999 2.2 -0.5
v -0.0999999 2.3 -0.5
v 5.96046e-08 2.2 -0.5
v 0.1 1.6 -0.5
v 0.1 1.7 -0.5
v 0.2 1.6 -0.5
v 0.2 1.7 -0.5
v 0.2 2.2 -0.5
v 0.2 2.3 -0.5
v -0.6 1.7 -0.6
v -0.6 1.9 -0.6
v -0.6 2.1 -0.6
v -0.6 2.2 -0.6
v -0.5 1.7 -0.6
v -0.5 1.9 -0.6
v -0.5 2.1 -0.6
v -0.5 2.2 -0.6
v -0.4 1.8 -0.6
v -0.4 2.1 -0.6
v -0.3 1.7 -0.6
v -0.3 1.8 -0.6
v -0.2 1.9 -0.6
v -0.2 2.1 -0.6
v -0.2 2.2 -0.6
v -0.0999999 1.7 -0.6
v -0.0999999 1.9 -0.6
v 5.96046e-08 1.9 -0.6
v 5.96046e-08 2.1 -0.6
v 5.96046e-08 2.2 -0.6
v 0.1 1.7 -0.6
v 0.1 1.9 -0.6
v 0.2 1.9 -0.6
v 0.2 2.1 -0.6
v 0.2 2.2 -0.6
v 0.3 1.7 -0.6
v 0.3 1.9 -0.6
v 0.3 2.1 -0.6
v 0.3 2.2 -0.6
v -0.3 0 -2.98023e-08
v 5.96046e-08 0 -2.98023e-08
v -0.3 0 -0.1
v -0.2 0 -0.1
v -0.3 0 -0.2
v -0.2 0 -0.2
v -0.0999999 0 -0.2
v 5.96046e-08 0 -0.2
v -0.3 0 -0.3
v -0.2 0 -0.3
v -0.0999999 0 -0.3
v 5.96046e-08 0 -0.3
v -0.5 1.6 0.2
v -0.4 1.6 0.2
v -0.2 1.6 0.2
v 0.2 1.6 0.2
v -0.5 1.6 0.1
v -0.4 1.6 0.1
v -0.2 1.6 0.1
v 0.1 1.6 0.1
v -0.3 1.6 -2.98023e-08
v -0.2 1.6 -2.98023e-08
v -0.0999999 1.6 -2.98023e-08
v 5.96046e-08 1.6 -2.98023e-08
v -0.5 1.6 -0.1
v -0.4 1.6 -0.1
v -0.3 1.6 -0.1
v 5.96046e-08 1.6 -0.1
v 0.1 1.6 -0.1
v 0.2 1.6 -0.1
v -0.3 1.6 -0.2
v 5.96046e-08 1.6 -0.2
v -0.5 1.6 -0.3
v -0.4 1.6 -0.3
v -0.3 1.6 -0.3
v -0.2 1.6 -0.3
v 5.96046e-08 1.6 -0.3
v 0.1 1.6 -0.4
v 0.2 1.6 -0.4
v -0.5 1.6 -0.5
v 0.1 1.6 -0.5
v 0.2 1.6 -0.5
v -0.6 1.7 0.3
v -0.4 1.7 0.3
v -0.2 1.7 0.3
v 0.1 1.7 0.3
v 0.3 1.7 0.3
v -0.5 1.7 0.2
v -0.4 1.7 0.2
v -0.2 1.7 0.2
v 0.1 1.7 0.2
v 0.2 1.7 0.2
v 0.3 1.7 0.2
v -0.6 1.7 0.1
v -0.5 1.7 0.1
v -0.6 1.7 -0.1
v -0.5 1.7 -0.1
v 0.2 1.7 -0.1
v 0.2 1.7 -0.2
v 0.3 1.7 -0.2
v -0.6 1.7 -0.3
v -0.5 1.7 -0.3
v 0.2 1.7 -0.3
v 0.3 1.7 -0.3
v 0.2 1.7 -0.4
v -0.6 1.7 -0.5
v -0.5 1.7 -0.5
v -0.3 1.7 -0.5
v -0.0999999 1.7 -0.5
v 0.1 1.7 -0.5
v 0.2 1.7 -0.5
v -0.6 1.7 -0.6
v -0.5 1.7 -0.6
v -0.3 1.7 -0.6
v -0.0999999 1.7 -0.6
v 0.1 1.7 -0.6
v 0.3 1.7 -0.6
v -0.6 2.2 0.3
v -0.2 2.2 0.3
v -0.0999999 2.2 0.3
v 0.3 2.2 0.3
v -0.5 2.2 0.2
v -0.3 2.2 0.2
v -0.2 2.2 0.2
v -0.0999999 2.2 0.2
v 0.2 2.2 0.2
v 0.2 2.2 0.1
v 0.3 2.2 0.1
v 0.2 2.2 -2.98023e-08
v 0.3 2.2 -2.98023e-08
v -0.6 2.2 -0.1
v -0.5 2.2 -0.1
v -0.6 2.2 -0.2
v -0.5 2.2 -0.2
v 0.2 2.2 -0.2
v 0.3 2.2 -0.2
v 0.2 2.2 -0.3
v 0.3 2.2 -0.3
v -0.5 2.2 -0.4
v 0.2 2.2 -0.4
v -0.5 2.2 -0.5
v -0.2 2.2 -0.5
v -0.0999999 2.2 -0.5
v 5.96046e-08 2.2 -0.5
v 0.2 2.2 -0.5
v -0.6 2.2 -0.6
v -0.5 2.2 -0.6
v -0.2 2.2 -0.6
v 5.96046e-08 2.2 -0.6
v 0.2 2.2 -0.6
v 0.3 2.2 -0.6
v -0.5 2.3 0.2
v -0.3 2.3 0.2
v 0.2 2.3 0.2
v -0.4 2.3 0.1
v -0.3 2.3 0.1
v 5.96046e-08 2.3 0.1
v 0.1 2.3 0.1
v -0.5 2.3 -0.1
v -0.4 2.3 -0.1
v -0.5 2.3 -0.2
v -0.4 2.3 -0.2
v 0.1 2.3 -0.2
v 0.2 2.3 -0.2
v -0.5 2.3 -0.4
v -0.4 2.3 -0.4
v -0.3 2.3 -0.4
v -0.2 2.3 -0.4
v -0.0999999 2.3 -0.4
v 0.1 2.3 -0.4
v 0.2 2.3 -0.4
v -0.5 2.3 -0.5
v -0.2 2.3 -0.5
v -0.0999999 2.3 -0.5
v 0.2 2.3 -0.5
v -0.4 2.4 0.1
v -0.3 2.4 0.1
v 5.96046e-08 2.4 0.1
v 0.1 2.4 0.1
v -0.3 2.4 -0.1
v 5.96046e-08 2.4 -0.1
v -0.4 2.4 -0.2
v -0.3 2.4 -0.2
v -0.2 2.4 -0.2
v 0.1 2.4 -0.2
v -0.4 2.4 -0.4
v -0.3 2.4 -0.4
v -0.2 2.4 -0.4
v 0.1 2.4 -0.4

# faces
f 7/5/1 2/5/1 1/5/1
f 7/4/1 3/4/1 2/4/1
f 8/4/1 3/4/1 7/4/1
f 9/5/1 7/5/1 1/5/1
f 9/5/1 8/5/1 7/5/1
f 10/5/1 8/5/1 9/5/1
f 11/5/1 4/5/1 3/5/1
f 11/4/1 3/4/1 8/4/1
f 12/4/1 5/4/1 4/4/1
f 12/5/1 4/5/1 11/5/1
f 13/5/1 6/5/1 5/5/1
f 13/4/1 5/4/1 12/4/1
f 14/5/1 6/5/1 13/5/1
f 15/5/1 8/5/1 10/5/1
f 15/4/1 10/4/1 9/4/1
f 16/4/1 12/4/1 11/4/1
f 16/5/1 8/5/1 15/5/1
f 16/4/1 11/4/1 8/4/1
f 16/4/1 13/4/1 12/4/1
f 16/4/1 14/4/1 13/4/1
f 17/4/1 14/4/1 16/4/1
f 18/4/1 14/4/1 17/4/1
f 19/4/1 15/4/1 9/4/1
f 19/4/1 16/4/1 15/4/1
f 19/4/1 17/4/1 16/4/1
f 20/4/1 17/4/1 19/4/1
f 21/4/1 14/4/1 18/4/1
f 21/5/1 18/5/1 17/5/1
f 22/4/1 14/4/1 21/4/1
f 23/5/1 20/5/1 19/5/1
f 24/4/1 17/4/1 20/4/1
f 24/5/1 20/5/1 23/5/1
f 25/5/1 21/5/1 17/5/1
f 25/4/1 17/4/1 24/4/1
f 25/5/1 22/5/1 21/5/1
f 26/5/1 22/5/1 25/5/1
f 32/5/1 28/5/1 27/5/1
f 33/4/1 29/4/1 28/4/1
f 33/5/1 28/5/1 32/5/1
f 34/5/1 30/5/1 29/5/1
f 34/4/1 29/4/1 33/4/1
f 35/4/1 31/4/1 30/4/1
f 35/5/1 30/5/1 34/5/1
f 36/4/1 31/4/1 35/4/1
f 42/5/1 38/5/1 37/5/1
f 43/4/1 39/4/1 38/4/1
f 43/5/1 38/5/1 42/5/1
f 44/5/1 40/5/1 39/5/1
f 44/4/1 39/4/1 43/4/1
f 45/4/1 41/4/1 40/4/1
f 45/5/1 40/5/1 44/5/1
f 46/4/1 41/4/1 45/4/1
f 51/4/1 48/4/1 47/4/1
f 51/4/1 49/4/1 48/4/1
f 52/5/1 50/5/1 49/5/1
f 52/4/1 49/4/1 51/4/1
f 53/5/1 50/5/1 52/5/1
f 58/2/1 55/2/1 54/2/1
f 59/1/1 56/1/1 55/1/1
f 59/2/1 55/2/1 58/2/1
f 60/3/1 57/3/1 56/3/1
f 60/1/1 56/1/1 59/1/1
f 61/1/1 59/1/1 58/1/1
f 61/3/1 60/3/1 59/3/1
f 62/3/1 57/3/1 60/3/1
f 62/3/1 60/3/1 61/3/1
f 63/1/1 61/1/1 58/1/1
f 64/2/1 62/2/1 61/2/1
f 64/1/1 61/1/1 63/1/1
f 65/2/1 62/2/1 64/2/1
f 66/2/1 62/2/1 65/2/1
f 67/2/1 64/2/1 63/2/1
f 67/2/1 65/2/1 64/2/1
f 68/2/1 65/2/1 67/2/1
f 69/3/1 68/3/1 67/3/1
f 70/2/1 65/2/1 68/2/1
f 70/3/1 68/3/1 69/3/1
f 71/1/1 66/1/1 65/1/1
f 71/2/1 65/2/1 70/2/1
f 72/1/1 66/1/1 71/1/1
f 73/1/1 70/1/1 69/1/1
f 73/2/1 71/2/1 70/2/1
f 73/2/1 72/2/1 71/2/1
f 74/2/1 72/2/1 73/2/1
f 75/1/1 73/1/1 69/1/1
f 76/3/1 74/3/1 73/3/1
f 76/1/1 73/1/1 75/1/1
f 77/2/1 76/2/1 75/2/1
f 77/3/1 74/3/1 76/3/1
f 78/2/1 72/2/1 74/2/1
f 78/3/1 74/3/1 77/3/1
f 79/2/1 72/2/1 78/2/1
f 80/2/1 77/2/1 75/2/1
f 80/2/1 78/2/1 77/2/1
f 81/2/1 78/2/1 80/2/1
f 82/3/1 81/3/1 80/3/1
f 83/2/1 78/2/1 81/2/1
f 83/3/1 81/3/1 82/3/1
f 84/3/1 79/3/1 78/3/1
f 84/2/1 78/2/1 83/2/1
f 85/3/1 79/3/1 84/3/1
f 86/2/2 87/2/2 89/2/2
f 89/2/2 87/2/2 90/2/2
f 87/1/2 88/1/2 91/1/2
f 90/2/2 87/2/2 91/2/2
f 91/1/2 88/1/2 92/1/2
f 89/3/2 90/3/2 93/3/2
f 90/2/2 91/2/2 94/2/2
f 93/3/2 90/3/2 94/3/2
f 91/3/2 92/3/2 95/3/2
f 94/2/2 91/2/2 95/2/2
f 95/3/2 92/3/2 96/3/2
f 94/2/2 95/2/2 97/2/2
f 95/2/2 96/2/2 97/2/2
f 97/2/2 96/2/2 98/2/2
f 93/1/2 94/1/2 99/1/2
f 94/2/2 97/2/2 100/2/2
f 99/1/2 94/1/2 100/1/2
f 97/1/2 98/1/2 101/1/2
f 100/2/2 97/2/2 101/2/2
f 101/1/2 98/1/2 102/1/2
f 99/3/2 100/3/2 103/3/2
f 100/2/2 101/2/2 103/2/2
f 101/2/2 102/2/2 103/2/2
f 103/2/2 102/2/2 104/2/2
f 99/3/2 103/3/2 105/3/2
f 103/1/2 104/1/2 106/1/2
f 105/3/2 103/3/2 106/3/2
f 104/2/2 102/2/2 107/2/2
f 106/1/2 104/1/2 107/1/2
f 107/2/2 102/2/2 108/2/2
f 105/2/2 106/2/2 109/2/2
f 106/1/2 107/1/2 110/1/2
f 109/2/2 106/2/2 110/2/2
f 107/3/2 108/3/2 111/3/2
f 110/1/2 107/1/2 111/1/2
f 111/3/2 108/3/2 112/3/2
f 109/3/2 110/3/2 113/3/2
f 110/1/2 111/1/2 114/1/2
f 113/3/2 110/3/2 114/3/2
f 111/2/2 112/2/2 115/2/2
f 114/1/2 111/1/2 115/1/2
f 115/2/2 112/2/2 116/2/2
f 117/4/2 118/4/2 120/4/2
f 118/5/2 119/5/2 121/5/2
f 120/4/2 118/4/2 121/4/2
f 121/5/2 119/5/2 122/5/2
f 123/5/2 124/5/2 127/5/2
f 124/4/2 125/4/2 128/4/2
f 127/5/2 124/5/2 128/5/2
f 128/4/2 125/4/2 129/4/2
f 129/4/2 125/4/2 130/4/2
f 125/5/2 126/5/2 131/5/2
f 130/4/2 125/4/2 131/4/2
f 131/5/2 126/5/2 132/5/2
f 133/4/2 134/4/2 140/4/2
f 134/4/2 135/4/2 140/4/2
f 135/4/2 136/4/2 140/4/2
f 137/5/2 138/5/2 141/5/2
f 140/4/2 136/4/2 141/4/2
f 136/5/2 137/5/2 141/5/2
f 138/4/2 139/4/2 142/4/2
f 141/5/2 138/5/2 142/5/2
f 142/4/2 139/4/2 143/4/2
f 144/4/2 145/4/2 149/4/2
f 145/5/2 146/5/2 149/5/2
f 149/5/2 146/5/2 150/5/2
f 144/4/2 149/4/2 151/4/2
f 149/4/2 150/4/2 151/4/2
f 151/4/2 150/4/2 152/4/2
f 150/5/2 146/5/2 153/5/2
f 152/4/2 150/4/2 153/4/2
f 146/4/2 147/4/2 154/4/2
f 153/5/2 146/5/2 154/5/2
f 147/5/2 148/5/2 155/5/2
f 154/4/2 147/4/2 155/4/2
f 155/5/2 148/5/2 156/5/2
f 153/4/2 154/4/2 157/4/2
f 152/4/2 153/4/2 157/4/2
f 155/4/2 156/4/2 157/4/2
f 154/4/2 155/4/2 157/4/2
f 157/4/2 156/4/2 158/4/2
f 158/4/2 156/4/2 159/4/2
f 159/4/2 156/4/2 160/4/2
f 159/5/2 160/5/2 161/5/2
f 160/4/2 156/4/2 161/4/2
f 161/4/2 156/4/2 162/4/2
f 151/5/2 152/5/2 163/5/2
f 152/4/2 157/4/2 164/4/2
f 163/5/2 152/5/2 164/5/2
f 157/5/2 158/5/2 165/5/2
f 164/4/2 157/4/2 165/4/2
f 158/4/2 159/4/2 166/4/2
f 165/5/2 158/5/2 166/5/2
f 159/5/2 161/5/2 167/5/2
f 166/4/2 159/4/2 167/4/2
f 161/5/2 162/5/2 167/5/2
f 167/5/2 162/5/2 168/5/2
f 173/5/3 170/5/3 169/5/3
f 174/5/3 170/5/3 173/5/3
f 175/4/3 171/4/3 170/4/3
f 175/5/3 170/5/3 174/5/3
f 176/5/3 172/5/3 171/5/3
f 176/4/3 171/4/3 175/4/3
f 177/5/3 175/5/3 174/5/3
f 177/4/3 174/4/3 173/4/3
f 177/5/3 176/5/3 175/5/3
f 178/5/3 176/5/3 177/5/3
f 179/4/3 177/4/3 173/4/3
f 179/4/3 178/4/3 177/4/3
f 180/4/3 178/4/3 179/4/3
f 181/5/3 176/5/3 178/5/3
f 181/4/3 178/4/3 180/4/3
f 182/5/3 172/5/3 176/5/3
f 182/5/3 176/5/3 181/5/3
f 183/4/3 181/4/3 180/4/3
f 183/5/3 180/5/3 179/5/3
f 183/4/3 182/4/3 181/4/3
f 184/4/3 182/4/3 183/4/3
f 185/5/3 183/5/3 179/5/3
f 185/5/3 184/5/3 183/5/3
f 186/5/3 184/5/3 185/5/3
f 187/5/3 185/5/3 179/5/3
f 188/4/3 186/4/3 185/4/3
f 188/5/3 185/5/3 187/5/3
f 189/4/3 186/4/3 188/4/3
f 190/5/3 184/5/3 186/5/3
f 190/4/3 186/4/3 189/4/3
f 191/4/3 189/4/3 188/4/3
f 191/4/3 188/4/3 187/4/3
f 192/5/3 190/5/3 189/5/3
f 192/4/3 189/4/3 191/4/3
f 193/5/3 184/5/3 190/5/3
f 193/5/3 190/5/3 192/5/3
f 198/5/3 195/5/3 194/5/3
f 199/5/3 195/5/3 198/5/3
f 200/5/3 197/5/3 196/5/3
f 201/5/3 197/5/3 200/5/3
f 202/4/3 199/4/3 198/4/3
f 203/4/3 199/4/3 202/4/3
f 204/4/3 201/4/3 200/4/3
f 205/4/3 201/4/3 204/4/3
f 206/5/3 203/5/3 202/5/3
f 207/5/3 206/5/3 202/5/3
f 208/5/3 206/5/3 207/5/3
f 209/4/3 201/4/3 205/4/3
f 210/4/3 201/4/3 209/4/3
f 213/4/3 212/4/3 211/4/3
f 214/4/3 212/4/3 213/4/3
f 215/5/3 214/5/3 213/5/3
f 216/5/3 214/5/3 215/5/3
f 217/4/3 216/4/3 215/4/3
f 218/4/3 216/4/3 217/4/3
f 227/2/3 220/2/3 219/2/3
f 227/1/3 221/1/3 220/1/3
f 228/2/3 222/2/3 221/2/3
f 228/1/3 221/1/3 227/1/3
f 229/3/3 223/3/3 222/3/3
f 229/2/3 222/2/3 228/2/3
f 230/1/3 224/1/3 223/1/3
f 230/3/3 223/3/3 229/3/3
f 231/2/3 225/2/3 224/2/3
f 231/1/3 224/1/3 230/1/3
f 232/3/3 226/3/3 225/3/3
f 232/2/3 225/2/3 231/2/3
f 233/3/3 226/3/3 232/3/3
f 234/2/3 227/2/3 219/2/3
f 235/3/3 228/3/3 227/3/3
f 235/2/3 227/2/3 234/2/3
f 236/2/3 231/2/3 230/2/3
f 236/3/3 228/3/3 235/3/3
f 236/2/3 230/2/3 229/2/3
f 236/2/3 233/2/3 232/2/3
f 236/2/3 232/2/3 231/2/3
f 236/2/3 229/2/3 228/2/3
f 237/2/3 233/2/3 236/2/3
f 238/2/3 233/2/3 237/2/3
f 239/2/3 233/2/3 238/2/3
f 240/2/3 233/2/3 239/2/3
f 241/2/3 234/2/3 219/2/3
f 242/3/3 235/3/3 234/3/3
f 242/2/3 234/2/3 241/2/3
f 243/1/3 236/1/3 235/1/3
f 243/3/3 235/3/3 242/3/3
f 243/1/3 237/1/3 236/1/3
f 244/3/3 238/3/3 237/3/3
f 244/1/3 237/1/3 243/1/3
f 245/2/3 239/2/3 238/2/3
f 245/3/3 238/3/3 244/3/3
f 246/3/3 240/3/3 239/3/3
f 246/2/3 239/2/3 245/2/3
f 247/3/3 240/3/3 246/3/3
f 248/3/4 249/3/4 254/3/4
f 249/2/4 250/2/4 255/2/4
f 254/3/4 249/3/4 255/3/4
f 250/1/4 251/1/4 256/1/4
f 255/2/4 250/2/4 256/2/4
f 251/2/4 252/2/4 257/2/4
f 256/1/4 251/1/4 257/1/4
f 257/2/4 252/2/4 258/2/4
f 252/3/4 253/3/4 259/3/4
f 258/2/4 252/2/4 259/2/4
f 259/3/4 253/3/4 260/3/4
f 254/2/4 255/2/4 261/2/4
f 255/2/4 256/2/4 261/2/4
f 261/2/4 256/2/4 262/2/4
f 262/2/4 256/2/4 263/2/4
f 257/3/4 258/3/4 264/3/4
f 263/2/4 256/2/4 264/2/4
f 256/3/4 257/3/4 264/3/4
f 264/3/4 258/3/4 265/3/4
f 258/1/4 259/1/4 266/1/4
f 265/3/4 258/3/4 266/3/4
f 259/2/4 260/2/4 267/2/4
f 266/1/4 259/1/4 267/1/4
f 267/2/4 260/2/4 268/2/4
f 261/1/4 262/1/4 269/1/4
f 262/3/4 263/3/4 270/3/4
f 269/1/4 262/1/4 270/1/4
f 263/2/4 264/2/4 271/2/4
f 270/3/4 263/3/4 271/3/4
f 264/1/4 265/1/4 272/1/4
f 271/2/4 264/2/4 272/2/4
f 265/2/4 266/2/4 273/2/4
f 272/1/4 265/1/4 273/1/4
f 266/3/4 267/3/4 274/3/4
f 273/2/4 266/2/4 274/2/4
f 267/3/4 268/3/4 274/3/4
f 268/2/4 260/2/4 275/2/4
f 274/3/4 268/3/4 275/3/4
f 275/2/4 260/2/4 276/2/4
f 277/5/4 278/5/4 279/5/4
f 279/5/4 278/5/4 280/5/4
f 279/4/4 280/4/4 281/4/4
f 281/4/4 280/4/4 282/4/4
f 281/5/4 282/5/4 283/5/4
f 283/5/4 282/5/4 284/5/4
f 284/5/4 282/5/4 285/5/4
f 286/4/4 287/4/4 290/4/4
f 288/4/4 289/4/4 291/4/4
f 291/4/4 289/4/4 292/4/4
f 286/4/4 290/4/4 293/4/4
f 291/5/4 292/5/4 294/5/4
f 294/5/4 292/5/4 295/5/4
f 294/4/4 295/4/4 296/4/4
f 286/4/4 293/4/4 297/4/4
f 297/4/4 293/4/4 298/4/4
f 297/5/4 298/5/4 299/5/4
f 299/5/4 298/5/4 300/5/4
f 296/4/4 295/4/4 301/4/4
f 301/4/4 295/4/4 302/4/4
f 303/5/4 304/5/4 307/5/4
f 304/4/4 305/4/4 308/4/4
f 307/5/4 304/5/4 308/5/4
f 305/5/4 306/5/4 309/5/4
f 308/4/4 305/4/4 309/4/4
f 309/5/4 306/5/4 310/5/4
f 307/4/4 308/4/4 311/4/4
f 308/4/4 309/4/4 311/4/4
f 309/4/4 310/4/4 311/4/4
f 311/4/4 310/4/4 312/4/4
f 307/4/4 311/4/4 313/4/4
f 311/5/4 312/5/4 314/5/4
f 313/4/4 311/4/4 314/4/4
f 313/5/4 314/5/4 315/5/4
f 314/5/4 312/5/4 315/5/4
f 312/4/4 310/4/4 316/4/4
f 315/5/4 312/5/4 316/5/4
f 316/4/4 310/4/4 317/4/4
f 313/5/4 315/5/4 318/5/4
f 315/4/4 316/4/4 319/4/4
f 318/5/4 315/5/4 319/5/4
f 318/4/4 319/4/4 320/4/4
f 319/4/4 316/4/4 320/4/4
f 316/5/4 317/5/4 321/5/4
f 320/4/4 316/4/4 321/4/4
f 321/5/4 317/5/4 322/5/4
f 318/4/4 320/4/4 323/4/4
f 320/5/4 321/5/4 324/5/4
f 323/4/4 320/4/4 324/4/4
f 323/5/4 324/5/4 325/5/4
f 324/5/4 321/5/4 325/5/4
f 321/4/4 322/4/4 326/4/4
f 325/5/4 321/5/4 326/5/4
f 326/4/4 322/4/4 327/4/4
f 323/5/4 325/5/4 328/5/4
f 325/4/4 326/4/4 329/4/4
f 328/5/4 325/5/4 329/5/4
f 326/5/4 327/5/4 330/5/4
f 329/4/4 326/4/4 330/4/4
f 330/5/4 327/5/4 331/5/4
f 334/2/5 333/2/5 332/2/5
f 335/2/5 333/2/5 334/2/5
f 336/1/5 335/1/5 334/1/5
f 337/2/5 333/2/5 335/2/5
f 337/1/5 335/1/5 336/1/5
f 338/2/5 333/2/5 337/2/5
f 339/2/5 333/2/5 338/2/5
f 340/3/5 337/3/5 336/3/5
f 341/2/5 338/2/5 337/2/5
f 341/3/5 337/3/5 340/3/5
f 342/1/5 339/1/5 338/1/5
f 342/2/5 338/2/5 341/2/5
f 343/1/5 339/1/5 342/1/5
f 348/5/5 345/5/5 344/5/5
f 349/4/5 346/4/5 345/4/5
f 349/5/5 345/5/5 348/5/5
f 350/5/5 347/5/5 346/5/5
f 350/4/5 346/4/5 349/4/5
f 351/5/5 347/5/5 350/5/5
f 352/4/5 349/4/5 348/4/5
f 352/4/5 350/4/5 349/4/5
f 352/4/5 351/4/5 350/4/5
f 353/4/5 351/4/5 352/4/5
f 354/4/5 351/4/5 353/4/5
f 355/4/5 351/4/5 354/4/5
f 356/4/5 352/4/5 348/4/5
f 357/4/5 352/4/5 356/4/5
f 358/4/5 352/4/5 357/4/5
f 359/4/5 351/4/5 355/4/5
f 360/5/5 347/5/5 351/5/5
f 360/4/5 351/4/5 359/4/5
f 361/5/5 347/5/5 360/5/5
f 362/4/5 358/4/5 357/4/5
f 363/4/5 360/4/5 359/4/5
f 363/4/5 361/4/5 360/4/5
f 364/5/5 357/5/5 356/5/5
f 365/4/5 362/4/5 357/4/5
f 365/5/5 357/5/5 364/5/5
f 366/4/5 362/4/5 365/4/5
f 368/4/5 361/4/5 363/4/5
f 369/4/5 367/4/5 366/4/5
f 369/4/5 368/4/5 367/4/5
f 369/4/5 361/4/5 368/4/5
f 369/4/5 365/4/5 364/4/5
f 369/4/5 366/4/5 365/4/5
f 370/4/5 361/4/5 369/4/5
f 371/4/5 369/4/5 364/4/5
f 372/5/5 370/5/5 369/5/5
f 372/4/5 369/4/5 371/4/5
f 373/5/5 370/5/5 372/5/5
f 379/5/5 375/5/5 374/5/5
f 380/4/5 376/4/5 375/4/5
f 380/5/5 375/5/5 379/5/5
f 381/5/5 377/5/5 376/5/5
f 381/4/5 376/4/5 380/4/5
f 382/4/5 378/4/5 377/4/5
f 382/5/5 377/5/5 381/5/5
f 383/4/5 378/4/5 382/4/5
f 384/4/5 378/4/5 383/4/5
f 385/5/5 379/5/5 374/5/5
f 386/5/5 379/5/5 385/5/5
f 387/4/5 386/4/5 385/4/5
f 388/4/5 386/4/5 387/4/5
f 389/5/5 384/5/5 383/5/5
f 390/5/5 384/5/5 389/5/5
f 391/5/5 384/5/5 390/5/5
f 392/5/5 388/5/5 387/5/5
f 393/5/5 388/5/5 392/5/5
f 394/4/5 391/4/5 390/4/5
f 395/4/5 391/4/5 394/4/5
f 396/5/5 395/5/5 394/5/5
f 397/4/5 393/4/5 392/4/5
f 398/4/5 393/4/5 397/4/5
f 402/5/5 395/5/5 396/5/5
f 403/5/5 398/5/5 397/5/5
f 404/4/5 399/4/5 398/4/5
f 404/5/5 398/5/5 403/5/5
f 405/5/5 400/5/5 399/5/5
f 405/4/5 399/4/5 404/4/5
f 406/4/5 401/4/5 400/4/5
f 406/5/5 400/5/5 405/5/5
f 407/5/5 402/5/5 401/5/5
f 407/4/5 401/4/5 406/4/5
f 408/5/5 395/5/5 402/5/5
f 408/5/5 402/5/5 407/5/5
f 409/5/6 410/5/6 413/5/6
f 413/5/6 410/5/6 414/5/6
f 410/4/6 411/4/6 415/4/6
f 414/5/6 410/5/6 415/5/6
f 411/5/6 412/5/6 416/5/6
f 415/4/6 411/4/6 416/4/6
f 416/5/6 412/5/6 417/5/6
f 417/5/6 412/5/6 418/5/6
f 418/5/6 412/5/6 419/5/6
f 418/4/6 419/4/6 420/4/6
f 420/4/6 419/4/6 421/4/6
f 409/5/6 413/5/6 422/5/6
f 422/5/6 413/5/6 423/5/6
f 422/4/6 423/4/6 424/4/6
f 424/4/6 423/4/6 425/4/6
f 420/5/6 421/5/6 426/5/6
f 426/5/6 421/5/6 427/5/6
f 426/4/6 427/4/6 428/4/6
f 428/4/6 427/4/6 429/4/6
f 424/5/6 425/5/6 430/5/6
f 428/5/6 429/5/6 431/5/6
f 424/5/6 430/5/6 432/5/6
f 431/5/6 429/5/6 436/5/6
f 424/5/6 432/5/6 437/5/6
f 432/4/6 433/4/6 438/4/6
f 437/5/6 432/5/6 438/5/6
f 434/5/6 435/5/6 439/5/6
f 438/4/6 433/4/6 439/4/6
f 433/5/6 434/5/6 439/5/6
f 435/4/6 436/4/6 440/4/6
f 439/5/6 435/5/6 440/5/6
f 436/5/6 429/5/6 441/5/6
f 440/4/6 436/4/6 441/4/6
f 441/5/6 429/5/6 442/5/6
f 443/5/6 444/5/6 446/5/6
f 444/4/6 445/4/6 447/4/6
f 446/5/6 444/5/6 447/5/6
f 447/4/6 445/4/6 448/4/6
f 448/4/6 445/4/6 449/4/6
f 443/5/6 446/5/6 450/5/6
f 450/5/6 446/5/6 451/5/6
f 450/4/6 451/4/6 452/4/6
f 452/4/6 451/4/6 453/4/6
f 449/4/6 445/4/6 454/4/6
f 454/4/6 445/4/6 455/4/6
f 452/5/6 453/5/6 456/5/6
f 456/5/6 453/5/6 457/5/6
f 454/5/6 455/5/6 461/5/6
f 461/5/6 455/5/6 462/5/6
f 456/4/6 457/4/6 463/4/6
f 457/4/6 458/4/6 463/4/6
f 458/4/6 459/4/6 463/4/6
f 459/5/6 460/5/6 464/5/6
f 463/4/6 459/4/6 464/4/6
f 461/4/6 462/4/6 465/4/6
f 464/5/6 460/5/6 465/5/6
f 460/4/6 461/4/6 465/4/6
f 465/4/6 462/4/6 466/4/6
f 467/4/6 468/4/6 471/4/6
f 468/5/6 469/5/6 471/5/6
f 469/4/6 470/4/6 472/4/6
f 471/5/6 469/5/6 472/5/6
f 467/4/6 471/4/6 473/4/6
f 471/4/6 472/4/6 473/4/6
f 473/4/6 472/4/6 474/4/6
f 474/4/6 472/4/6 475/4/6
f 472/4/6 470/4/6 476/4/6
f 475/4/6 472/4/6 476/4/6
f 473/5/6 474/5/6 477/5/6
f 474/4/6 475/4/6 478/4/6
f 477/5/6 474/5/6 478/5/6
f 475/5/6 476/5/6 479/5/6
f 478/4/6 475/4/6 479/4/6
f 479/5/6 476/5/6 480/5/6
